<?xml version="1.0" encoding="UTF-8"?>
<svg id="Capa_2" xmlns="http://www.w3.org/2000/svg" width="232.5mm" height="31.9mm" version="1.1" viewBox="0 0 658.9 90.5">
  <!-- Generator: Adobe Illustrator 29.4.0, SVG Export Plug-In . SVG Version: 2.1.0 Build 152)  -->
  <defs>
    <style>
      .st0 {
        fill: none;
        stroke: #b38f00;
        stroke-miterlimit: 10;
        stroke-width: 2px;
      }

      .st1 {
        fill: #212222;
      }

      .st2 {
        fill: #72103d;
      }

      .st3 {
        fill: #ae8420;
      }
    </style>
  </defs>
  <g id="Capa_1-2">
    <path class="st3" d="M62,47.3c-.1-1.7-.5-3.4-1.2-5,0-.1-.2-.2-.4-.2s-.2,0-.2,0v.2c.5,1.3.9,2.9,1.1,4.6,0,.8,0,1.8-.5,3.2-.1.8,0,1.7,0,2.5,0,.3-.2.5-.3.5s-.3-.1-.3-.5c0-.9,0-1.7-.1-2.4h0c0-1.4,0-2.4-.3-3.5-.1-.5-.7-1.4-1.6-2.4-.4-.7-.7-1.3-.9-1.9,0-.1,0-.3-.1-.5,0-.2,0-.4-.2-.5l-.3-1c0,0-.1,0-.2,0-.2,0-.3,0-.4.2,0,0-.1.2,0,.3l.9,3c.2.5.6,1,1.1,1.5h0c.2.3.5.5.7.8.4.5.4.9.5,1.4.2,1,.3,2.5.4,4.6l.6,3c.2,1,.1,2.1-.1,3.4,0,.5,0,.6,0,.7h0s.2,0,.5-.3c.8-1,.8-4.5.8-7.3,0-.9.2-1.6.4-2.3.2-.7.3-1.4.3-2.1"/>
    <path class="st3" d="M59,42.7v-.5c0-.1,0-.2-.1-.3-.2-.2-.3-.4-.6-.5,0,0-.1,0-.2,0h0s0,0,0,.2c.2,1.2.6,2.1,1.4,2.8h0s0,0,0,0c0,0,0,0,0-.3l-.4-.9c0-.2-.1-.3-.2-.5"/>
    <path class="st3" d="M55.3,50.8h0c-.1,0-.3-.1-.3-.3-.2-.3-.5-1.1-.8-2.7,0-.4-.2-.8-.3-1.1-.2-.8-.5-1.3-1-1.7-1-.7-1.8-1.8-2.5-3.3-.1-.3-.3-.5-.4-.5s-.1,0-.2.1c-.1.2-.2.4,0,.6.3.8.7,1.5,1.1,2,.2.2.3.3.5.5h0c.7.7,1.2,1.1,1.5,1.6.4.5.5,1.1.5,1.6,0,.1,0,.2,0,.4h0c.3,1.6.7,2.7,1.5,4.4.2.5.3.9.4,1.4l.3,1.8c0,.5.2.6.3.6h0c0-.1.1-.3.1-.5,0-1.2,0-2.4-.3-5.4-.3-2.1-.7-3.5-1.1-4.2-.1-.2-.3-.3-.4-.3h0s0,.1,0,.3c.6,1.4.9,2.8,1,4.3,0,.2,0,.3-.1.4h0c0,0,0,0,0,0Z"/>
    <path class="st3" d="M51.9,41.6c0-.2-.2-.3-.4-.3s-.2,0-.2,0h0c.3,1,.7,1.8,1.3,2.3h.2c0,0,0,0,0,0,0,0,0-.1,0-.2-.4-.5-.7-1.2-.8-2"/>
    <path class="st3" d="M57.8,51h0c0,0-.2,0-.3-.3,0-.1,0-.3-.1-.4l-.5-3.1c-.3-1.2-.6-1.8-1.2-2.4-.8-.8-1.5-2-2.2-3.8-.1-.4-.3-.5-.3-.5s-.2.1-.2.4c0,.2,0,.3,0,.5.5,1.7,1.2,2.8,2,3.6.6.5.9,1.1,1,1.9h0c0,.4.2.8.2,1.1h0c.3,1.7.7,3.4,1.3,4.9.2.4.3.9.3,1.4,0,1.2.1,1.9.2,2.5,0,.5.2.7.3.7s.2-.2.3-.6c.2-1.6.2-3.6,0-5.9,0-1.3-.2-2.3-.4-3.2-.1-.5-.3-.9-.6-1.3-.2-.2-.3-.3-.3-.3,0,0,0,.1,0,.3.3,1.2.6,2.6.7,4,0,.2,0,.4-.1.5h0c0,0,0,0,0,0Z"/>
    <path class="st3" d="M55.8,43.4c-.3-.5-.5-1-.6-1.4l-.2-.8c0-.2,0-.3-.2-.4-.1-.1-.3-.2-.5-.2s-.1,0-.2,0c0,0,0,.1,0,.2.3,1.3.8,2.3,1.5,2.9h0c0,0,0,.1.2.1h0s0,0,0-.2,0-.2-.2-.3"/>
    <path class="st3" d="M52.4,50.8h0c0,.3.1.5.2.7,0,.2.1.3.2.5,0,0,.2.1.2.1,0,0,.2-.1.2-.2,0-.1,0-.3,0-.5-.2-3.1-.6-4.9-1.4-5.8-.2-.2-.2-.2-.2-.2,0,0,0,0,0,.2,0,.1,0,.2,0,.3.2.5.4,1,.5,1.4,0,.2,0,.3,0,.4h0s0,0,0,0h0c-.1,0-.2-.1-.3-.3-.4-1-.9-1.6-1.6-2-1-.6-1.8-1.2-2.4-1.8-.2-.3-.4-.6-.6-1,0,0,0-.1-.2-.2-.1,0-.3.2-.3.4,0,.1,0,.2,0,.3.6,1,1.2,1.7,2,2.1,1.4.7,2.3,1.5,2.8,2.7.5,1.2.8,2.2,1,2.8"/>
    <path class="st3" d="M48.2,42.1c-.2,0-.3,0-.3.1h0c.5.8,1,1.4,1.6,1.7h.2s0,0,0,0c0,0,0,0,0-.2-.5-.4-.8-.9-1.1-1.5,0-.1-.2-.2-.3-.2"/>
    <path class="st3" d="M45.4,45.3h0c.4.2.7.3.9.4.3.2.6.3.8.5.6.5,1,1.2,1.6,1.9h0c.4.7.8,1.2,1.3,1.8,0,0,.2.1.2.1s.1,0,.2,0c0,0,0-.2,0-.3-.2-.7-.6-1.7-1.4-3.3,0-.2-.3-.3-.6-.3h0c0,0,.3.7.3.7h0v.2h0c0,0,0,.1-.2.1h-.2c0,0,0,0,0,0h0c-.3-.4-.6-.8-.9-1.1-.2-.2-.3-.2-.5-.3-.3-.1-.7-.3-1.2-.5-.4-.2-.7-.4-.8-.5-.3-.2-.6-.5-.9-.8,0,0-.1,0-.2,0s-.1,0-.1,0c0,0,0,.3,0,.4.2.4.5.7.9.9.2,0,.3.2.5.2"/>
    <path class="st3" d="M56.9,57.8c-.8-.5-1.4-.9-1.9-1.2-3.2-2.5-6.5-4.8-10-7.2,0,0-.2,0-.2,0s0,0,0,0c0,.2,0,.5.3.6l10.5,7.7h.1c.2.2.3.3.4.4,0,0,.1.3-.2.5-.3.2-.7.3-1,.3-.6,0-1.2-.2-1.8-.7-2.8-2.2-5.5-4.4-8.1-6.5,0,0-.1,0-.2,0h0c0,0,0,.3,0,.4,0,.2.1.2.3.4,2.7,2.2,5.4,4.4,8,6.6.6.3,1.2.5,1.8.5.7,0,1.5-.3,2.2-.9.2-.2.1-.5,0-.7"/>
    <path class="st3" d="M53,57.2c.5.3.9.6,1.2.7,0,0,.2,0,.2,0s.1,0,.1,0c0,0,0-.1-.2-.3l-9.3-7.2h-.1s0,0,0,0c0,0,0,.3.3.5l7.9,6.2h0Z"/>
    <path class="st3" d="M50.7,57.6l-6.1-5.1c0,0-.2,0-.2,0h0c0,0,0,.2.2.4,1.8,1.6,3.7,3.3,5.7,5,.3.3.6.5.8.6.1,0,.2,0,.3,0s.2,0,.2-.1c0,0,0,0,0-.1l-.9-.7h0Z"/>
    <path class="st3" d="M46,44.4h.2s0,0,0,0c0,0,0,0,0-.1,0-.1-.2-.3-.3-.4-.1-.2-.3-.2-.5-.3-.1,0-.2,0-.3,0s-.1,0-.1,0h0c.3.4.6.7,1,.9"/>
    <path class="st3" d="M51.8,59.9c.3,0,.7,0,.9-.3,0,0,.1-.1,0-.2,0,0,0-.1-.2-.2h-.2s0,0-.2,0h0c-.2,0-.3,0-.4,0-.5,0-.9-.2-1.4-.5-1.5-1.2-2.7-2.3-3.7-3.3h0c-.8-.8-1.5-1.5-2.3-2.2,0,0-.1,0-.2,0h0s0,.1,0,.2c0,0,0,.1.2.2l.4.4c1.8,1.7,3.5,3.3,5.2,4.8.5.5.8.8,1.2.9.3,0,.5,0,.7,0"/>
    <path class="st3" d="M43.6,54c1.3,1.5,2.8,2.9,4.3,4.4.5.4.8.6,1.1.6h0s0,0,0-.2c-1.4-1.2-2.9-2.7-4.1-3.9,0,0-.2-.2-.2-.3h0c-.2-.3-.5-.6-.8-.9h-.1s0,.1,0,.2"/>
    <path class="st3" d="M49.7,60.1c.1,0,.2,0,.3,0,0,0,0,0,0-.1,0,0-.1-.2-.3-.2-.6,0-1.2-.2-1.7-.7-1.6-1.5-3.2-3-4.7-4.6,0,0-.1,0-.2,0h0c0,0,0,.2,0,.5,0,0,.1.2.2.3h0c.9,1,2,2.1,3.6,3.6.5.4.8.8,1.5,1.1.4.2.8.3,1.1.3"/>
    <path class="st3" d="M47.3,59.6c0,0,.1,0,.1,0,0,0-.1-.3-.3-.3-.7-.1-1.7-1.2-2.7-2.4l-.5-.6h-.1s0,0,0,0c0,0,0,.1,0,.2l2.2,2.5c.5.5.9.7,1.5.7h0Z"/>
    <path class="st3" d="M20.2,33.1h0c.1,0,.2,0,.3,0s.2,0,.3,0c0,0,.1,0,.2,0,.1,0,.2,0,.2,0,.2-.3.5-.5.8-.6.1,0,.3,0,.4,0,.3,0,.6,0,.9.3.1.1.1.2.1.3,0,0-.1.2-.3.2h-.3c-.3,0-.5,0-.9.1-.8.2-1.1.7-1.1,1.6h0c0,.2,0,.5-.3.5s-.2,0-.4-.2c-.4-.4-.6-.8-.5-1.1,0-.4.2-.7.6-1M19.3,33.8c-.2.4-.2.7-.1,1.1.5,1.1,1.2,1.5,2.3,1.5h0c.3,0,.5,0,.5-.2,0,0,0-.2-.1-.3-.5-.4-.7-1-.5-1.5.2-.5.8-.9,1.4-.9.1,0,.3,0,.4,0,.3,0,.6,0,.9-.2.5-.4.8-.5,1.2-.5s.4,0,.6.1h0c.2.2.2.4,0,.6-.1.2-.3.2-.5.2-.5.1-.8.3-1,.4,0,0,0,.1,0,.2,0,0,0,0,.2,0,.1,0,.2,0,.3,0s.2,0,.4,0c.6-.2,1.1-.6,1.8-1.2.2-.2.2-.3,0-.5-.5-.5-1-.7-1.6-.7-.2,0-.4,0-.6,0-.3,0-.6.1-.9.1s-.4,0-.6,0l-1.3-.4c-.2,0-.4-.1-.6-.1s-.4,0-.5.2h0c0,0,0,.1.1.2.1.1.2.2.1.3,0,.1-.2.2-.4.2-.1,0-.2,0-.3,0-.2,0-.3,0-.4.1-.4.3-.6.7-.9,1.1"/>
    <path class="st3" d="M21.6,31c.2.1.5.3.9.4h0c0,0,.2,0,.2-.1.1-.1.2-.4.3-.8,0-.4.3-.7.5-1.1h.1c.2-.4.3-.5.4-.8.1-.5,0-.9-.3-1.1v.2c-.1,1-.7,1.5-1.2,1.8l-.3.2c-.3.2-.5.4-.7.6-.2.2-.3.4-.3.5,0,0,0,.2.1.2"/>
    <path class="st3" d="M23.8,29.8c-.1,0-.2,0-.1.1.4.8.2,1-.4,1.3-.2,0-.1.3.1.3,0,0,.1,0,.2,0,.7-.3.8-.8.5-1.4-.1-.2-.2-.2-.3-.2"/>
    <path class="st3" d="M24.8,28.3c.1,0,.2-.2.2-.4,0-.2,0-.6.3-.7.2,0,.1.3.2.3,0,0,.1,0,.2-.1,0-.4-.1-.8-.4-1h0s0,0,0,0c-.2.4-.3,1.1-.3,1.6,0,.1,0,.1,0,.1"/>
    <path class="st3" d="M24.7,29.4h0c1.7-.8,2.1-1.8,2.1-2.4,0-.5-.1-1.1-.4-1.4h0c.2.9,0,1.6-.5,2.3-.4.3-.8.6-1.3,1h-.2c0,.2,0,.2,0,.3,0,0,.1.2.3.2"/>
    <path class="st3" d="M26.8,29.5c-.5.4-.9.6-1.3.8-.4.1-.6.3-.7.5,0,0,0,.1,0,.1h0c.6-.1,1.4-.6,2.5-1.3.5-.4.7-.8.4-1.2,0,0-.1,0-.1,0s-.1,0-.2,0c-.4.4-2.1,1.3-2.5,1.5-.1,0-.1.1-.1.2,0,0,0,.1.1,0,.3,0,1.4-.8,1.7-.9.4-.2.4-.1.5,0,0,.1-.1.3-.3.4"/>
    <path class="st3" d="M24.5,31.9c.2,0,.4,0,.6-.1.2-.1,1.9-1,2.4-1,0,0,.2,0,.3,0,0,0,.3.4,0,.6l-1,.5c0,0,0,0,0,0,0,0,.1,0,.3,0h0c1-.2,1.4-.6,1.3-1.2,0-.1-.2-.3-.5-.3-.2,0-.4,0-.9.1-.5.2-1.3.6-1.8.8-.2,0-.4.2-.6.3-.1,0-.4.3,0,.3"/>
    <path class="st3" d="M27.7,27.3c.3-.2.6-1,.8-.6.2.3,0,.9-.2,1.1-.1.2,0,.3.1.4h0s0,0,.1,0c.3-.4.4-1,.3-1.6,0-.3-.2-.6-.4-.8h-.1c0,0-.1,0-.1,0l-.2.6c0,.3-.2.5-.3.6-.2.2-.2.3-.2.4s0,0,.3,0"/>
    <path class="st3" d="M29.3,28c.5.1,1,.4,1.5.6.1,0,.2.1.3.2.4.2.8.4,1.3.6h.2s.1,0,.2,0h0c.3-.4.6-.8.6-1.3h0s0,0,0,0c-.2,0-.3,0-.5,0s-.4,0-.6-.1c-1-.6-1.9-.8-2.6-.9h-.1s0,0,0,0h0c0,.1,0,.2,0,.2,1.1.3,1.9.5,2.8,1.1h0c0,0,.2.2.2.2h0c0,.1-.1.2-.2.2h-.1s-.1-.1-.1-.1c-.9-.4-2.4-1-2.6-1.1h0c0,0-.1,0-.1,0,0,0,0,.2.1.2"/>
    <path class="st3" d="M28.2,32.8c-.1,0-.3-.3-.4-.5h0s0,0,0,0c0,0,0,.1,0,.2,0,.4.2.7.5.8,0,0,.2,0,.3,0,.2,0,.4-.2.4-.4,0-.4-.2-.7-.5-1h0c0,.2.2.6.2.8,0,.1-.1.1-.2.1"/>
    <path class="st3" d="M29.6,32.1c-.2,0-.5-.6-.6-.8h-.1c0,0,0,0,0,0,0,0,0,.1,0,.2,0,.4.2.8.5,1.1.1,0,.2.1.3.1.2,0,.5-.2.9-.6.2-.2,0-.5,0-.6-.4-.5-1.2-.9-1.8-1.2h0,0c.2.2.4.3.6.5h0c.3.2.6.4.8.7,0,.1.1.3,0,.4,0,0-.2.3-.4.3"/>
    <path class="st3" d="M28.5,29.5h0c0,.3,2.4,1.4,2.6,1.6.1,0,.3.1.4.1s.2,0,.3-.2c.2-.2.4-.6.2-.9-.5-.7-1.6-1.3-3-1.7h0s0,.1,0,.1c0,0,0,0,.1.1.6.2,1.5.6,2.1,1.2h0c.1.1.3.3.2.5,0,0-.1.2-.2.3h-.1c-.2,0-.5-.1-.8-.3h-.1c0,0,0,0,0,0-.6-.3-1.4-.7-1.6-.7h0s0,0,0,0Z"/>
    <path class="st3" d="M50.5,27.8s0,.1.2.3c3.7,2.6,6.6,6.5,9,11.7,0,.2,0,.4,0,.5,0,0-.1,0-.2,0-.2,0-.4,0-.7-.3-.8-.5-1.5-1.2-2.2-2.1-2.6-4.2-5.7-6.8-8.4-8.9,0,0-.1-.1-.2-.1h0c0,.1,0,.4.2.6,2.5,1.7,5.3,4.9,8.5,9.7,1.1,1.5,2.5,2.2,4.4,2.2.2,0,.4,0,.5,0,.3,0,.3-.2.3-.2,0,0,0,0-.2-.2-.8-.6-1.4-1.4-1.7-2.4-2.6-5.6-6.4-9-9.1-10.8,0,0-.2,0-.3,0s-.1,0-.1,0"/>
    <path class="st3" d="M58.1,39.1c.1.1.3.2.4.2s0,0,.1,0c0-.1,0-.3-.1-.6-2.2-4-5.2-7.4-8.9-10.1-.1,0-.3-.1-.4-.1s-.2,0-.2,0c0,0,0,.1.3.3,2.3,1.8,5.1,4.4,8.9,10.4"/>
    <path class="st3" d="M54.5,39.1c-.2,0-.4-.2-.6-.4-1.7-2.6-4-4.7-6-6.5h0s0,0,0,0c0,.2,0,.6,0,.8,1.3,1.1,2.8,2.8,4.1,4.3h0c.9,1.1,1.7,2,2.2,2.5.3.2.6.2.8.2.3,0,.5-.1.6-.3s.2-.4.1-.6c-1.6-3.1-4.1-5.9-7.5-8.4,0,0-.1-.1-.2-.1h0c0,.2,0,.7.3.8,2.1,1.9,4.3,3.9,6.4,7.1.1.2.2.4,0,.5,0,0-.1.1-.2.1"/>
    <path class="st3" d="M47.3,33.8h0c0,.1,0,.3,0,.5,1.5,1.4,3,2.8,4.3,4.6.2.2.2.5,0,.7,0,.2-.4.4-.6.4-.2,0-.4,0-.5-.2-1-.8-1.9-1.8-2.8-2.8-.4-.4-.8-.8-1.2-1.2h0s-.1,0-.1,0c0,.1,0,.4,0,.5l2.9,3.1c.5.5.9.9,1.4,1.1.2,0,.5,0,.7,0,.4,0,.7-.1.9-.4.2-.2.2-.6,0-1-1.2-2.1-2.9-3.7-5-5.3h0s0,0,0,0Z"/>
    <path class="st3" d="M46.5,34.5c0,0,0,.2,0,.3,1.3,1.4,2.7,2.8,4.1,4h0s0,0,0,0c0,0,0-.1,0-.2-1.2-1.5-2.6-2.9-4.2-4.2h0c0,0,0,0,0,0Z"/>
    <path class="st3" d="M46.1,36.8c0,0-.1,0-.2,0,0,0-.1,0-.2.1,0,0,0,.2,0,.3,1,.8,1.8,1.7,2.5,2.7.1.2.2.4,0,.6,0,.2-.3.3-.6.3-.2,0-.4,0-.6-.2-.8-.5-1.6-1.3-2.4-2l-.2-.2s0,0-.1.1c0,.1,0,.3,0,.4,1.3,1.4,2.2,2.2,2.6,2.4.4,0,.7.1,1,.1.4,0,.7-.1.8-.3.2-.2.2-.6,0-1.2-.2-.6-1.3-1.8-2.9-3.2"/>
    <path class="st3" d="M45,37.9l2.4,2.2h.2c0,0,.1,0,.1,0h0c-.8-1.2-1.7-2.1-2.8-2.8,0,.1,0,.4.1.5"/>
    <path class="st3" d="M44.8,42.9c.5,0,1-.2,1.2-.6.2-.2.2-.5,0-.8-.5-.8-1.2-1.5-2-2.2h0s0,0-.1,0c0,0,0,.2,0,.2.9.9,1.3,1.4,1.5,1.7,0,.2,0,.5,0,.7-.1.2-.4.3-.7.3s-.3,0-.4-.1c-.5-.3-.9-.8-1.5-1.4h0s-.1,0-.1,0c0,0,0,.2,0,.3.5.8,1.2,1.3,1.8,1.6.1,0,.3,0,.5,0"/>
    <path class="st3" d="M44.2,41.4c.1,0,.2,0,.2,0,.1,0,.2,0,.2-.1,0,0,0-.2,0-.3-.4-.4-.8-.8-1.2-1.1,0,0-.1,0-.2,0-.1,0-.2.1-.2.2s0,.2.2.3c.4.4.7.7,1,1"/>
    <path class="st3" d="M43.2,42.8l-1.1-1.3h-.1c0,0-.1,0-.2,0,0,0,0,.2,0,.3l.7.8c.1.1.2.2.2.4,0,.3-.2.5-.5.7h0c-.2.2-.3.3-.4.4,0,0,0,.2,0,.3,0,0,0,0,.2,0h.1s.9-.8.9-.8c.3-.2.3-.5.1-.9"/>
    <path class="st3" d="M41.7,43.2h.1c0,0,.1,0,.1,0,0,0,0-.1,0-.2l-.6-1h-.1c0,0-.2,0-.2,0h0c0,.1.6,1.1.6,1.1h0Z"/>
    <path class="st3" d="M41.8,26.6c0,.1.2.3.5.5,1.6.6,3.1,1.3,4.2,2.2.2.1.2.3.1.5,0,.1-.2.2-.4.2s-.2,0-.4-.1c-1.3-1-2.5-1.5-3.4-1.9h0c0,.2,0,.3.2.4,1.1.5,2.3,1.2,3.7,2.2.2.1.4.2.5.2s.3,0,.4-.3c.3-.7,0-1.4-1-2-1.3-.7-3-1.6-4.4-1.9h0s0,0,0,0Z"/>
    <path class="st3" d="M42.8,29.1h0c0,.2,0,.4.2.4.3.2.7.4,1.2.7,1,.5,1.9,1.1,2.1,1.5.2.2.2.6,0,.9,0,.2-.2.3-.4.3s-.2,0-.4,0l-2.1-1.2h0s0,0,0,0c0,.1,0,.5.3.7.6.4,1,.8,1.5,1h.2c.2.2.6.4.8.4s.2,0,.3-.1c.5-.5.6-1.5.3-1.9-1-1-2.2-1.8-4-2.6"/>
    <path class="st3" d="M45.2,32.2h.2c.1,0,.3,0,.3,0-.3-.5-2.6-1.6-2.6-1.6,0,0,0,.2,0,.2.5.5,1.2.9,2.1,1.4"/>
    <path class="st3" d="M43.2,35.5l1.3.9c.2,0,.3.1.4.1s.2,0,.3-.1c.2-.2.4-.5.6-.8.2-.5,0-.9-.4-1.2l-1.7-1.3h0s0,0,0,0c0,0,0,.3,0,.4.5.4,1.1.8,1.3,1.2.2.2.2.5.1.7,0,.2-.2.3-.4.3-.1,0-.2,0-.3-.1l-1-.6s0,0-.1.1c0,.1,0,.3,0,.4"/>
    <path class="st3" d="M44.2,35c0,0,.2,0,.2-.1,0,0,0-.2,0-.2l-.8-.5h-.1v.3l.7.6h0,0Z"/>
    <path class="st3" d="M41.6,37.8c0,0,0,.2,0,.3l1.3,1c0,0,.2,0,.3,0,.2,0,.3,0,.5-.3l.2-.3c.3-.5.6-.9.2-1.5-.3-.4-.7-.8-1.3-1.1,0,0,0,0-.1,0,0,.1,0,.3,0,.4l.7.7c.1.2.1.5,0,.7-.1.2-.3.4-.5.4s-.2,0-.3,0l-.7-.5h-.1c0,0-.1,0-.2.1"/>
    <path class="st3" d="M42.1,37c0,0,0,.2,0,.2l.5.3h.1c0,0,.1,0,.1,0,0,0,0-.2,0-.3l-.5-.3h0c0,0-.2,0-.2,0"/>
    <path class="st3" d="M39.7,39.6s0,0-.1,0c0,0,0,.2,0,.4l1,1.1c0,0,.2.2.4.2.4,0,.9-.4,1.1-.9.2-.4.2-.7,0-1-.4-.6-.7-1-1-1.2h0s0,0-.1,0c0,.1,0,.3,0,.4l.5.6c.1.2,0,.5,0,.8-.1.2-.3.3-.5.3-.1,0-.3,0-.4-.2l-.6-.7h-.2s0,0,0,0Z"/>
    <path class="st3" d="M40.9,39.9c0,0,.1,0,.2-.1,0,0,0-.1,0-.2l-.5-.5h0c0,0-.1,0-.2,0,0,0,0,.2,0,.2l.5.5h0Z"/>
    <path class="st3" d="M42.6,52.9c0,.1,0,.3.2.3s.3,0,.4-.2c1.1-1.4.7-5.8-.7-7.9h0s-.1,0-.2,0c0,0,0,.2,0,.4,1.1,2.4,1.4,4.3,1.1,5.8,0,.2-.1.4-.3.4-.1,0-.3,0-.4-.6-.3-1.8-.8-3.2-1.5-4.4,0,.2,0,.7,0,.9.7,1.1,1.1,2.9,1.4,5.3"/>
    <path class="st3" d="M41.7,45.5h0c0,.2-.1.5,0,.6.7,1,1.1,2.2,1.3,3.6h0c0,0,0,0,0,0-.2-1.6-.6-3-1.3-4.2h0s0,0,0,0Z"/>
    <path class="st3" d="M35.1,25.5c.2.1.4.2.6.2.3.2.6.3,1,.5,1.2.7,2,1.5,2.5,3.9v.3c.6,2.3.9,3.7-1.4,5.6-.2.2-.2.4,0,.6,0,.1.1.2.3.2h0c.7-.3,1.3-.9,1.8-1.7,1.4-1.8-.1-6-.6-7.3-.4-1-1-1.6-2-2l-2.6-1.2c-.3-.2-.4-.5-.4-.8,0-.3.2-.4.6-.6.3-.1.6-.2,1.1-.2.3,0,.6,0,1,0,4.2.3,8,1.4,11.6,3.9h0c.1.2.2.4,0,.5,0,.2-.4.3-.9.3-.3,0-.5,0-.7-.3l-.3-.5c0,0,0-.1,0-.1s0,0-.1.1v.7c-.2.1-.1.1,0,.2.6.2,1.1.3,1.7.3,1,0,1.8-.3,2.6-1,.1-.2.2-.3.1-.4,0,0-.2-.1-.4-.1,0,0-.2,0-.3,0-.8,0-1.6-.2-2.4-.7-3.8-2.2-8-3.3-12.3-3.2-.4,0-.7,0-1.1.2-.4.2-.6.5-.7.9,0,.4,0,.8.3,1.1.3.4.8.6,1.3.8"/>
    <path class="st3" d="M15.9,34.1c.2.6.5.9.9.9h1.7c.2,0,.3-.2.3-.3,0-.1,0-.2-.2-.3h-1.3c-.5,0-.8-.7-.9-1.5-.4-1.5.3-2.6,1-3.5,0,0,0-.1.1-.2h-.1c0,0-.1-.1-.1-.2,0,0,0-.2.1-.3l.2-.2h0c0,0-.1-.1-.1-.1h0c-.5.3-1.2.9-2,1.8-.2.3-.3.6-.1,1.1l.6,2.7h0Z"/>
    <path class="st3" d="M19.3,32.8h0c-.3,0-.6.1-.9.1-.4,0-.8-.1-1-.4h-.1s0,0,0,0c0,0,0,.2,0,.3.3.3.7.5,1,.5s.7-.2,1-.4c0,0,.1-.1,0-.2"/>
    <path class="st3" d="M16.9,31.3c0,.2-.1.4,0,.5,0,.1.1.2.3.2.1,0,.2,0,.3,0,.7,0,1.5-.4,2.4-1.1h0c0-.1,0,0,0,0-.9.5-1.5.7-2.1.7-.2,0-.2-.1-.3-.2,0-.1,0-.4.2-.6.3-.3.6-.6.8-.9,0,0,0-.1,0-.3,0-.1,0-.2,0-.3v-.2c0-.2,0-.3.2-.5.1-.1.2-.2.4-.3.1-.1.1-.2.1-.3,0-.2-.2-.3-.4-.3-.5.2-.7.4-.6.9,0,.5,0,.7-.2,1.1-.4.5-.8,1-1,1.6"/>
    <path class="st3" d="M18.9,29c0,.1,0,.2,0,.3.2.2.3.5.2,1h0c.2-.2.3-.4.4-.6,0-.2,0-.5-.2-.7s-.1-.2-.2-.1c0,0-.1,0-.1.2"/>
    <path class="st3" d="M31.7,69.9c.6.4,1,1.4,1.4,2.4.4,1.2.9,2.5,1.8,2.8.2,0,.3,0,.4,0h0s0,0-.1-.1c-.6-.2-.9-1.2-1.3-2.3-.4-1.3-.9-2.8-1.9-3.1-.1,0-.2,0-.3,0-.1,0-.2,0-.2,0,0,0,0,0,.2.2"/>
    <path class="st3" d="M33.5,69.7c-.2,0-.2,0-.2,0,0,0,0,0,.1.1.7.4,1.1,1.4,1.5,2.6.5,1.4,1,2.8,2,2.8h0c0,0,.2,0,.2,0h0c-.6-.3-.9-1.3-1.3-2.4-.5-1.4-1.1-2.9-2.2-3.1"/>
    <path class="st3" d="M36.7,72.7h0c.4,1.1.9,2.5,2,2.5h.1s0,0,0,0c-.8-.6-1-1.4-1.3-2.2-.3-.8-.5-1.5-1.4-1.8h-.1c0,0,0,0,0,0h0c.3.3.5.8.7,1.4"/>
    <path class="st3" d="M33.5,69h.3c.3,0,.3-.3.3-.3,0-.1,0-.3-.2-.3-.2,0-.5,0-.7,0h0c-.4,0-.9,0-1.5-.2,0,0-.1,0-.2,0,0,0-.1,0-.3,0s-.2,0-.3.1c0,0,0,.2,0,.4.3.3.8.5,1.7.5.2,0,.5,0,.7,0"/>
    <path class="st3" d="M42.8,68.9c0-.2-.4-.7-1.1-.7-.9,0-1.2.5-1.3,1.2,0,.1,0,.2,0,.2,0,0,.2.1.2,0,.1,0,.2,0,.3-.2,0-.6.5-.7.6-.7.2,0,.5.2.6.4,0,.2,0,.4-.2.6-.4.2-.5.6-.3.9.4.7.5,1.4,0,2.3-.2.5,0,.8.4,1.1h0c.1.2.1.3,0,.5,0,.2-.3.3-.5.3-.3,0-.5-.2-.6-.5,0-.2-.2-.3-.4-.3s-.2,0-.3.1c0,0,0,.1,0,.3.4.7.8,1.1,1.4,1.1.2,0,.5,0,.8-.2.2-.2.4-.5.4-.8,0-.3,0-.6-.2-.8-.3-.2-.3-.5-.2-1.1.3-.6.3-1.2,0-1.8-.2-.4-.1-.8.1-1,.2-.2.3-.7.2-1"/>
    <path class="st3" d="M30.8,74c0-.1-.2-.3-.4-.3s-.1,0-.1,0l-.3.5c0,.2-.2.3-.4.3s-.3,0-.4-.2c-.1-.1-.1-.3,0-.4,0-.2.2-.4.4-.6.1-.2.1-.5,0-.8-.2-.6-.3-1.2-.2-1.8l.2-.8c0-.3,0-.5-.2-.7-.2-.2-.4-.4-.3-.7,0-.2.2-.4.5-.4,0,0,.1,0,.2,0,.2,0,.3.2.3.4,0,0,0,.1,0,.2.1.1.2.2.4.2s.1,0,.2,0c0,0,0-.2,0-.4-.1-.7-.8-1-1.3-1s-.6.1-.8.3c-.2.2-.3.5-.3.8,0,.4,0,.5.3.7h0c.2.4.2.8,0,1.2-.2.8-.2,1.2,0,1.6.2.5.2,1,0,1.3v.2c-.2.2-.3.4-.2.8.1.5.5.8,1.1.8.3,0,.5,0,.8-.2.3-.3.5-.6.6-1.1"/>
    <path class="st3" d="M40.1,75.5c-.1,0-.3,0-.4.1-.2.1-.4.2-.7.2h-.2c-2.3,0-4.7,0-7.1-.1-.2,0-.4,0-.7-.2-.2,0-.4-.1-.5-.1s-.2,0-.2,0c0,0,0,.2,0,.4.5.7,4.4.6,5.9.6h1.5c.5,0,1,0,1.3,0,.5,0,1-.2,1.3-.4.1,0,.2-.2.2-.3,0-.1-.2-.2-.4-.2"/>
    <path class="st3" d="M31.7,26.5c2.3.5,3.9,1.2,4.3,3.1,0,.8.2,1.2.5,1.5h0s0-.1,0-.1c0-1.9-.6-3.1-1.8-3.8-.6-.4-1.6-.8-2.8-1.1-.5,0-.8-.5-.8-1,0-.6.5-1.2,1.1-1.2h.1c.2,0,.3,0,.3-.1,0,0,0,0-.1-.1h-.3c-.8,0-1.5.2-1.6,1.4-.1.9.2,1.4,1,1.5"/>
    <path class="st3" d="M32,24.5h0c.4,0,.6.2.6.3,0,.1-.1.3-.6.4h0s0,0,.1.1c.2,0,.3,0,.5,0,.4,0,.6-.1.7-.3,0-.1,0-.2,0-.3,0-.2-.3-.3-.7-.3-.1,0-.3,0-.5,0"/>
    <path class="st3" d="M35.1,26.7c0,0,.2.1.4.1s.3,0,.3,0h0c-.5-.6-1.9-1-2.5-.7-.2.1,1.6,0,1.8.7"/>
    <path class="st3" d="M35.5,30.3c-.4-.7-.9-1.3-1.6-1.6-.2,0-.2,0-.2.1.9.8,1.7,1.6,2.1,3.2,0,.2,0,.4-.2.7h0c0,.2-.2.3-.3.4,0,0,0,.2,0,.3,0,.1.2.2.3.2h0l1.1-.8c0,0,.1-.2.1-.3s0-.2,0-.2c-.5-.3-.9-1-1.3-1.9"/>
    <path class="st3" d="M32.4,31.1h0s0,.1,0,.2c.2.9.3,1.9.3,3.1,0,0,0,.2,0,.2,0,0,.2.1.4.1.4,0,.8-.3,1.1-.5.3-.2.5-.5.5-.8-.1-1.3-.6-2.4-1.4-3.4,0,0,0,0-.1,0h0s0,.1,0,.2c.9,1.7,1.2,2.8.8,3.4-.2.2-.4.3-.6.3s-.3,0-.4-.4c-.1-1.2-.3-1.8-.5-2.3,0,0,0,0,0,0Z"/>
    <path class="st3" d="M33.7,32.9c0,0,0-.2,0-.3-.2-1-.9-2.5-.9-2.4h0s0,0,0,0c.3.8.5,1.6.7,2.7,0,0,.2.2.2,0"/>
    <path class="st3" d="M35,32.3c.1.3.3,0,.3-.2-.3-1.1-1.3-2.7-1.6-2.6.5.8.9,1.7,1.3,2.8"/>
    <path class="st3" d="M30.3,34.4l.2-1.3c0,0,0-.2,0-.2,0,0,0,0-.1.2-.2.4-.7,1.8-.4,2.3,0,0,.1.2.3.2.1,0,.3,0,.4,0,.5,0,.9-.1,1.1-.4.5-.6.5-1.8.4-2.9v-.2c0-.2-.1-.3-.2-.3h-.1c0,.1-.1.2,0,.4,0,.8,0,1.5-.3,2.3-.2.3-.4.5-.6.5s-.4-.1-.4-.5"/>
    <path class="st3" d="M31.1,33.8c0-.4,0-.9,0-1.4,0,0,0,0,0,0,0,0-.1,0-.1.1,0,.5,0,.8-.2,1.3,0,0,0,.1,0,.2h0c.1,0,.2,0,.2-.2"/>
    <path class="st3" d="M30.4,30c0,0,.1,0,.1,0h0c0-.2,0-.3-.1-.3-.3-.1-1.2-.6-1.6-.6,0,0,0,0,0,0,0,0,0,.1,0,.1.4.1,1.1.6,1.5.8"/>
    <path class="st3" d="M27.4,35.4c.1.1.4.2.7.2s.9,0,1.1-.8l.4-1.5c0,0,0-.1,0-.2h-.1c-.1,0-.3,0-.4.4,0,.5-.2.8-.5,1.3,0,.1-.2.2-.3.2s-.2,0-.2-.1c0,0,0-.2,0-.3.1-.2.3-.4.3-.7,0,0,0-.1,0-.2h0c0,0-.1,0-.2,0-.2.3-.4.7-.7,1-.1.2-.1.3,0,.5"/>
    <path class="st3" d="M23.4,33.9c-.1,0-.2,0-.3,0-.1,0-.2,0-.2,0,0,0,0,.1,0,.2,1.5,1.1,1.9,2.5,1.2,4.1,0,0,0,.2,0,.2h0c0,0,.2,0,.3-.1,1-1.6.7-3-1-4.3"/>
    <path class="st3" d="M10,40.8c0,.1,0,.2.2.2h0c.1,0,.2,0,.3-.1s0-.2,0-.3c-.3-.5,0-.8.2-1h0c0,0,.2-.2.2-.3s.1-.2.1-.3c0-.1-.1-.2-.2-.2s-.2,0-.3,0c-.2.2-.3.3-.6.4h0c0,0-.1.1-.1.1h-.1c0,.1-.2.2,0,.5.1.2.2.5.4.9"/>
    <path class="st3" d="M11.1,41.3c.1.1.2.2.3.2s.1,0,.1,0c0-.1,0-.3,0-.5-.3-.7,0-1,.4-1.3h0c0-.1,0-.2,0-.3,0,0-.1-.1-.2-.1s-.1,0-.2,0c-.8.5-.9,1-.6,2.1"/>
    <path class="st3" d="M12.1,40.7l.2,1c0,.2.2.2.3.2s.2,0,.2,0c0,0,0-.2,0-.3-.2-.5-.2-.8,0-1.1l.4-.3c0,0,0-.2,0-.3,0,0-.1-.2-.3-.2h-.1s-.4.4-.4.4c-.3.2-.4.4-.3.7"/>
    <path class="st3" d="M22.2,34.5c0,0-.1,0-.2,0-.1,0-.2,0-.3.2,0,.2,0,.4.1.6.7.5,1.1,1,1.2,1.5.1.5,0,1-.4,1.6l-3,2.8c-2,1.9-2.3,3.6-.9,5.2h.1s0,0,0-.2c-1.1-2.2.4-3.5,2.2-5h0c.9-.8,1.8-1.6,2.6-2.6.7-1.4.2-2.7-1.5-4"/>
    <path class="st3" d="M23.4,45.8c-.5,0-1,0-1.4.1h-.1c-.3,0-.6.1-.9.1-.8,0-1.4-.3-1.7-1.8,0-.2,0-.3-.1-.3,0,0-.2.1-.2.3,0,1.9,1.3,2,3.2,2,.5,0,1.1,0,1.8.1.9.2,1.7.9,1.9,1.7.2.8-.1,1.5-.9,2.2-.2.2-.2.3-.2.4,0,.1.2.2.4.2s.2,0,.3,0c.9-.6,1.3-1.7,1.1-2.8-.3-1.2-1.2-2-2.5-2.2-.2,0-.4,0-.6,0"/>
    <path class="st3" d="M20,38.5c-2.9,1.5-3.8,4.2-3.4,6.3.4,2,1.8,3.3,3.7,3.5h3.3c.2,0,.4.1.5.3,0,.1.1.4-.1.7,0,.1,0,.2,0,.3h0c0,0,.2,0,.3-.1.4-.4.5-.8.4-1.3-.1-.4-.5-.6-1-.6-.6,0-1.1,0-1.5,0-1.5,0-2.3,0-2.7-.3-1.4-.7-2.1-1.8-2.2-3.3,0-1.9,1.1-3.8,3.1-5,.9-.6,2-1.3,2.2-1.9,0-.2,0-.3,0-.4h0c0,0-.1,0-.2,0-.4.6-1.2,1.1-2.4,1.8"/>
    <path class="st3" d="M14.3,45.1c-.2.8-.1,1.3.4,1.7.6.5,1.1.9,1.8,1.3.8.5.9,1.3,1,2h0c0,.2,0,.4.1.6.1.7.6,1.1,1.3,1.2h0c.2,0,.3,0,.3-.2,0,0,0-.2-.1-.2-.7-.3-1-.6-1.1-1-.2-1-.5-2.3-1-2.6-.7-.4-1.3-.8-1.8-1.3-.2,0-.3-.2-.4-.4-.2-.5,0-1.5.7-2.8.2-1.4-.3-2.5-1.7-3.2,0,0-.1,0-.2,0-.1,0-.1,0-.1,0,0,0,0,.2.1.3,1.2,1,2,1.8.6,4.7"/>
    <path class="st3" d="M14.8,48.8c.8.5,1.2,1.2,1.2,2.2.2,2.2,1.2,3.2,3.2,3.2h0c.4,0,.7-.1.9-.2,0,0,0,0,0,0,0,0,0-.2-.2-.4-.1-.2-.3-.2-.5-.2s-.1,0-.3,0h0c-.2,0-.3.1-.5.1s-.3,0-.4,0c-1-.3-1.6-1-1.7-2.2,0-1.2-.3-2-1-2.5-1-.6-1.6-1.2-2-1.8-.6-1.2-.2-1.9.1-2.6,0-.2.1-.3.2-.5.1-.4.2-.7.2-1.1,0-1.1-.3-1.7-.9-1.8h-.1c0,0-.2,0-.2,0,0,0,0,.2.2.4.7.6.7,1.6,0,3.2-.5,1-.5,1.8-.1,2.4.4.6,1,1.2,1.8,1.8"/>
    <path class="st3" d="M21.2,53.9c0,0,.1,0,.2,0,0,0,0,0,0-.1-.2,0-.4-.2-.6-.2s0,0,0,0c.1.2.2.3.4.3"/>
    <path class="st3" d="M22.4,53.7s0,0,0-.2c-.2-.2-.4-.2-.7-.2h-.1c0,0,0,0,0,0,0,0,0,0,0,.1.2.2.4.2.7.2h.2c0,0,0,0,0,0Z"/>
    <path class="st3" d="M22.5,52.9h-.2c0,0,0,.2,0,.2.2.3.4.4.7.4s.2,0,.3,0h0s0,0,0-.2c-.2-.2-.5-.4-.9-.4"/>
    <path class="st3" d="M23,50.9c.2,0,.3,0,.4-.2.1,0,.2-.2.3-.3,0,0,0-.2,0-.2-.3-.3-.3-.6-.2-.9,0,0,0-.2,0-.2,0,0,0,0,0,0h0c0,0-.2,0-.3.2h0c-.5.4-.6.8-.5,1.3,0,.3.2.4.4.4h0Z"/>
    <path class="st3" d="M20.6,53.2c0,0,.1,0,.1,0h0c-.3-.2-.4-.6-.4-1.1,0-.4-.1-.9-.5-1.3,0,0,0,0-.1.2,0,.2,0,.4,0,.5.2.2.2.4.2.8,0,.6.1.9.7,1"/>
    <path class="st3" d="M21.3,52.9h.1c.2-.1.2-.2.2-.2,0,0,0,0-.1,0-.4-.3-.6-.7-.5-1.2.1-.3,0-.6-.1-.9-.2-.3-.2-.6-.2-.8h0s-.1,0-.2,0c-.1,0-.2.2-.3.3,0,.2,0,.5.2.9.2.2.2.5.2.7,0,.4,0,.7.3.9.1.1.2.2.4.2"/>
    <path class="st3" d="M22.5,49.2c0,0,0-.1,0-.1h0c-.1,0-.2,0-.3,0-.4,0-.7.2-.9.4-.1.2-.1.5,0,.9.2.3.2.5,0,.8,0,.2,0,.5,0,.7.2.4.5.6.8.6.2,0,.2,0,.2,0h0c-.1-.2-.2-.4,0-.7,0,0,.1-.1.1-.2,0,0,0-.2-.1-.2-.5-.7-.5-1.4.2-2"/>
    <path class="st3" d="M25.8,52.9c.2-.3.5-.5.8-.6.4-.2.7-.4,1-.7.4-.8.2-1.5-.4-2.1,0,0-.1,0-.2,0,0,0-.2,0-.2.1,0,.1,0,.3,0,.4l.3.5c.2.4,0,.7-.3,1-.7.4-1.2.7-1.5,1-.1.2-.3.3-.4.3s-.2,0-.3-.1l-.6-.5c0-.1-.1-.2,0-.4,0,0,.1-.1.2-.1s.1,0,.2,0l.4.2h.1s0,0,.1,0c0-.4-.1-.6-.5-.8-.1,0-.2,0-.3,0-.4,0-.8.2-1.1.7-.3.4.3.9,1,1.3.2.1.4.3.6.4.1,0,.3.1.4.1s.2,0,.3,0c.3-.2.5-.3.7-.6"/>
    <path class="st3" d="M27.5,53.6h.1c.4,0,.9.2,1.5.5.1,0,.2,0,.2,0,0,0,0-.1-.1-.2-.8-.5-1.5-.7-2.2-.7-.2,0-.4,0-.6,0-.2.1-.4.3-.4.5s.1.2.2.2l1.4.4,1,.4h0c.1,0,.2,0,.2,0v-.2c-.4-.2-.8-.4-1.3-.5-.3,0-.3-.2-.3-.2,0,0,0-.1.2-.1"/>
    <path class="st3" d="M28.3,51.7c-.2.2-.4.3-.5.5,0,.2,0,.4,0,.5.2.5,1.2.8,1.7.9h0c.1,0,.2,0,.2-.1h0c-.6-.4-1-.6-1.3-.9-.1-.2-.1-.4,0-.5,0-.1.2-.2.5-.2s.4,0,.6.1h.1c0,0,0-.2,0-.2-.2-.1-.3-.2-.5-.3-.3,0-.5,0-.9.2"/>
    <path class="st3" d="M29.2,52.3h0c-.1,0-.2,0-.2,0,0,0,0,.2,0,.2.4.2.8.4,1.3.6h0c0,0,.1,0,.1-.1,0,0,0-.2-.1-.2-.3-.2-.7-.4-1.2-.6"/>
    <path class="st3" d="M29.4,55.9h0c.2,0,.4,0,.5,0,.6-.2,1.2-.4,1.9-.4.1,0,.2,0,.2-.2,0,0,0-.2-.2-.2,0,0-.2,0-.3,0-.4,0-1,.1-1.8.4h-.1c-.1,0-.2,0-.2,0,0-.1,0-.3.1-.4.5-.5,1.1-.9,1.9-1.2.1,0,.2-.2.2-.2,0,0,0-.2-.2-.2-1,.2-1.8.7-2.5,1.6-.2.3-.2.5-.1.7,0,.2.2.2.5.3"/>
    <path class="st3" d="M30.7,54.4c0,0,0,.2,0,.2,0,0,.2,0,.4,0,.4,0,.8-.1.9-.3h0c0-.1-.1-.2-.4-.2s-.7.1-.8.2"/>
    <path class="st3" d="M28.7,50.4c-.1-.1-.1-.2,0-.3,0-.1.2-.2.3-.2h0,0c-.3-.4-.6-.6-1-.6-.1,0-.1,0-.1,0,0,.7.4,1.3,1.3,1.6h.2,0c0,0-.6-.6-.6-.6h0Z"/>
    <path class="st3" d="M27.6,46.9h0c0,.8.1,1.5.6,1.9.2.2.5.4.7.4,0,0,.1,0,.2,0,0,0,0-.2,0-.4,0-.1-.2-.3-.4-.4,0,0-.1.1-.2.1-.2,0-.4-.3-.4-.7,0-.5-.2-.7-.4-.8"/>
    <path class="st3" d="M29.8,49.5c-.1-.1-.2-.2-.3-.2h0c.2,1.4.6,2.8,1.6,3.6.1,0,.2,0,.3,0,.3,0,.4-.3.4-.4,0-.5,0-.9-.2-1.3,0,0-.1-.1-.2-.1s-.1,0-.1,0v.7c0,0,0,.2,0,.2h-.1s0,0,0,0c0,0-.2,0-.2-.1-.5-.5-.8-1.2-.9-2.1,0,0,0-.2-.2-.4"/>
    <path class="st3" d="M33.2,55.9c.2,0,.3,0,.4,0,.2,0,.3,0,.4-.2.2-.3.2-1,.1-1.5h0c-.1-.3-.2-.4-.3-.4h0s0,0,0,.2v.8c0,.2,0,.3-.2.4,0,0-.2,0-.3-.1-.5-.8-.6-1.8-.6-2.7,0-.3-.2-.5-.3-.5s-.1,0-.1.2c0,1.4.1,2.9,1,3.7h0Z"/>
    <path class="st3" d="M33.3,54.3h0s0-.1,0-.4v-.7c-.1,0-.2-.2-.3-.2s-.1,0-.1.1c0,.5,0,.8.2,1,0,0,.1,0,.1,0"/>
    <path class="st3" d="M30.9,51.3c0,0,.1-.2.1-.2,0-.1,0-.4-.2-.5,0,0-.1,0-.1,0h-.1c0,.3,0,.5.1.7,0,.1.1.2.2.2"/>
    <path class="st3" d="M36.1,27.2h0c0,0-.1,0-.1.1,0,0,0,.1.3.1.4,0,.9,0,1.2.7,0,.2,0,.3,0,.4,0,.1-.1.1-.3.1h0c0,.2.2.2.3.2s.3,0,.4-.2c0-.1.1-.3,0-.5-.4-.9-1-1-1.7-1"/>
    <path class="st3" d="M36.9,28.4c0,0,0,0,0-.1,0-.2,0-.3-.4-.4,0,0,0,0,0,0s0,.1.2.3c0,0,.1.1.2.1"/>
    <path class="st3" d="M37.2,29.5c0,0-.2,0-.2.1s0,.2.1.2c.7,0,.9.4.9,1.3,0,.4-.3.4-.4.4-.1,0-.2,0-.4-.1-.1,0-.2,0-.2,0,0,0,0,0,0,.1,0,.1.5.4.9.4.1,0,.2,0,.3,0,.3-.2.3-.6.2-1.1-.1-.8-.5-1.1-1.3-1.2"/>
    <path class="st3" d="M37.5,30.9s0,0,.1,0c0-.3,0-.4,0-.4s0,0-.3,0c-.1,0-.2.1-.2.1,0,0,0,.1,0,.2.2.2.3.2.4.2"/>
    <path class="st3" d="M37.7,35.1h0c.6-.5,1-1,1.1-1.6,0-.4,0-.6-.2-.8-.2-.2-.5-.3-1-.4h-.1c-.2,0-.3,0-.4.2,0,0,0,.2,0,.2h.6c.2.2.3.3.3.4,0,.2,0,.6-.2.8-.4.5-.7.6-.6.9,0,.2,0,.2.1.2"/>
    <path class="st3" d="M37.4,33.8c0,0,.2,0,.2,0,.2,0,.3,0,.3-.2,0-.3-.2-.3-.3-.3s-.2,0-.3,0c0,0-.2.1-.2.2s0,.2.2.2"/>
    <path class="st3" d="M39.2,26h-.1c.3.3.7.4,1.3.5.2,0,.3,0,.3,0,0,0,0-.1,0-.2-1.4-2.1-3-2.4-4.4-2.4-.2,0-.5,0-.7,0,0,0-.2,0-.2,0,0,.1.3.3.6.3.2,0,.5,0,.7,0,1.2,0,2.1.3,2.7,1.1.1.2.2.3.1.5,0,.1-.2.2-.5.2"/>
    <path class="st3" d="M38.1,25c-.2,0-.3,0-.5,0,0,0,0,0,0,0,0,0,0,.1.2.2.2,0,.4.1.6.1s.2,0,.3,0c0,0,0,0,0,0,0,0,0,0-.2-.1-.1,0-.3,0-.5,0"/>
    <path class="st3" d="M42,25.5c-.1,0-.3,0-.4-.2-.5-.5-1-.9-1.5-1,0,0-.1,0-.2,0h0c.8,1,1.7,1.6,2.8,1.9,0,0,.2,0,.3,0s.2,0,.2,0c0,0,0,0,0-.1,0-.7-.4-1.1-1-1.2,0,.2,0,.4,0,.5,0,0-.1.1-.2.1"/>
    <path class="st3" d="M44,67.7c0,0,.2,0,.2,0h0c-.2-.1-.2-.2-.3-.4,0-.2,0-.5.3-.8,1.6-.8,2-1.6,1.8-2.8,0,0,0-.1,0-.2,0,0-.2-.1-.3-.1s-.4,0-.4.3c-.2.8-.4,1.4-.9,1.7-1.1.7-2.6,1.2-4.4,1.3-.7,0-1.2.3-1.5.9l-.5,1.4c0,.4-.3.6-.6.6h-1.3c-.2-.1-.3-.2-.4-.3,0,0,0-.2,0-.3,0-1.2.2-2.3.5-3.3.1-.3,0-.8-.1-1,0,0-.1-.1-.1-.1s0,0-.2.2c-.5.9-.8,2.4-.8,4.6,0,.4,0,.7.5.8l2.8.2c.4,0,.6-.2.6-.5.2-1.4.6-2.2,1.4-2.2.6-.1,1.4-.2,2.2-.4,0,0,.1,0,.2,0,.3,0,.5,0,.5.2.3.2.5.3.8.3"/>
    <path class="st3" d="M42.4,62.9h-.1c-.4,0-.5.3-.5.5,0,.2.2.3.3.3,0,0,.2,0,.2,0,.3-.4.7-.5.9-.6-.3-.1-.6-.2-.8-.2"/>
    <path class="st3" d="M41.8,65.6c0,0,.1,0,.2,0,.3,0,.6-.2.8-.5-.4,0-.7,0-1.1-.2h0c-.2,0-.3.2-.3.3,0,0,0,.2.1.3,0,0,.2.1.4.1"/>
    <path class="st3" d="M40.7,63.5c.2-.5.5-.7.7-.9h-.2c-.3,0-.6,0-.8.2-.3.2-.4.4-.3.6,0,.2.2.3.4.3.1,0,.2,0,.3-.2"/>
    <path class="st3" d="M37.2,68c.2,0,.2-.1.3-.2,0-.5.2-.8.4-1-.4,0-.7.2-.9.4-.2.3-.2.5-.1.6,0,.2.2.3.4.2"/>
    <path class="st3" d="M49.2,66.9c.5-.3.9-.4,1.3-.4-.4-.3-.8-.6-1.2-.6-1.1,0-.8,1.3,0,1"/>
    <path class="st3" d="M50.8,65.1c0-.5.1-.8.3-1.1-.3,0-.6.2-.8.4-.2.2-.2.4-.1.6,0,.2.2.3.4.3,0,0,.2,0,.3-.2"/>
    <path class="st3" d="M52.8,64.5c0,0-.2,0-.2,0-.3,0-.5,0-.8.2-.3.2-.4.4-.3.6,0,.2.2.3.4.3.1,0,.2,0,.3-.2.2-.5.4-.7.7-.9"/>
    <path class="st3" d="M51.5,66.9c0,0,.2,0,.2,0,.3-.1.6-.3.8-.5-.4,0-.7,0-1.2-.2h-.1c-.2,0-.3.2-.3.3s0,.2.1.3c0,0,.2.1.4.1"/>
    <path class="st3" d="M39.1,65.3c0,.2.2.3.4.3.1,0,.3,0,.5-.3.2-.3.2-.6.2-.9-.3.2-.6.4-.9.6-.2,0-.2.2-.2.4"/>
    <path class="st3" d="M34,62.7c-.4,0-.8.3-1.2.6.4,0,.8,0,1.3.4.8.3.9-1-.2-1"/>
    <path class="st3" d="M31.2,61.8c.1,0,.3-.1.3-.3,0-.2,0-.5-.4-.6-.2,0-.5-.1-.7-.1s-.2,0-.3,0c.3.2.5.5.7.8,0,.1.2.2.3.2"/>
    <path class="st3" d="M29.6,61.7c0-.2-.1-.5-.6-.5-.3,0-.6,0-.9.3.3,0,.6.2,1,.5,0,0,.1,0,.2,0,.2,0,.3-.2.3-.3"/>
    <path class="st3" d="M30,63.1c-.5.3-.9.3-1.2.4.4.3.8.5,1.2.6,1.1,0,.8-1.2,0-1"/>
    <path class="st3" d="M31.5,63.1c.1,0,.2,0,.3,0,.3,0,.4-.2.4-.4s0-.3-.4-.3c-.2,0-.3,0-.4,0-.3,0-.5,0-.6,0,.2.3.4.5.7.7"/>
    <path class="st3" d="M24.2,61.5c.1,0,.3.1.4.1.2,0,.4-.2.4-.4s0-.3-.4-.3c-.4,0-.7,0-1-.2.1.3.4.6.6.8"/>
    <path class="st3" d="M21.5,61.7c.1,0,.2,0,.4,0,.2,0,.4-.2.4-.4,0-.2,0-.3-.3-.3h-.2c-.3,0-.5,0-.8-.1.2.3.4.6.6.7"/>
    <path class="st3" d="M20.4,59.4c0,0-.1,0-.2,0-.2,0-.5,0-.8.2.3.1.5.3.6.4h0c0,0,.2.2.2.2,0,0,.1,0,.2,0,.2,0,.4-.2.4-.3,0-.2-.1-.4-.5-.5"/>
    <path class="st3" d="M15.6,56.3h0c0,.3.2.4.4.4s.2,0,.2-.1c0,0,.1-.2,0-.5-.1-.2-.3-.5-.6-.7,0,.3,0,.5,0,.7,0,.2,0,.2,0,.3"/>
    <path class="st3" d="M14.7,55.4c-.1-.2-.3-.5-.6-.7,0,.3,0,.6,0,.7,0,0,0,.2,0,.3h0c0,.3.2.4.4.4s.2,0,.2-.1c0,0,.1-.2,0-.5"/>
    <path class="st3" d="M14.5,56.7s0,0-.1,0c-.2,0-.5,0-.9-.3,0,.4.3.7.6.9.1,0,.2,0,.3,0,.2,0,.3-.2.4-.3,0,0,0-.3-.2-.4"/>
    <path class="st3" d="M15.9,58.5c.1,0,.2.1.4.1.2,0,.3-.1.4-.3,0-.2,0-.3-.2-.4,0,0,0,0-.1,0-.2,0-.5-.1-.8-.4,0,.4.2.7.5,1"/>
    <path class="st3" d="M35.6,61.4s0-.2,0-.3c0-.3,0-.6,0-.9,0,0,0-.2-.3-.3h-.2c-.7,0-1.2.5-1.3,1-.2.6,0,1.2.5,1.5.1,0,.2,0,.2,0h0s0-.1,0-.3c0-.2,0-.3,0-.5.1-.2.4-.3.9-.3h.1s0,0,0,0Z"/>
    <path class="st3" d="M37.3,65h0c.1,0,.2,0,.2,0h0c-.3-.3-.4-.5-.4-.7s.2-.4.4-.6c.2-.2.2-.3,0-.5-.3-.2-.4-.5-.6-.7,0-.1-.2-.2-.2-.2s-.2,0-.3.2c-.6.4-.6,1.1-.5,1.5.2.5.6,1,1.3,1"/>
    <path class="st3" d="M46.7,64.7h0c.1,0,.3.1.4,0,.5,0,.9-.4,1.1-.9.2-.5,0-1.2-.7-1.7,0,0-.2-.1-.3-.1s-.2,0-.2.1c-.2.3-.4.6-.6.7,0,.1,0,.2,0,.3,0,0,0,.2.2.2.3.2.4.4.5.6,0,.2-.1.5-.4.7"/>
    <path class="st3" d="M44.4,62.9c.2.2.4.2.6.2.1,0,.3,0,.4-.1.8-.3,1.2-.8,1.4-1.3,0-.3,0-.6-.2-.8-.2-.3-.6-.5-.9-.5s-.1,0-.2,0c-.7,0-1.1-.4-1.5-.8-.2-.2-.4-.4-.6-.5,0,0-.2,0-.2,0s0,0,0,0h0c0,.4.3.7.6,1,.3.2.7.5,1.2.7.2.2.4.3.3.5,0,.2-.2.3-.5.5,0,0-.2,0-.2,0-.2,0-.4-.2-.6-.5-.4-.6-.8-1.1-1.3-1.6h-.1s0,0-.2,0c-.2,0-.3.2-.4.4,0,.1-.2.2-.3.2s-.1,0-.3,0c0,0,0,0-.2,0-.6.4-1.3.9-1.9,1.5-.1.1-.2.2-.3.2h-.2c0,0,0,0,0,0h0c0-.2,0-.4.2-.5.7-.5,1.2-.9,1.5-1.4,0,0,0-.1,0-.2,0,0,0-.2-.2-.2-.2,0-.4-.1-.6-.1s-.4,0-.7.1c-.2,0-.4,0-.7,0-.3,0-.7,0-1.1-.2,0,0-.2,0-.3,0-.2,0-.4,0-.5.3,0,.1,0,.3-.1.4,0,.4,0,.7,0,1,0,.1,0,.2.1.3,0,0,.1.1.2.1s.2,0,.4-.1c.3-.2.5-.5.5-1,0-.1.1-.2.3-.3.5-.2.9-.2,1.2-.2s.3,0,.4,0c.2,0,.3,0,.3.2,0,.1,0,.2-.2.3-.4.3-.9.5-1.7.8-.4.2-.5.5-.5,1,0,.3.3.6.8.9.1,0,.3.1.4.1.3,0,.6-.2.8-.6,0-.2.2-.3.5-.5.5-.3.8-.7,1.1-1,0,0,.2,0,.2,0,.2,0,.2.2.3.3v.2c.1.2.3.3.4.3s.3-.1.5-.3c0,0,.2-.1.3-.1h0s0,0,0,0c0,0,0,.2,0,.4,0,.1,0,.2,0,.2,0,0,.1,0,.2,0s.2,0,.4.2l.8.6h0Z"/>
    <path class="st3" d="M37.1,56.6c0,0-.2,0-.2,0,0,0,0,.1,0,.2l1.3,1.8c.2.2.4.3.6.3s.2,0,.3-.1c0-.1.1-.3,0-.5,0-.1,0-.2-.1-.2h0c0,.2-.2.2-.3.3-.1,0-.2,0-.3-.2l-1.1-1.5s-.1,0-.2,0"/>
    <path class="st3" d="M41.2,59.6c0,0,.2,0,.2,0,.1,0,.3,0,.4-.4,0-.5,0-1-.2-1.5l-1-2.3c0-.2-.1-.2-.1-.2,0,0,0,0-.1.2,0,.4,0,.7.3,1.2.2.3.3.6.5.9l.2.4c.1.3.1.6,0,.8,0,.1-.2.2-.3.2s-.3,0-.4-.2l-1-1.5c-.3-.5-.6-.8-.9-.9,0,0-.2,0-.3,0h0s0,0,0,.2c.3.4.5.8.8,1.2h0c.5.9,1,1.7,2,2.2"/>
    <path class="st3" d="M39.7,56.3v.2l.8,1.4h0c0,0,.1,0,.2,0s0-.2,0-.2l-.8-1.2h0s0,0,0,0Z"/>
    <path class="st3" d="M38.6,57.9h0c0,0,.1,0,.2,0s0-.2,0-.2l-.7-1h0s0,0,0,0v.2s.6,1.2.6,1.2h0Z"/>
    <path class="st3" d="M43,58.5c.1,0,.2,0,.3,0s.1,0,.2,0c0,0,0-.1,0-.2-.1-1-.3-1.9-.6-2.7-.1-.3-.2-.5-.2-.8,0,0,0-.2,0-.2h-.1c-.2.4-.2.7,0,1.1l.5,1.4c0,.2,0,.4,0,.5h0c0,0,0,0,0,0h0c0,0-.2,0-.3-.2-.2-.3-.3-.7-.4-1.3-.1-.6-.3-.6-.4-.7h-.2c.3,1.2.7,2.5,1.6,3.1"/>
    <path class="st3" d="M40.8,48.1s-.1,0-.2.2c0,.1-.1.3,0,.4.7,1.5,1,2.8,1,4.3,0,.5-.3.5-.3.5-.2,0-.3,0-.4-.3-.3-.5-.7-1.3-1-2h0c-.2-.6-.5-1.2-.8-1.6,0,0,0,0,0,0,0,0,0,0-.1.2,0,.2,0,.5.2.9.2.5.5,1,.7,1.4h0c.5,1,.9,2,1.3,2.4.1,0,.3.2.4.1.2,0,.3-.1.4-.3.6-1,0-4.6-.9-6.1,0,0,0,0,0,0"/>
    <path class="st3" d="M40.9,52.3c0,0,.1,0,.1-.2,0-1.4-.5-2.4-1.3-3.1,0,0-.1,0-.2,0s0,0-.1,0c0,0,0,.2,0,.3.6,1,1,1.9,1.3,2.9,0,0,0,0,.1,0"/>
    <path class="st3" d="M39,55.6c0,0,.2,0,.3,0s.5,0,.5-.5c0-1.4-.4-3-1.5-4.7,0,0-.2,0-.2,0-.1,0-.2,0-.3.1,0,0,0,.1,0,.2.2.5.4,1,.6,1.5h0c.3.7.5,1.3.7,2,0,.2,0,.4,0,.5,0,0-.1.1-.2.1s-.3,0-.4-.2c-.6-.6-1.1-1.4-1.5-2.2h0c-.3-.6-.5-1-.8-1.3-.1-.1-.2-.2-.3-.2h-.1c0,.2,0,.3,0,.5.8,1.6,1.8,2.9,3.1,4.1"/>
    <path class="st3" d="M36.2,50.2h0s0,.1,0,.1c.8,1,1.5,2,2,3.2h.1c0,0,0,0,0,0,0,0,0-.1,0-.3-.5-1.5-1.2-2.5-2.1-3.1,0,0,0,0,0,0Z"/>
    <path class="st3" d="M36.8,56c.3,0,.5-.3.5-.7,0-1.4-1.2-2.6-2.2-3.7-.1,0-.2,0-.2,0h0c0,0,0,.2,0,.2.8.9,1.4,1.8,2,2.8.1.3.1.5,0,.7,0,.1-.2.2-.3.2-.2,0-.3,0-.4-.2-1.1-1.5-2.2-2.8-3.1-3.7,0,0-.1,0-.2,0h-.1c0,.1,0,.2,0,.3,1.1,1.2,2.2,2.5,3.4,4.1.2.2.5.3.7.3"/>
    <path class="st3" d="M33.5,50.8h0c0,.1,0,.2,0,.4l2.6,3.1h.1c0,0,0,0,0,0,0,0,0,0,0-.2l-2.6-3.3h0s0,0,0,0Z"/>
    <path class="st3" d="M43.9,26.4c.5.4,1.2.8,1.5.8,0,0,.1,0,.2,0,.2-.1.2-.4.2-.5,0-.2-.3-.5-.6-.6h0c0,.2,0,.3-.1.4,0,0-.2.1-.3.1-.2,0-.5-.1-.5-.4,0-.3-.2-.6-.5-.8h0c0,.2.2.3.1.7,0,.1,0,.3,0,.3"/>
    <path class="st3" d="M40.6,28.3c-.1,0-.2,0-.4,0h0s0,0,0,.1c.3.3.7.5,1.1.4.2,0,.4,0,.5-.2.1-.2,0-.6-.3-1.1h0v-.2s0-.2-.5-.6h0c0,0-.2.2-.3.2-.1,0-.2,0-.4,0-.2,0-.3,0-.5,0h0c0,.1,0,.2.3.3,1,0,1.3.3,1.3.6,0,.2-.3.4-.6.4"/>
    <path class="st3" d="M41,29.9c.7.2.9.7.9,1,0,.3-.2.5-.5.5s-.3,0-.5-.2c0,0,0,.2,0,.3.4.6.9.9,1.3.9s.3,0,.4-.2c.1-.2,0-.4,0-.7-.4-.8-.5-1.4-.5-2s0-.2,0-.2c0,0-.2,0-.2.1-.2,0-.3.1-.4.1-.3,0-.5-.1-.8-.2h0c0,0,0,.2,0,.2,0,0,.5.4.5.4Z"/>
    <path class="st3" d="M38.4,41.1c0,0,0,.2,0,.5.4.5.9,1.4,1.3,2.1h0c.3.7.6,1.2.9,1.5,0,.1.2.2.3.2,0,0,.2-.2.2-.4,0-1.4-.8-3-2.2-5.1h0c0,.2,0,.3,0,.4.6.8,1.1,1.8,1.5,2.8,0,.2,0,.3,0,.4h0c0,0,0,0,0,0h0c-.1,0-.2,0-.3-.2-.3-.8-.8-1.5-1.3-2.2h-.1c0,0,0,0,0,0Z"/>
    <path class="st3" d="M37.1,43.8c0,0-.1,0-.1,0,0,.1,0,.3,0,.5.5,1,1.1,2.3,1.8,3.4.2.3.5.5.8.5.3,0,.5-.2.7-.4.3-.5.3-1.3,0-2.1-.4-1-1.2-2.2-2.2-3.7,0,0-.1,0-.2,0s-.1,0-.1,0c0,0,0,.3,0,.4.9,1.3,1.6,2.5,2.1,3.7.2.4.2.8,0,1,0,.2-.3.2-.4.2s-.4-.1-.5-.3c-.8-1.1-1.3-2.3-1.7-3.2,0,0-.1-.1-.2-.1"/>
    <path class="st3" d="M39.1,46.3c0,0,.2,0,.2-.1,0,0,0-.2,0-.3l-1.6-2.8c0,0,0-.1,0-.1,0,0,0,0,0,0,0,.2-.1.5,0,.6l1.5,2.6s0,0,.1,0"/>
    <path class="st3" d="M37.4,50c.4,0,.7-.2.9-.5.2-.4.2-1,0-1.5-.8-1.3-1.2-2.4-1.6-3.3,0-.2-.2-.3-.3-.3s-.2,0-.2.2c0,0,0,.2,0,.2.4,1,.9,2.1,1.7,3.5.2.5.2.7,0,.9,0,.2-.3.3-.5.3s-.5-.1-.6-.3c-.5-.5-.9-1.2-1.3-2v-.2c-.4-.4-.6-.9-.9-1.3,0,0-.2-.1-.2-.1s-.2,0-.3.2c0,0,0,.2,0,.3l2.2,3.5c.3.4.6.6,1,.6"/>
    <path class="st3" d="M35.1,45.2l1.6,3c0,.1.2.2.3.2h0s0-.2,0-.5l-1.8-3.3c0,0,0,0-.1,0h0v.2c0,0,0,.2,0,.2,0,0,0,.2,0,.3"/>
    <path class="st3" d="M35.4,50.8c.2-.2.2-.6,0-1-.4-1.2-1.2-2.5-1.9-3.5l-.2-.2c0-.1-.3-.2-.4-.2s-.2,0-.2,0c0,0,0,0,0,.1.8,1.1,1.5,2.3,2.1,3.4.1.2.1.4,0,.6,0,.2-.2.2-.4.2s-.2,0-.4-.2c-1-1.1-2-2.3-2.9-3.7,0,0-.1,0-.2,0,0,0-.2,0-.2.1s0,.2,0,.3c.8,1.3,1.9,2.6,3.1,3.9.2.2.5.3.9.3s.4,0,.6-.2"/>
    <path class="st3" d="M31.7,45.9c.4,1.1,1.2,2.2,2.3,3.3,0,0,.1,0,.1,0h0s0-.2,0-.3c-.8-1.2-1.6-2.3-2.3-3.3h-.1s0,.1,0,.2"/>
    <path class="st3" d="M32.5,50.8c.1,0,.2,0,.2,0,0,0,0-.1,0-.4-.6-1.1-1.4-2.3-2.7-3.7,0,0-.2-.1-.3-.1h0s0,0,0,.2c.6.8,1.3,1.6,1.8,2.4,0,.1.1.3,0,.4h-.1c0,0,0,0,0,0h0c0,0-.2,0-.3-.1-.9-1.1-1.8-2.2-2.8-3.6,0,0-.1-.1-.2-.1-.1,0-.2,0-.3.2,0,0,0,.2,0,.3l.2.3c1.1,1.7,2.6,3.8,4.4,4.4h.2Z"/>
    <path class="st3" d="M36.3,37.4c0,0-.2.2-.2.3,0,.4,0,.5,0,.5h0s0,0,.2,0c.6-.5.8-1.1.8-1.6l-.2-2.7c0-.2-.1-.3-.2-.3h-.1c0,.2,0,.3,0,.4v.6c0,.3,0,.6,0,.9,0,.3,0,.6,0,.9,0,.5,0,.8-.2,1h0s0,0,0,0Z"/>
    <path class="st3" d="M34.2,34.9c0,0-.1,0-.2.2-.4,1-.5,2.2-.4,3.4.1.4.4.7.8.7s1.1-.4,1.4-1.2c.3-1.4.3-2.6.2-3.6,0-.2,0-.3-.2-.3h-.1c0,.1,0,.2,0,.3,0,1.2,0,2.5-.2,3.3-.3.5-.6.7-.8.7s-.3,0-.4-.5c0-1.1.1-2.1.3-2.8,0,0,0-.1-.1-.2"/>
    <path class="st3" d="M34.9,37.4c.2-.8.3-1.7.1-2.9,0-.1,0-.2,0-.2,0,0-.1,0-.1.2v2.9c-.1,0,0,.1,0,.1,0,0,.1,0,.1-.1"/>
    <path class="st3" d="M31.2,39.1c-.2,0-.3,0-.4-.2-.1-.2,0-.4,0-.7l.6-2.2c0,0,0-.1,0-.2h-.1c0,0-.2,0-.2.2-.1.5-.3,1-.5,1.5-.1.4-.3.7-.4,1.2,0,.2-.1.3,0,.6.2.3.6.4,1.1.4h0c1.1-.1,1.6-.5,1.7-1.2l.4-2.8c0-.1,0-.2,0-.3h-.1c0,0-.2,0-.3.3l-.4,2.2c-.2.9-.6,1.3-1.3,1.3"/>
    <path class="st3" d="M32.2,35.4c0,0-.2,0-.2.2,0,.7-.2,1.6-.4,2.3,0,0,0,.1,0,.2h0c.1,0,.2,0,.3-.2.2-.8.3-1.6.3-2.3,0-.2,0-.2,0-.2"/>
    <path class="st3" d="M28.1,39.2c.2,0,.5.2.6.2.4,0,.7-.2.9-.6l.8-2.3c0-.2,0-.3,0-.3,0,0,0,0,0,.1-.3.9-.7,1.7-1,2.3-.1.2-.3.3-.5.3-.2,0-.3,0-.4-.2,0-.2,0-.4,0-.6.4-.7.6-1.3.9-2,0,0,0-.2,0-.2,0,0-.1,0-.1.2-.3.7-.7,1.5-1.1,2.2-.2.3-.2.5-.2.7,0,.1.2.3.4.4"/>
    <path class="st3" d="M29.5,36.1c-.1.6-.4,1.2-.8,1.8,0,0,0,.2,0,.2h0c0,0,.1,0,.2,0,.4-.7.7-1.3.8-1.9,0-.1,0-.2-.1-.3,0,0-.1,0-.1.1"/>
    <path class="st3" d="M28.2,36s0,0,0,0c-.2.5-.5,1-.9,1.5,0,0,0,.1,0,.2h0s.1,0,.1,0c.4-.5.7-1,.9-1.6,0,0,0-.1,0-.2"/>
    <path class="st3" d="M26.2,38.2c.2.3.4.4.7.5.1,0,.2,0,.3-.2h0c0-.1-.4-.4-.4-.4,0,0-.1-.1-.1-.2,0-.1,0-.3.1-.4.4-.4.6-.8.8-1.1,0-.1.1-.3,0-.3h0s-.1,0-.1.1c-.4.5-.8,1-1.1,1.5-.2.2-.2.4-.1.6"/>
    <path class="st3" d="M26,39.1c-.8,1.1-.9,1.9-.7,2.8.1.5.3.9.5,1.3.1.2.2.5.4.8.1.3.2.7.2,1.2,0,0,0,.2.3.2s.3,0,.5,0c.4-.1.6-.3.7-.5,0-.2,0-.4,0-.7-.9-2.1-1-3.4-.2-4.5,0-.1,0-.2,0-.3,0,0-.1-.1-.2-.1s-.2,0-.2.1c-.5.5-.6.9-.7,1.8,0,.5.1.9.3,1.4.1.3.2.7.3,1.1,0,.1,0,.3,0,.4,0,0-.1.1-.2.1s-.2,0-.4-.3c-.1-.4-.2-.7-.3-1h0c-.2-.6-.4-1-.4-1.5,0-.9.1-1.2.7-2.2h0c0-.1.1-.2,0-.3s-.1-.1-.2-.1-.2,0-.3.2"/>
    <path class="st3" d="M27.9,43.1c.2.9.6,1.8,1.2,2.6.2.2.6.3.9.3.6,0,1-.4,1.1-.8,0-.3,0-.5-.1-.8,0,0,0-.2,0-.3-.4-1.2-.4-2.3,0-3.6,0,0,0-.1,0-.2,0,0-.1,0-.2,0s-.3,0-.3.2c-.4,1.2-.4,2.4,0,3.9,0,.2,0,.5-.1.7-.1.1-.2.2-.4.2s-.4,0-.5-.3c-1.1-1.8-1.3-3.4-.6-4.8,0-.1,0-.3,0-.4,0,0-.1-.1-.2-.1s-.2,0-.3.2c-.7,1.1-.5,2.1-.3,3.2"/>
    <path class="st3" d="M29.8,39.9s-.1,0-.2,0-.2,0-.3.2c-.6,1.4-.5,2.7.2,4.1,0,0,.1,0,.1,0h0s0-.1,0-.3c-.4-1.8-.4-3,0-3.7,0,0,0-.2,0-.2"/>
    <path class="st3" d="M31.9,40.2s0,0-.1,0c-.1,0-.2,0-.3.2-.3,1-.3,2.3,0,3.8.2.8.9,1.2,1.5,1.1.5,0,1.2-.3,1.3-1.2-.3-1.5-.3-2.9-.2-4.1,0,0,0-.2,0-.2,0,0-.2-.1-.2-.1s-.2,0-.2.2c-.2.9-.3,2-.2,3.3,0,0,0,.2,0,.3,0,.3.1.6,0,.9-.1.1-.3.2-.4.2-.2,0-.5-.2-.7-.4-.4-1-.5-2.2-.2-3.5,0,0,0-.2,0-.2"/>
    <path class="st3" d="M32.9,39.9h0c0,0-.2,0-.2.2-.2,1.1-.3,2.2-.1,3.3,0,.2.2.2.2.2s.2,0,.2-.3c-.1-1-.2-2.1,0-3.2h0c0-.1,0-.1,0-.1Z"/>
    <path class="st3" d="M36,38.9c0,.1,0,.4,0,.6.4,1.1.5,2,.4,2.9,0,.3-.3.5-.6.5s-.4-.1-.5-.4c-.3-1-.3-1.9-.3-2.7,0-.2-.2-.2-.3-.2s-.1,0-.2,0c0,0,0,.1,0,.2,0,1.2,0,2.6.6,3.7.2.2.4.3.6.3.5,0,.9-.4,1.3-1.2.3-1,0-2.2-.8-3.8h-.1c0,0,0,0,0,0h0Z"/>
    <path class="st3" d="M35.8,42s0-.1,0-.2c-.2-.8-.2-1.5-.3-2.2,0-.2-.1-.2-.2-.2s0,0,0,.2c0,1,.1,1.7.3,2.5h.1c0,0,0,0,0,0Z"/>
    <path class="st3" d="M37.6,37.6s0,0,0,.2c0,.3,0,.6.2.8h0c.1.3.2.6.2,1,0,.2-.2.3-.3.3s-.1,0-.2,0c-.3,0-.4-.5-.5-.8,0,0,.1-.2.2-.2,0,0,.1.2.2.2.2,0-.1-.7-.1-.7,0,0-.2,0-.2,0s-.2,0-.3.1c-.1,0-.2.2-.1.4.1.7.4,1.4.9,2,0,0,.1,0,.2,0,.1,0,.2,0,.3-.2.5-1,.4-2-.3-2.9,0,0-.1,0-.1,0"/>
    <path class="st3" d="M38.8,37.2h-.1c0,0-.1,0-.1,0,0,0,0,0,0,.1,0,.1.2.2.3.4.3.3.6.7.2,1-.1,0-.1,0,0,.2,0,.1.2.2.3.2s.2,0,.3,0l.5-.6v-.2s0,0,0,0c-.3,0-.5-.3-.7-.6-.2-.2-.3-.5-.6-.5"/>
    <path class="st3" d="M40.3,37.1c0,0-.2,0-.2,0l-.6-.5h-.1c0,0-.1,0-.2,0,0,0,0,.1,0,.2.3.4.6.7.9.9.1,0,.2.1.3.1s.2,0,.3-.1c.2-.2.3-.4.5-.5.3-.2.5-.5.7-.9,0-.2,0-.2,0-.2,0,0,0,0-.2,0-.5,0-.9-.3-1.3-.7h-.1c0,0-.2,0-.2,0,0,0,0,.1,0,.2l.6.7c0,.2,0,.3,0,.5s-.2.2-.4.2"/>
    <path class="st3" d="M41.6,34.7c-.1,0-.3,0-.4-.2,0,0,0,0-.1,0,0,0,0,0-.1,0-.3.3-.2.5-.2.6.4.4.7.6,1,.6s.4-.1.6-.4c.2-.4.3-.9.4-1.5,0-.1,0-.2,0-.2,0,0-.2,0-.2,0h-.2c-.4-.2-.8-.5-1.2-.8h0c0,.3,0,.5,0,.6l.6.5c.2.3.2.6.2.8,0,.2-.2.3-.4.3"/>
    <path class="st3" d="M53.2,63.1c0-.1,0-.3,0-.6,0-.1,0-.2-.4-.2-.3,0-.8,0-.8-.8v-.2h0s-.1,0-.1,0c-.5.2-.6.4-.7.7,0,0-.1.2-.2.4-.2.2-.4.3-.6.3s-.5-.2-.6-.5c0,0,0-.2,0-.2,0,0,0,0-.2.2-.2.2-.2.4-.1.7,0,.3,0,.7-.3,1.2-.5.9-1.1,1.4-1.8,1.4-.2,0-.3,0-.5,0h0c-.2,0-.2.1-.2.2,0,.1,0,.2,0,.2.3.1.7.2.9.2.7,0,1.2-.3,1.8-1,.8-1.1,1.7-2.4,2.8-2.4.2,0,.5,0,.7.2h0c.1.2.3.3.4.3s.2,0,.2-.1"/>
    <path class="st3" d="M55.8,66.4c-.3,0-.5,0-.6-.2-.1-.2,0-.4,0-.7h0c0,0-.2,0-.2,0-.6,0-.7.3-.7.6,0,.3,0,.5-.3.6-1.4.7-2.7,1-3.9,1-1.1,0-2-.2-3-.5-.6-.2-1-.3-1.6-.4-.3,0-.6.1-.6.3,0,0,0,.2,0,.2l1.2.4c.2,0,.6.1.7.6.2.5.4.8.7.8h.1s0,0,0,0h0s0,0,0,0h0c0-.2-.1-.4,0-.6,0-.1.1-.2.2-.2,0,0,.1,0,.2,0,.7.1,1.4.2,2.1.2.5,0,.9,0,1.3-.1,0,0,.1,0,.2,0,.1,0,.2,0,.3.1.4.3.8.4,1.1.4s.3,0,.5-.2h0c-.2,0-.4-.2-.5-.5,0-.3,0-.3.3-.4.3,0,.8-.2,1.2-.6,0-.1.2-.2.5-.2h0c.8,0,.9-.2,1-.4h0c0,0,0-.2,0-.2h0c0,0-.2,0-.2,0"/>
    <path class="st3" d="M56,63.6c-.3.4-.8.7-1.3.7-.2,0-.4,0-.6-.1-.1-.1-.2-.3-.2-.4,0-.3.2-.6.7-1,.2-.2.5-.3.8-.3s.5.1.7.3c.2.2.2.5,0,.8M55.2,62c-.3,0-.6,0-.8.3-1.1.9-1.4,1.7-.8,2.4.4.2.7.3,1,.3.6,0,1.2-.3,1.8-.9.3-.4.3-.9,0-1.3-.3-.5-.8-.8-1.3-.8"/>
    <path class="st3" d="M58.5,63.2c0-.2-.1-.2-.2-.2h-.1c-.2,0-.5.1-.7.2-.2,0-.2.2-.2.2,0,.1,0,.2.1.3.4.1.7.2.9.2h0c0,0,0,0,.1,0,0,0,0,0,0-.2,0-.2,0-.3,0-.5"/>
    <path class="st3" d="M58.1,62c-.2-.3-.4-.4-.4-.5,0,0-.1-.1-.2-.1s0,0-.2.1c-.3.2-.5.4-.5.6,0,.2,0,.3,0,.4,0,0,.2.1.3.2.3,0,.6-.2.9-.4,0,0,0-.1,0-.2"/>
    <path class="st3" d="M56.6,60.6c-.1,0-.2-.1-.2-.1s0,0-.2.2c0,.1-.2.3-.2.5,0,.2,0,.3,0,.4,0,0,.1,0,.3,0,0,0,.1,0,.2,0,.2,0,.4-.2.6-.4h0c0,0,0-.2-.1-.3-.2-.1-.3-.2-.4-.3"/>
    <path class="st3" d="M59.2,60.1c-.2,0-.4.1-.4.3,0,.3-.2.6-.5.7-.1,0,0,.3,0,.3,0,.2.2.3.3.3h.1c.2-.3.4-.4.7-.4s.2,0,.3,0c.2,0,.3,0,.3-.2,0-.2,0-.5-.2-.7-.2-.2-.3-.3-.5-.3"/>
    <path class="st3" d="M30,65.8c0,.2-.1.3-.5.5h0c.1,0,.2,0,.3,0,.3,0,.5-.2.8-.3.2-.2.5-.3.9-.3.2,0,.5,0,.7.2.3.1.4.2.5.4,0,.1,0,.2-.1.3h0,0c0,0,.1,0,.2,0,.4,0,.8-.2,1-.8.2-.3.4-.4.9-.6.2-.2.3-.4.3-.7,0-.1,0-.2,0-.2,0,0,0,0-.1,0-.8.4-1.7.7-2.6.7-1.6,0-3.2-.5-5.2-1.3-.6-.2-.6-.8-.6-1.2l.7-2.1c.3-.6.8-1,1.5-1,1.1,0,2.6.7,4.7,2h0c0,0,0,0,0,0,0-.1,0-.4,0-.5l-.8-.6c-.2-.2-.3-.5-.3-.7,0-.7-.3-.9-.6-1h0s0,0,0,0v.5c-.1.2-.3.2-.4.2h-.2c-1.1-.1-1.5-.7-1.9-1.1-.3-.3-.4-.6-.9-.6s-.1,0-.2,0h0l.2.2c.1.1.2.3.1.4,0,.2-.2.3-.4.3-.2,0-.3,0-.4,0-.1,0-.2,0-.3,0-.2,0-.3,0-.5-.2h0c-.2-.1-.4-.2-.6-.2s-.2,0-.3,0h0,0c.5.3.6.7.4,1.3l-.8,2.5c0,.5-.1,1.1.5,1.7.6.2.9.4.9.7,0,.2-.1.3-.4.5h0c.2,0,.3.1.5.1.2,0,.5,0,.7-.3.2-.2.4-.2.6-.2s.3,0,.4,0c.9.2,1.4.5,1.4.8"/>
    <path class="st3" d="M25.5,60.6c0,0,.1,0,.1,0,0,0,0-.2,0-.2-.3-.5-.7-.9-1.2-1.2h-.1c0,0-.1,0-.1,0s0,.2,0,.2c.4.3.8.7,1.2,1.2h.1Z"/>
    <path class="st3" d="M17.4,60.6c0,.6,0,1.1-.5,1.2h0c.2.2.5.2.7.2.2,0,.3,0,.5-.1,0,0,.2-.1.3-.1s.1,0,.2,0l1.6.8c.2,0,.3.2.3.3,0,.1,0,.2-.3.4.2,0,.3,0,.5,0,.2,0,.5,0,.7-.3,0,0,.2-.1.3-.1,0,0,.1,0,.2,0,.3,0,.6,0,.8,0,.8,0,1.4,0,2-.2.2-.2.3-.4.2-.6,0,0-.1-.1-.2-.1h-.1c-.6.2-1.2.3-1.8.3-1.4,0-2.7-.4-4.2-1.4-.3-.1-.4-.5-.3-1,.3-.9.6-1.5,1-2,0-.2.2-.2.4-.2h0c.2,0,.3,0,.5,0,.5,0,.6-.2.6-.4s0,0,0,0h-.2c-.4,0-.7-.2-1-.4-.2-.2-.4-.3-.6-.3h0c.1.2.2.3.2.4s0,.3-.2.5c-.8.8-1.3,1.8-1.4,3.1"/>
    <path class="st3" d="M21.7,59.2h0c-.2-.7-.2-1.2,0-1.7.1-.2.3-.3.5-.3.2,0,.4,0,.6.3.2.2.2.6.1,1-.2.6-.4.9-.7.9-.2,0-.3,0-.5-.2M23.7,58.7c.1-.6,0-1.1-.2-1.4-.2-.3-.7-.5-1.1-.5-.3,0-.6.1-.8.3-.3.3-.4.8-.4,1.3,0,.6.3,1.2.7,1.5.2,0,.4,0,.5,0,.6,0,1-.5,1.3-1.4"/>
    <path class="st3" d="M24.2,56.9c.2,0,.5-.2.7-.3,0-.2,0-.3-.1-.4l-.4-.3h-.1c0,0-.2,0-.2.2-.1.2-.2.4-.2.6,0,.2.1.3.3.3h0,0Z"/>
    <path class="st3" d="M23.5,55.4l-.5-.2h-.2s0,0,0,.2v.7c.1.1.2.2.3.2s.2,0,.3-.1c.1-.1.2-.2.3-.4,0-.1,0-.2,0-.3,0,0-.1,0-.2-.1"/>
    <path class="st3" d="M22.1,55.3c-.2,0-.4,0-.5,0,0,0-.1,0-.2,0,0,0,0,.1,0,.4,0,.3.3.6.6.6s.2,0,.3-.2c0,0,0-.2,0-.3v-.3c0-.2,0-.2-.1-.3h-.1s0,0,0,0Z"/>
    <path class="st3" d="M15.2,59.6c0,0,.1,0,.2,0,.5.1.8.2,1.1.2s.3,0,.4,0c.1,0,.2-.2.2-.2,0-.1-.1-.1-.2-.2-2.1-.3-3.6-1.3-4.6-3-.2-.4-.2-.8,0-1.3.4-.6.9-1,1.6-1.3.2-.1.4-.2.6-.2s.5,0,.7.3c1.3,1.2,1.9,2.5,2.3,3.6,0,.2.1.4.2.4s.2,0,.2-.3v-.7c-.2-.3-.2-.5-.1-.6.5-.6.5-1.1,0-1.5h0c-.2.4-.3.6-.5.6-.2,0-.3-.1-.5-.4-.5-.8-1-1.2-1.6-1.6-.2-.2-.4-.3-.3-.5-.1-.7-.4-.8-.7-.8h0,0c.2.6,0,1-.7,1.2-1.1.4-1.8,1.1-2.3,2.1-.1.3-.3.4-.4.4-.1,0-.3,0-.5-.2h0c0,.6.2.9.6,1,.2,0,.4.1.5.3.1.3.3.6.6.8.2.1.2.3.2.4,0,.1-.2.2-.6.3h0c.2.3.5.4.9.4h.2c.1,0,.3,0,.4.1l.7.4c.2,0,.3.2.3.3s-.1.3-.4.4h0,0c.2.1.4.2.6.2s.4-.1.6-.3c0-.1.2-.2.3-.2"/>
    <path class="st3" d="M11.4,50.8c.2,0,.6,0,.8.7.2.6.3,1,.1,1.2,0,.1-.2.2-.4.2h-.1c-.5-.2-.9-.7-1-1.4,0-.4.3-.7.6-.7M10.4,51c-.1.3-.1.8.1,1.2.3.6.8,1,1.5,1.2h.2c.3,0,.6-.2.8-.5.2-.5.2-1.3-.2-1.9-.4-.5-.8-.8-1.2-.8s-.8.3-1,.7"/>
    <path class="st3" d="M11.6,49.9c.1,0,.2,0,.3-.2,0-.2.1-.4.2-.6,0-.2,0-.2-.2-.3-.1,0-.2,0-.4,0s-.2,0-.3,0c-.1,0-.1.2-.1.4,0,.5.2.8.5.8"/>
    <path class="st3" d="M10.8,50c.1-.2.1-.5,0-.9,0,0,0-.1,0-.2,0,0-.1,0-.2,0-.3,0-.6.2-.6.3,0,0,0,.2,0,.3.2.4.5.6.7.6,0,0,.1,0,.1,0"/>
    <path class="st3" d="M9.5,49.6c-.2,0-.5.3-.5.5,0,0,0,.1,0,.2.2.2.5.3.7.3s.2,0,.3-.2c0-.2,0-.5-.4-.8,0,0-.1,0-.1,0Z"/>
    <path class="st3" d="M9.4,48c.3,0,.4.3.4.4,0,.2.1.2.3.2s.2,0,.2-.2c0-.1,0-.3,0-.4,0-.1,0-.3,0-.5,0-.2,0-.4-.1-.5-.1-.1-.3-.2-.4-.2-.3,0-.7.2-.7.5,0,.3.2.5.4.6"/>
    <path class="st3" d="M24.3,65.4c-.1,0-.2.1-.4.1-.2,0-.4-.1-.5-.3-.1-.2,0-.5.1-.7.1,0,.2-.1.4-.1.2,0,.5.1.6.4.1.2,0,.5-.1.7M25,65.4c.2-.4,0-.8-.2-1.2-.2-.2-.5-.4-.8-.4-.4,0-.8.2-1,.5-.2.4-.1.8.2,1.3.2.3.5.4.9.4s.8-.3,1-.7"/>
    <path class="st3" d="M19,69.4c-.1,0-.2.1-.4.1-.2,0-.4-.1-.5-.3-.1-.2,0-.5.1-.7.1,0,.2-.1.4-.2.2,0,.4.2.5.4.1.2,0,.5-.1.7M18.6,67.8c-.4,0-.8.2-.9.5-.2.4-.1.8.2,1.3.2.3.5.4.8.4h0c.4,0,.8-.3,1-.7.2-.4,0-.8-.2-1.2-.2-.2-.5-.4-.8-.4"/>
    <path class="st3" d="M47.8,73.9c-.1,0-.2.1-.4.1-.2,0-.5-.1-.6-.4,0-.2-.1-.4.1-.8,0,0,.2-.1.4-.1.3,0,.5.2.6.4,0,.2,0,.5-.1.7M47.3,72.2c-.4,0-.8.2-1,.6-.2.4-.1.9.2,1.4.3.3.6.5,1,.5s.9-.3,1.1-.7c.2-.4,0-.9-.3-1.2-.2-.3-.6-.4-.9-.4"/>
    <path class="st3" d="M27.4,68.6c-1-.6-1.9-1.4-2.3-2.1,0-.1-.2-.2-.2-.2s-.1,0-.1,0c0,0,0,.2,0,.3.5.9,1.5,1.9,2.7,2.2.1,0,.2,0,.2,0s0-.2-.2-.2"/>
    <path class="st3" d="M27.3,72.9c-.6-.2-1.6-.4-2.2-.4-.1,0-.2,0-.2.2,0,0,0,.2.2.2.7.2,1.7.5,2.2.8h.1s0,0,0-.1v-.5c0-.2,0-.2-.2-.2"/>
    <path class="st3" d="M23.3,71.8c-.5,0-1,.3-1.5.7,0,0,0,.2,0,.2,0,0,.1,0,.2,0s.3,0,.4-.1c.4-.3.7-.5,1.1-.5h.1c.3,0,.4.2.4.4,0,.2-.1.3-.3.3s-.1,0-.2,0c0,0-.1,0-.2,0s-.1,0-.2,0c-.4.1-.5.2-.7.3h0c0,0-.1,0-.2.1,0,0,0,0,0,0,0,0,0,0,0,0,.4.1.8.2,1.1.2.5,0,.8-.2,1-.5.1-.2.1-.6,0-.8-.2-.3-.5-.5-1-.5"/>
    <path class="st3" d="M14.9,63.1c0,0-.2,0-.2.2s.2.3.7.4c.6,0,1.1.2,1.4.5.3.2.2.4.2.5,0,.1-.2.2-.3.2s-.3,0-.3-.2c0-.1,0-.2-.3-.3-.4-.2-.7-.2-.9-.2-.1,0-.2,0-.3,0h-.1s0,0,0,.1c.9,1.2,1.6,1.3,1.9,1.3s.6-.2.7-.4c.2-.3.1-.7,0-1-.4-.6-1.2-.9-2.4-.9"/>
    <path class="st3" d="M51.5,69.6c-.6-.3-1.2-.4-1.7-.4-.5,0-.9.1-1.1.4-.2.2-.3.5-.3.8,0,.5.4,1,1.2,1,.5,0,1.1-.2,1.8-.6,0,0,0-.1,0-.1,0,0,0,0-.2,0-.1,0-.2,0-.4,0-.2,0-.5-.1-1-.1s-.4,0-.5.2c0,0-.2.1-.2.1-.2,0-.4-.1-.4-.3,0,0,0-.3.4-.5.2,0,.4,0,.6,0,.3,0,.7,0,1.1.2.1,0,.3,0,.4,0,.3,0,.5-.1.5-.2,0,0,0-.2-.2-.2"/>
    <path class="st3" d="M45.4,70.7c.9,0,1.6-.2,2.1-.5,0,0,.2-.1.2-.2s-.2-.2-.3-.2-.1,0-.2,0c-.8.2-1.5.3-2.2.3-.4,0-.9,0-1.4,0-.2,0-.3.1-.3.2,0,.1.1.3.5.3.7,0,1.3,0,1.8,0"/>
    <path class="st3" d="M45.5,72.3c-.1-.1-.1-.2,0-.3,0-.1.2-.2.4-.3l2-.6c.1,0,.1-.2.1-.2,0,0,0-.2-.4-.2h0c-1.8.3-2.8.7-2.9,1.2,0,.3.2.6.8,1,0,0,.2,0,.2,0,.1,0,.3,0,.3-.1,0,0,0-.2,0-.2l-.2-.3h0Z"/>
    <path class="st3" d="M45.3,73.5l-1.8.4c-.1,0-.1.2,0,.3,0,.1.1.3.3.3h0l1.7-.4c.1,0,.1-.2.1-.3,0-.1-.2-.3-.3-.3"/>
    <path class="st3" d="M25.5,70.9c-.3-.9-2.2-1.8-4.9-2.1-.2,0-.3,0-.3.2,0,0,0,.2.2.3,2.1.5,3.4.9,4.1,1.4.2.2.3.3.3.4s0,.2-.2.3-.2.2-.2.3c0,.3.1.3.3.3,0,0,.1,0,.2,0,.4-.4.5-.8.4-1.1"/>
    <path class="st3" d="M20.8,67.9c0-.4-.4-1.3-2.7-2.4h-.1s-.1,0-.1,0c0,0,0,.2.1.2.1,0,.3.2.4.3,0,0,.1,0,.2.2.5.3,1,.7,1.3,1,.1,0,.2.2.1.3,0,0,0,.2-.1.2,0,.1,0,.2,0,.2.2.1.4.2.5.2s.3,0,.3-.2"/>
    <path class="st3" d="M21.1,66.6c.4.2.7.3,1,.4.5.2.9.4,1.2.5h.1c.4,0,.6-.1.6-.3,0-.2,0-.4-.3-.5-.1,0-.2,0-.2,0h0c0,.2-.1.3-.4.3,0,0-.2,0-.3,0-1.3-.5-2.7-1.2-4.4-2.2,0,0-.2,0-.2,0s-.1,0-.2,0v.2c1.2.8,2.2,1.3,3,1.8"/>
    <path class="st3" d="M4.7,43.6h0c.4.2.6.4.7.6,0,.2,0,.5,0,.9,0,.5,0,.6-.1.7,0,0,0,0-.2,0l-1.8-.2v-.6c0-.3.2-.4.2-.4,0,0,.2,0,.6,0h0v-.3s-1.8-.2-1.8-.2v.3s0,0,0,0c.3.1.5.2.5.2,0,0,0,.2,0,.5v.6c0,0-1.7-.2-1.7-.2-.1,0-.1,0-.2,0,0,0,0,0,0-.1v-.8c.1-.4.2-.6.3-.6,0,0,.2-.1.6-.1h0v-.3s-1.2-.1-1.2-.1l-.4,3.3h.3s0,0,0,0c0-.2.1-.3.2-.4,0,0,0,0,.2,0s.2,0,.3,0l3.3.4c.3,0,.4.1.5.1,0,0,0,.2,0,.4h0s.3,0,.3,0l.4-3.4-1.4-.5v.3s0,0,0,0Z"/>
    <path class="st3" d="M5.6,40c-.3,0-.6,0-.8,0-.2,0-.6.3-.9.5l-.5.4c-.2.2-.4.3-.5.3-.1,0-.3,0-.5,0-.2,0-.3-.1-.4-.3,0-.1-.1-.3,0-.4,0-.2.2-.4.4-.5.2-.2.6-.2,1.1-.2h0v-.3c0,0-1.7-.3-1.7-.3v.2c0,0,0,0,0,0,0,0,.1,0,.1,0,0,0,0,0,0,0,0,0,0,0-.2.3-.1.2-.2.3-.3.5,0,.3,0,.7.2.9.2.3.5.5.9.6.3,0,.6,0,.9,0,.2,0,.3-.2.5-.3l.5-.4c.3-.2.5-.4.6-.4.2,0,.4,0,.6,0,.2,0,.4.2.5.3.1.2.1.3,0,.5,0,.3-.3.5-.7.7-.2,0-.5.1-.9.2h0v.3c0,0,1.7.2,1.7.2v-.2c0,0,0,0,0,0h-.1c0,0,0-.2,0-.2,0,0,0,0,.2-.3.1-.2.2-.4.3-.6,0-.4,0-.7-.2-1-.2-.3-.5-.5-.9-.6"/>
    <path class="st3" d="M7.7,37.4c-.1.3-.2.3-.3.4,0,0-.2,0-.5,0l-3.6-1.4v-.2c.2-.3.3-.5.5-.5.1,0,.4,0,.8,0h0v-.2c0,0-1.2-.5-1.2-.5l-1.3,3.3,1.3.5v-.3c0,0,0,0,0,0-.3-.2-.5-.4-.6-.5,0-.1,0-.4,0-.7v-.3c0,0,3.6,1.3,3.6,1.3.4.2.5.2.5.3,0,0,0,.2,0,.5h0c0,0,.2.2.2.2l.7-1.8h-.2c0,0,0,0,0,0h0Z"/>
    <path class="st3" d="M7.5,33.7l-.6,1.1-1.3-1.4,1.9.3h0ZM9.9,33.1c0,0-.2.2-.2.2,0,0-.2,0-.6,0l-4.6-.7v.2c0,0,2.6,2.9,2.6,2.9.4.4.6.7.7.8,0,.1,0,.2,0,.4h0c0,0,.2.2.2.2l.6-1.2h-.2c0-.1,0,0,0,0-.1.1-.1.2-.2.2,0,0-.1,0-.2,0,0,0-.1,0-.2-.2,0,0-.3-.3-.6-.6l.7-1.3h.7c.1.1.2.2.3.2.1,0,.1,0,.2,0,0,0,.1,0,.1.1s0,0,0,.3h0c0,0,.2.2.2.2l.8-1.5h-.2c0-.1,0,0,0,0h0Z"/>
    <path class="st3" d="M11.2,30.5c0,.4-.1.8-.4,1.1-.1.1-.2.2-.2.2,0,0,0,0-.2,0l-3.1-2.3c-.1,0-.1-.1-.1-.1s0,0,0-.2c.3-.4.7-.7,1.2-.7,0,0,.1,0,.2,0,.4,0,.9.2,1.5.6.7.5,1,1,1.1,1.6M11.4,29c-.2-.3-.5-.6-.8-.8-.9-.6-1.7-.8-2.4-.5-.4.2-.8.5-1.1,1l-1,1.4.2.2h0c.2-.2.3-.3.3-.3s.2,0,.4.2l2.7,2c.3.2.3.3.3.4s0,.2-.1.4h0s.2.2.2.2l1-1.4c.3-.4.4-.7.5-1.1,0-.2,0-.4,0-.6,0-.4-.2-.7-.4-1"/>
    <path class="st3" d="M14.1,27.8c-.2.2-.6.3-1,.2-.4,0-.9-.4-1.5-1-.6-.5-.9-1-1-1.5,0-.4,0-.8.2-1,.2-.2.4-.3.7-.3s.2,0,.3,0c.4,0,.9.4,1.5,1,.6.6.9,1.1,1,1.5,0,.4,0,.8-.2,1M13.9,24.8c-.6-.6-1.2-.9-1.9-1-.6,0-1.1.1-1.5.5-.4.4-.6.9-.5,1.5,0,.6.4,1.3,1,1.9.6.5,1.2.9,1.8.9,0,0,.2,0,.3,0,.5,0,.9-.2,1.3-.5.4-.4.6-.9.5-1.5,0-.6-.4-1.3-1-1.9"/>
    <path class="st3" d="M16.8,23c-.2,0-.5-.1-1-.1h-.8c-.2,0-.4,0-.6,0-.1,0-.3-.1-.4-.3-.1-.2-.2-.3-.1-.5,0-.1,0-.3.2-.4.2-.1.4-.2.6-.2.3,0,.6.2,1,.5h0s.2-.1.2-.1l-1.2-1.3h-.2c0,.1,0,.2,0,.2,0,0,0,.1,0,.2h0c0,0,0,.1-.3.2-.2,0-.4.1-.5.2-.3.2-.4.5-.4.9s.1.7.4,1c.2.2.4.4.7.5.2,0,.3,0,.6,0h.7c.3,0,.6,0,.7,0,.2,0,.4.2.5.4.1.2.2.4.2.6,0,.2,0,.3-.2.5-.3.2-.6.2-1,.1-.2,0-.5-.2-.8-.4h0s-.2.1-.2.1l1.2,1.3h.2c0-.1,0-.2,0-.2h0c0-.1,0-.2,0-.2,0,0,0,0,.3-.1.2,0,.4-.1.6-.3.3-.2.5-.6.5-.9s-.1-.7-.4-1c-.2-.2-.4-.4-.7-.5"/>
    <path class="st3" d="M22.4,17.7c-.2-.4-.2-.6-.2-.7,0-.1.1-.2.3-.4h0s-.1-.3-.1-.3l-1.4.7v.2c.1,0,.2,0,.2,0,.2,0,.4,0,.4,0,0,0,.2.2.4.6l.9,1.8c.2.4.3.8.3,1,0,.4-.2.7-.6.9-.4.2-.7.1-1-.1-.2-.2-.3-.4-.5-.8l-1.1-2.2c-.1-.3-.1-.4-.1-.5,0,0,0-.1.3-.3h0s-.1-.3-.1-.3l-1.7.8v.2c.1,0,.2,0,.2,0,.2,0,.4,0,.4,0,0,0,.1.1.3.4l1,2.1c.2.4.4.8.7,1,.3.2.6.3.9.3s.5,0,.8-.2c.6-.3.9-.8.9-1.4,0-.3-.1-.7-.4-1.2l-.9-1.8h0Z"/>
    <path class="st3" d="M27,15.3c0-.1.1-.2.4-.3h0s0-.3,0-.3l-1.5.5v.3h.1c.2,0,.3,0,.4,0,0,0,.2.2.4.7l.7,2.2-3.2-2.6-1.1.3v.3c0,0,.2,0,.2,0,.1,0,.2,0,.2,0,0,0,.1,0,.3.1h.1c0,0,1,3.3,1,3.3.1.5.1.6.1.7,0,.1-.1.2-.4.3h0s0,.3,0,.3l1.5-.5v-.2h-.1c-.2,0-.3,0-.4,0,0,0-.2-.2-.4-.7l-.8-2.6,3.7,3h.2c0,0-1.2-3.9-1.2-3.9-.1-.4-.1-.6-.1-.7"/>
    <path class="st3" d="M30.8,19.1c0,0-.1,0-.2,0-.1,0-.2,0-.2,0,0,0-.1-.1-.2-.5l-.7-3.3c0-.3,0-.4,0-.5,0,0,.1-.1.4-.2h0v-.3s-2,.4-2,.4v.3h.1c.2,0,.4,0,.5,0,0,0,.1.1.2.5l.7,3.3c0,.4,0,.5,0,.5,0,0-.1.1-.4.2h0s0,.3,0,.3l1.9-.4v-.3h-.1Z"/>
    <path class="st3" d="M32.4,18.7c0,0-.1,0-.2,0,0,0,0,0,0-.2l-.3-3.9c0-.1,0-.2,0-.2,0,0,0,0,.2,0h.2c.4,0,.8.1,1.1.4.4.4.7.9.7,1.7,0,.8,0,1.5-.5,1.9-.3.2-.6.4-1.1.4h-.1ZM33.7,14.2c-.4-.2-.9-.3-1.5-.2h-1.7c0,.1,0,.4,0,.4h0c.3,0,.4,0,.4,0,0,0,.1.1.1.5l.3,3.4c0,.3,0,.5,0,.5,0,0-.1.1-.4.2h0v.3s1.8-.2,1.8-.2c.5,0,.8-.1,1.2-.3.2-.1.3-.2.5-.4.2-.3.4-.6.5-.9,0-.4.1-.7,0-1.1,0-1.1-.5-1.8-1.3-2.1"/>
    <path class="st3" d="M38.9,16.5c0,.8-.2,1.4-.5,1.7-.3.3-.5.5-.9.5s-.6-.2-.8-.6c-.2-.4-.3-1-.3-1.8,0-.8.2-1.4.5-1.7.2-.3.5-.5.8-.5h0c.3,0,.6.2.8.6s.3,1,.3,1.8M37.8,13.7c-.6,0-1.1.2-1.5.6-.4.5-.7,1.1-.7,2,0,.8.1,1.4.5,2,.4.5.8.8,1.4.8h0c.5,0,1-.2,1.3-.6.5-.5.7-1.1.8-2,0-.8-.1-1.5-.5-2-.4-.5-.8-.8-1.4-.8"/>
    <path class="st3" d="M43.2,14.5c0,0,0,.1,0,.1h0s0,0,0,0c0,0,0,0-.3-.2-.2-.1-.3-.2-.5-.2-.3,0-.7,0-.9.2-.2.2-.4.5-.5.9,0,.3,0,.6.1.9,0,.1.2.3.3.5l.4.5c.2.3.4.5.5.6,0,.2.1.4,0,.6,0,.2-.2.4-.3.5-.1.1-.3.1-.5.1-.3,0-.6-.3-.7-.6,0-.2-.2-.5-.2-.9h0s-.3,0-.3,0v1.8c-.1,0,.1,0,.1,0h0c0,0,0-.2,0-.2h0s0,0,.3.2c.2.1.4.2.6.2,0,0,.2,0,.3,0,.3,0,.5,0,.8-.3.3-.2.5-.5.6-1,0-.3,0-.6,0-.8,0-.2-.3-.5-.6-.8l-.5-.5c-.2-.2-.3-.4-.3-.5,0-.1,0-.3,0-.5,0-.2.1-.3.2-.4s.3-.1.4,0c.2,0,.4.2.5.4s.3.6.3,1.1h0c0,0,.3.1.3.1l.2-1.8h-.2c0,0,0,0,0,0h0Z"/>
    <path class="st3" d="M50.5,22.3c-.2-.1-.3-.2-.3-.3,0,0,0-.2.1-.5l1.4-3.1c.1-.3.2-.4.3-.4,0,0,.2,0,.4,0h0s.1-.2.1-.2l-1.2-.5-2.7,2.8.2-3.9-1.2-.5v.2c-.1,0,0,0,0,0,.2.1.3.2.3.3,0,0,0,.2-.1.5l-1.2,2.8c-.2.4-.3.6-.4.6,0,0-.2,0-.5,0h0s0,.2,0,.2l1.4.6v-.2c.1,0,0,0,0,0-.2-.1-.3-.2-.3-.3,0-.1,0-.3.2-.8l1.1-2.4-.3,4.1h.2c0,0,2.9-3,2.9-3l-1.2,2.8c-.2.4-.3.5-.3.5,0,0-.2,0-.4,0h0s-.1.2-.1.2l1.7.7v-.2c.1,0,0,0,0,0h0Z"/>
    <path class="st3" d="M54.2,23.3h0c-.3.3-.6.4-.8.4h0c-.2,0-.5-.1-.8-.3-.4-.2-.5-.4-.5-.4,0,0,0-.1,0-.2l1-1.5.5.3c.2.2.3.3.3.3,0,0,0,.2-.2.6h0s.2.2.2.2l1-1.6h-.2c0-.1,0,0,0,0-.2.3-.4.4-.4.4,0,0-.2,0-.4-.1l-.5-.3.9-1.4c0-.1,0-.1.1-.1h0s.7.5.7.5c.3.2.5.4.5.5s0,.3-.2.6h0s.2.2.2.2l.6-1-2.8-1.8-.2.2h0c.2.2.2.3.3.4,0,0,0,.2-.2.5l-1.8,2.9c-.2.3-.3.4-.3.4,0,0-.2,0-.4-.1h0s-.1.2-.1.2l2.9,1.8,1-1-.3-.2h0Z"/>
    <path class="st3" d="M57.1,27.2c0-.1-.2-.2-.2-.3,0,0,0-.2,0-.5l.5-2.3,1.5-.5c.3-.1.6-.1.8-.1,0,0,.2,0,.3.1h0s.2-.2.2-.2l-1.2-1-.2.2h0c.1.1.2.2.2.2,0,0,0,.1,0,.2h0c0,.1-.2.2-.4.2l-1.1.3.2-1.2c0,0,0-.1,0-.2,0,0,0-.2,0-.2,0,0,0,0,.2,0,0,0,0,0,.3.2h0s.2-.2.2-.2l-1.5-1.3-.2.2h0c.1.2.2.3.2.5,0,.2,0,.5-.2,1.1l-.3,1.3-1.6.5c-.4.1-.7.2-.8.2,0,0-.2,0-.3-.1h0s-.2.2-.2.2l1.2,1,.2-.2h0c-.1-.2-.2-.2-.2-.3,0,0,0-.1,0-.2,0,0,0,0,.2-.1,0,0,.2,0,.4-.1l1.2-.4c-.2.8-.3,1.2-.3,1.4,0,.2-.1.3-.1.4h-.1c0,0-.1,0-.3-.1h0s-.2.2-.2.2l1.5,1.2.2-.2h0s0,0,0,0Z"/>
    <path class="st3" d="M58.6,27.9l2.4-2.3c.2-.2.3-.3.4-.3,0,0,.2,0,.4.2h0s.2-.1.2-.1l-1.3-1.4-.2.2h0c.2.3.2.4.2.4s0,.2-.3.4l-2.4,2.3c-.2.2-.4.3-.4.3,0,0-.2,0-.4-.2h0s-.2.1-.2.1l1.3,1.4.2-.2h0c-.2-.3-.2-.4-.2-.4s0-.2.3-.4h0Z"/>
    <path class="st3" d="M61.6,31.5h0v-.3c0,0,0,0,0,0-.3,0-.5,0-.7-.1-.3,0-.5-.2-.7-.5-.3-.3-.3-.7-.2-1.2.1-.5.5-.9,1-1.3.6-.5,1.1-.7,1.6-.7.5,0,.8,0,1.1.4.2.3.3.7.1,1.1,0,.2-.2.5-.4.7h0s.2.2.2.2l1.4-1.2-.2-.2h0c0,0-.1,0-.2,0h-.1c0,0,0-.1-.1-.4,0-.2-.2-.5-.3-.6-.4-.5-.9-.8-1.6-.8h0c-.6,0-1.3.3-1.8.7-.6.5-1,1-1.1,1.6-.2.6,0,1.2.3,1.8.2.3.6.5,1,.6.2,0,.4,0,.5,0s.2,0,.2,0"/>
    <path class="st3" d="M65.3,31.8l-1.3,1.4-.6-1s1.9-.4,1.9-.4ZM63.3,35.6c0-.1,0-.2,0-.3,0,0,0-.2.3-.5l3-3.5v-.2c-.1,0-4,.8-4,.8-.5.1-.9.2-1.1.2s-.2,0-.3-.2h0s-.2.1-.2.1l.7,1.2h.2c0-.1,0-.2,0-.2,0-.2,0-.2,0-.3,0,0,0-.1.1-.2,0,0,.1,0,.2,0,.1,0,.4,0,.9-.2l.8,1.3-.5.5c0,0-.1.2-.2.2,0,0-.1,0-.1.1,0,0-.1,0-.2,0,0,0,0,0-.2-.2h0s-.2,0-.2,0l.8,1.5h.2c0-.1,0-.2,0-.2h0Z"/>
    <path class="st3" d="M69,37.7c.1,0,.2.1.3.3h0s.2,0,.2,0l-.6-1.5h-.2v.2c0,.2,0,.4,0,.4,0,0-.2.2-.7.4l-2.1.9,2.4-3.4-.4-1.1h-.3c0,0,0,.2,0,.2,0,.1,0,.2,0,.2,0,0,0,.1-.1.3h0c0,0-3.1,1.3-3.1,1.3-.3.1-.6.2-.7.2s-.2-.1-.3-.3h0s-.2,0-.2,0l.6,1.5h.2v-.2c0-.2,0-.4,0-.4,0,0,.2-.2.7-.4l2.5-1-2.7,3.9h0s0,.2,0,.2l3.8-1.5c.3-.1.6-.2.7-.2"/>
    <path class="st3" d="M66.3,42.7c-.4-.2-.6-.4-.7-.7,0-.3,0-.7.3-1,.3-.3.8-.6,1.6-.8.4,0,.8-.2,1.1-.2s.5,0,.7,0c.4.2.7.4.7.7,0,.3,0,.6-.3,1-.3.3-.8.6-1.6.8-.8.2-1.4.2-1.8,0M67.4,43.5c.3,0,.6,0,.9-.1.8-.2,1.4-.5,1.8-1.1.4-.5.5-1,.3-1.6-.1-.5-.5-1-1-1.2s-1.3-.3-2.1-.1c-.8.2-1.3.5-1.8,1-.4.5-.5,1-.4,1.6.1.5.5.9,1,1.2.4.2.8.3,1.2.3"/>
    <path class="st3" d="M71.3,46.1h0c0,0-.1,0-.2,0,0,0,0,0,0,0,0,0,0,0,0-.3,0-.2,0-.4,0-.5,0-.3-.2-.6-.5-.8-.3-.2-.6-.2-1-.2-.3,0-.6.2-.8.4-.1.1-.2.2-.3.4l-.3.6c-.2.3-.3.5-.4.6-.2.2-.3.2-.6.3-.3,0-.5,0-.6-.1-.2-.1-.2-.2-.3-.4,0-.3,0-.6.4-.9.2-.2.4-.3.8-.5h0s0-.3,0-.3l-1.7.4v.2h.2s0,0,0,0c0,0,0,0,0,.3,0,.2,0,.4,0,.6,0,.4.2.7.5.9.2.2.5.3.9.3s.2,0,.2,0c.3,0,.6-.1.8-.3.2-.2.4-.4.6-.8l.3-.6c.1-.2.2-.4.4-.5.1,0,.3-.2.4-.2.2,0,.4,0,.5.1.1,0,.2.2.2.4,0,.2,0,.4-.2.6-.2.2-.5.4-.9.6h0s0,.3,0,.3l1.7-.4v-.2s0,0,0,0Z"/>
    <path class="st3" d="M34.8,81.9c-.2,0-.4,0-.5-.3-.2-.6-.2-1.3,0-2.2,0-.2.2-.4.4-.4.2,0,.4,0,.5.4,0,.8.1,1.5,0,2.1,0,.3-.3.4-.5.4"/>
    <path class="st3" d="M36.9,81.8c-.2,0-.5,0-.5-.3v-1.8c0-.3,0-.5.1-.6,0,0,.2-.2.3-.2.3,0,.6.2.6.6v1.7c0,.2,0,.3-.1.4,0,.1-.2.2-.4.2"/>
    <path class="st3" d="M30.5,83.2c0,0-.2,0-.3,0-.2,0-.3-.2-.3-.4,0-.2,0-.3.2-.3,0,0,.1,0,.2,0,.2,0,.4,0,.5.2,0,.1,0,.3,0,.5,0,0-.2.2-.4.2"/>
    <path class="st3" d="M40.8,83.4c-.1,0-.3,0-.3-.1,0,0,0-.2,0-.4,0-.2.2-.4.5-.4h.2c.2,0,.3.2.3.3,0,.2-.1.4-.3.5,0,0-.2,0-.3,0"/>
    <path class="st3" d="M31.5,82.4c0,0-.1,0-.2,0l-.5-.3c0,0,0-.2,0-.2.6-.6,1.5-1,2.4-1.1h0c.2,0,.3.1.3.3,0,.2,0,.4-.3.6-.7.1-1.1.3-1.4.6-.1.2-.2.2-.4.2"/>
    <path class="st3" d="M39.9,82.5s0,0-.1,0c-.5-.5-1.1-.7-1.6-.9,0,0-.2,0-.2-.2,0-.4,0-.5,0-.6,1,0,1.8.4,2.5,1.1h0c0,.1,0,.2,0,.2l-.5.3h-.1Z"/>
    <path class="st3" d="M38.3,86.2c0,0-.2,0-.3-.1-.6-.3-1.2-.6-1.9-.9-.2-.1-.2-.3-.2-.4,0-.2.3-.5.6-.5h.2c.3.2.7.4,1,.5.4.2.8.3,1.1.6,0,0,.2.1.2.2,0,0,0,.1,0,.2l-.3.4c0,0-.2.1-.3.1"/>
    <path class="st3" d="M30.7,85.6h-.1c0,0,0-.2,0-.3,0-1.1,1-1.7,2.1-2.4.3-.2.7-.4,1-.7.1,0,.2-.1.3-.2,0,0,.1,0,.2,0l.5.3c0,0,.1,0,.1.1s0,.1,0,.2c-.3.3-.7.5-1.1.7-.6.4-1.3.8-1.6,1.4-.2.3-.6.6-1.2.7h0,0Z"/>
    <path class="st3" d="M33.5,86.1c0,0-.1,0-.2,0l-.4-.4c-.2-.2-.2-.4.1-.7.4-.4.8-.7,1.3-1,.5-.3,1-.7,1.4-1.1.2-.2.3-.3.5-.3h.1c.1,0,.2,0,.3,0,.2,0,.4,0,.4,0,0,0-.2.4-.2.6-.5.7-1.2,1.1-1.7,1.5-.6.4-1.1.7-1.4,1.3,0,.2-.2.2-.2.2"/>
    <path class="st3" d="M40.8,85.2c-.1,0-.2,0-.3,0-.2,0-.4-.2-.6-.4-.2-.2-.5-.4-.8-.6-.2-.1-.4-.2-.7-.3-.3-.1-.6-.2-.9-.4-.1,0-.2-.2-.2-.3,0-.2.1-.4.3-.6,0,0,.1-.2.2-.2,0,0,.1,0,.2,0,.3.2.6.3,1,.5.8.3,1.6.7,2.3,1.7,0,0,0,.1,0,.2,0,0,0,0-.1.1-.1,0-.3,0-.5,0"/>
    <path class="st3" d="M26.9,81.2c.5,0,.8,0,.9.3,0,.1,0,.3,0,.5-.1.2-.1.3,0,.4,0,0,.1,0,.2,0,.2,0,.6-.3.7-.8,0-.2.2-.4.6-.5.2-.1.3-.4.3-.6,0-.2-.1-.3-.2-.3,0,0-.1,0-.2,0-.1.2-.4.3-.6.3,0,0-.1,0-.2,0-.5,0-.8-.1-1.1-.5l-.7-1.1c0-.1-.2-.2-.3-.2h-.1c0,.2,0,.3,0,.4l.3.7c0,.1,0,.2,0,.3,0,0-.2.1-.3.1h0c-.9,0-1.7-.4-2.5-1.4-.1-.1-.2-.2-.3-.2h-.1c0,.2,0,.3,0,.4l.3.5c.1.2.1.2.1.2,0,0,0,0-.2,0-.8,0-1.6-.3-2.5-.9-.1,0-.2,0-.3,0-.1.1-.1.2,0,.3v.3c.1,0,.2.1.1.2,0,0,0,0-.2,0l-1.4.2c-.2,0-.3,0-.3.2s.2.2.5.2c1.4-.1,2.4,0,3.1.2,0,0,.1,0,.2,0,0,0,0,.1,0,.2l-.5.5c-.1.1-.2.2-.2.3,0,0,0,0,.2,0,0,0,.1,0,.2,0,.8-.5,1.4-.8,1.9-.8.2,0,.4,0,.5,0,.1,0,.2,0,.3.2,0,.1,0,.2,0,.3l-.3.6c0,.2,0,.3,0,.3h.1c0,0,.2,0,.3-.1.5-.5,1-1.1,1.6-1.1h.1,0ZM26.6,83.9c-.2,0-.3,0-.4-.2,0,0,0-.2,0-.3l.5-.8c0-.1,0-.2,0-.3,0,0-.1,0-.2,0-.1,0-.3.1-.5.3-.6.7-1.3,1-2,1.1-.2,0-.4,0-.6,0-.2,0-.3-.2-.4-.2,0-.1,0-.2.1-.4l.6-.8c0-.2,0-.3,0-.3h0s-.1,0-.1,0c0,0-.1,0-.2,0l-1.5.7c-.2,0-.3.1-.5.1-.3,0-.6,0-.8-.3,0,0-.1-.2-.1-.2h.1c.3-.3.5-.5.7-.8,0-.1.1-.2,0-.3,0,0-.1-.2-.4-.2-.5,0-1,.1-1.4.2-.9,0-1.5,0-1.7-.2-.1-.1-.2-.2-.2-.4,0-.2.2-.3.5-.5l1.5-.6c.2,0,.2-.2.3-.2,0,0,0-.2-.1-.3,0,0,0-.2,0-.2,0,0,.1-.2.2-.2.2-.1.4-.2.6-.2.5,0,1,.2,1.6.7.1,0,.2.1.3,0,.1-.1.1-.2,0-.3l-.2-.6c0-.1,0-.3,0-.3,0,0,.1,0,.2-.1.8,0,1.5.3,2.3,1.4.1.2.3.2.4.2h.1c0-.2,0-.3,0-.5l-.3-.6c0-.2,0-.3,0-.4,0,0,.2-.2.4-.2.1,0,.2,0,.3,0,.5,0,.9.1,1,.5l.7,1.3c.1.2.3.3.4.3.1,0,.3-.1.5-.4,0-.2.2-.3.2-.3.2,0,.6.2,1.2.7.2.2.4.3.7.3.1,0,.3,0,.5-.1.6-.3,1.3-.5,1.9-.5.3,0,.5,0,.8,0,.2,0,.3.2.3.4,0,.2-.3.5-.8.5,0,0-.2,0-.2,0,0,0-.2,0-.3,0-.6,0-1.4.6-2.1,1.1-.3.2-.5.2-.7.3-.1,0-.3,0-.4.1-.2,0-.5.3-.8.7-.5.6-1.1,1.3-2,1.4"/>
    <path class="st3" d="M14.6,76.1c.4,0,.6,0,.7.2,0,0,0,.1,0,.2,0,.2,0,.4.3.4h1.2c.1,0,.2,0,.2-.2,0,0,0-.2,0-.2-.2-.5-.4-.5-.6-.5h-.1c0,0-.2,0-.3,0-.5-.3-.7-1.1-.6-2.4,0-.2,0-.3,0-.3h0c-.1,0-.2,0-.2.3v.7c-.1.3-.2.3-.3.3,0,0-.1,0-.2,0-.5-.3-.9-.8-1.1-1.7,0-.3,0-1.7-.4-.8-.2.1-.5-.4-.7-.8,0-.2-.1-.2-.2-.2-.1,0-.1.2-.1.3,0,.2,0,.3-.1.4-.1,0-.2.1-.2.2s0,.1.3.2c.5,0,.9.6,1.2,1.6,0,.1,0,.2,0,.2h-1.4c0,0-.1,0-.2,0-.2,0-.2,0-.2.1,0,.1.2.3.4.3l1.4.2c.4,0,.8.2,1.1.7.1.2.1.3.1.4,0,0,0,0-.1.1-.6.2-1.1.3-1.6.4-.2,0-.3,0-.3.2,0,0,0,.2.4.3.1,0,.3,0,.6,0,.2,0,.5,0,.8-.1.3,0,.5-.1.8-.1M19.2,78.5c0,0-.2,0-.3,0-.9-.7-1.9-1.1-3.1-.9-.4,0-.8.1-1.3.2,0,0-.1,0-.2-.1,0,0,0-.2,0-.4,0-.3-.1-.4-.3-.4,0,0-.1,0-.2,0-.2,0-.4,0-.6,0-1.3.1-2.1-.2-2.6-1.1,0,0,0-.2,0-.2,0,0,.1,0,.2,0l1.8-.2c.2,0,.2,0,.3-.2,0,0,0-.2-.3-.3-1.8-.3-2.9-.8-3.2-1.6,0,0,0-.2,0-.3,0,0,.1,0,.3-.1h1.4c.2.1.3,0,.3,0,0,0,0-.2-.3-.3l-1.4-.8c-.1-.1-.2-.2-.2-.4,0-.1.2-.2.5-.2.2,0,.4,0,.5,0,.2,0,.4,0,.4-.2.1-.2.1-.4.1-.9v-.4c0-.3,0-.5.2-.5,0,0,.3,0,.7.7.2.3.4.4.5.4.2,0,.2-.3.4-.8,0-.2.2-.2.2-.2,0,0,.2,0,.3.1.6.3.6,1.7.5,3,0,0,0,.2,0,.3,0,0,.1,0,.2,0,0,0,.2,0,.3-.4l.2-.9c0-.2.2-.4.3-.4.1,0,.3,0,.5.2.5.5.7,1.2.6,3,0,.2,0,.3.1.3,0,0,.1,0,.2,0,.1,0,.3-.1.4-.4,0-.1.1-.2.2-.2s.1,0,.2.3c.2,1.6.9,2.7,2.1,3.5.1.1.2.3.1.4,0,0-.1.2-.2.2"/>
    <path class="st3" d="M18.8,75.3c-.2,0-.3-.1-.4-.3,0-.1,0-.3.1-.4.2-.1.4-.2.6-.2.2,0,.3,0,.4.1,0,0,.1.2.1.4-.1.2-.4.4-.8.4h0Z"/>
    <path class="st3" d="M15.4,79.6h-.2c-.3-.1-.4-.4-.4-.5,0-.2,0-.4.2-.5.1,0,.2,0,.3,0,.3,0,.5.2.5.7,0,.1,0,.2-.1.3,0,0-.2.1-.4.2"/>
    <path class="st3" d="M20,77.8c-.1,0-.4-.2-.6-.6-.2-.4-.5-.6-.8-.7-.2,0-.3-.3-.3-.5,0-.2.2-.3.4-.3h.1c.2,0,.5,0,.8-.2,0,0,.2,0,.2,0,.2,0,.4.1.4.2,0,.2,0,.3-.1.4-.2.2-.4.4-.3.8.2.5.2.8.2.9,0,0,0,0,0,0Z"/>
    <path class="st3" d="M16.7,79.9c-.2,0-.3,0-.4-.3,0-.4,0-.7-.2-.8-.1-.2-.1-.5,0-.6,0-.1.2-.2.3-.2.1,0,.2,0,.4,0,.2.2.5.3.9.3.3,0,.6,0,.8.2.1.1.1.2.1.2-.1,0-.2,0-.3,0h0c-.4,0-.9.1-1.1.7-.1.2-.3.4-.5.4"/>
    <path class="st3" d="M6.3,67.1c-.1,0-.2,0-.2.2,0,0,0,.2.2.2.6,0,1,0,1.2.2,0,0,.2.1.2.1h.1c0-.2,0-.3,0-.4-.2-.3-.2-.7.2-1.2.1-.1.1-.2.1-.3h0s-.1,0-.1,0c0,0,0,0-.2,0,0,0-.2,0-.3,0-.2,0-.4,0-.5-.2-.2-.3-.2-.7,0-1.3.2-.6.4-1.3.7-1.9,0-.1,0-.3,0-.3h0c-.1,0-.2.1-.2.2-.2.3-.3.7-.4,1-.2.5-.3.9-.5.9-.2,0-.6-.5-.8-.9-.3-.5-.2-1,0-1.5,0-.1,0-.2,0-.3h-.1c0,0-.2,0-.2.2-.2.3-.3.4-.4.4-.1,0-.3-.2-.6-.5,0,0-.1,0-.2,0,0,0-.2,0-.2.2,0,.1,0,.3,0,.4h0c.2.3.6.7.6.8h-.1c-.2,0-.4,0-.6,0h-.2c-.1,0-.2,0-.2.1,0,0,0,.2.3.2,1.2.1,2.1,1,2.1,1.6,0,.2-.2.3-.4.3-.2,0-.5,0-.8-.1h-.1c-.1,0-.2,0-.2.2,0,0,0,.2.3.2,1.3,0,2.2.8,2.2,1.3,0,.3-.3.4-.6.4h0ZM10.4,70.6c0,0-.1,0-.2,0-.7-.3-1.4-.8-2.1-1.5-.3-.6-.8-.9-1.4-1-1.1-.2-1.8-.5-2.2-1,0-.1,0-.2,0-.2,0,0,0,0,.2,0h.6c.2,0,.3-.1.3-.2,0-.1-.1-.3-.3-.3-1.7-.3-2.5-.7-2.5-1.4,0-.2,0-.3,0-.3,0,0,.1,0,.3-.1h.5s.2,0,.2-.1c0,0,0-.2-.3-.3-.6-.2-1-.5-1.4-.9,0-.2-.1-.4,0-.5,0,0,.2-.2.3-.2,0,0,.2,0,.2,0,.1,0,.3,0,.3,0,.1,0,.2,0,.2-.1,0-.1,0-.4-.3-.6,0-.2,0-.3,0-.4,0,0,.2-.1.4-.1.1,0,.2,0,.3,0,.2,0,.4-.1.6-.3,0,0,.2,0,.2,0,.2,0,.3,0,.4.3,0,.3.3.5.5.5,0,0,.2,0,.3-.4,0-.4.2-.6.4-.6,0,0,.2,0,.3,0,.4.2.4.8,0,1.8,0,.2,0,.3,0,.4h0s.2,0,.2,0c.2,0,.4-.2.5-.5,0-.8.3-1.2.7-1.2,0,0,.2,0,.3,0,.2,0,.4.2.6.4.3.5.2,1.3-.2,2.6,0,.2,0,.4,0,.5,0,0,.1,0,.2,0,.1,0,.2,0,.3-.2.1-.2.3-.3.4-.3,0,0,.1,0,.2,0,.1.2.2.5,0,1.1-1,2.1-.6,3.7,1.2,4.7.1.1.2.3.2.4,0,0-.1.1-.2.1"/>
    <path class="st3" d="M10,69.5c-.1,0-.2,0-.2-.2,0-.9-.2-1.4-.5-1.7-.1-.2-.1-.4,0-.6,0,0,.1-.2.3-.2h.2c.4.2.8.2,1.1.3.2,0,.4.2.4.3,0,.2,0,.3-.2.4-.5.2-.8.3-.8,1.1,0,.4-.2.5-.3.6"/>
    <path class="st3" d="M10.7,66.6h-.3c-.3,0-.4-.2-.5-.4,0-.2.1-.4.3-.5,0,0,.2,0,.3,0,.2,0,.4,0,.4.1.1,0,.1.3.1.5,0,.2-.2.3-.5.3"/>
    <path class="st3" d="M6.2,70.5c-.3,0-.4-.1-.5-.3,0-.2,0-.5,0-.7,0-.1.2-.2.4-.2.2,0,.4,0,.5.4,0,.2,0,.4,0,.6,0,.1-.2.2-.4.2"/>
    <path class="st3" d="M7.3,71.1c-.2,0-.3,0-.4-.1,0,0,0-.2,0-.3.1-.5.2-.8.2-1.1,0-.3.2-.5.4-.5.2,0,.3,0,.4.2.2.4.4.6.7.7.6.3.7.5.7.6,0,0-.1,0-.2.1h-.2c-.3-.1-.5-.2-.7-.2-.2,0-.3,0-.4.2-.1.2-.3.3-.5.3"/>
    <path class="st3" d="M1.5,52.9s0,.1,0,.4c.4.6.8,1.4.7,1.8,0,.1-.1.2-.3.2,0,0-.2,0-.3.2,0,.1,0,.2.1.3,0,.1.2.2.4.2.3.1.5.2.3.6v.5c.3.2.5.3.6.3.1,0,.2,0,.2-.2,0-.2,0-.4-.3-.6-.2,0-.2-.1-.3-.2,0,0,0-.2.3-.4.6-.6.6-.8.6-.8h0s0,0,0,0c0,0-.1,0-.2,0,0,0-.2,0-.2,0-.3,0-.4-.1-.4-.6,0-.7,0-.7.4-.9.6-.4.7-.5.7-.6,0,0-.1-.1-.4-.1,0,0-.1,0-.2,0,0,0,0,0-.1,0,0,0,0-.1,0-.3,0-.5.3-1,.7-1.3.1-.2.2-.3.2-.4,0,0-.2,0-.3,0-.4,0-.6.2-.8.4-.1.2-.2.4-.2.7l-.2,1.1c0,.2,0,.3-.2.4,0,0-.1,0-.2,0-.4-.3-.5-.4-.5-.4h0c0,0,0,0,0,0ZM4.3,60.4h-.2c-.3-.2-.5-.6-.6-.9-.3-1.4-.6-1.8-1-2-.7-.3-.7-.6-.7-.8,0-.6-.2-.8-.5-.8-.7-.2-1.1-.5-1.2-1-.1-.5,0-.7,0-.8,0,0,0,0,.2,0,.2,0,.4,0,.7.2,0,0,.1,0,.2,0,.1,0,.2,0,.2-.1,0,0,0-.3,0-.5l-.5-.8c-.2-.5-.2-.8.1-1.2.3-.3.4-.4.5-.4,0,0,0,0,.1,0,.3.5.5.6.6.6.2,0,.2-.4.2-.5,0-.8.2-1.8.8-1.9,0,0,.2,0,.3,0,.1.1.3.2.5.2.2,0,.5-.2.8-.5.1,0,.2-.1.3-.1,0,0,.2,0,.3.3.2.6,0,1.2-.6,1.7-.2.2-.2.4-.2.5,0,0,0,0,.2,0,.1,0,.4-.1.7-.3,0,0,.2-.1.2-.1.1,0,.2.1.2.4.1.7-.4,1.3-1.7,2-.2,0-.3.2-.2.4,0,.1.1.2.3.2,0,0,.2,0,.2,0,.3-.2.5-.3.7-.3.2,0,.3,0,.4.2,0,.2,0,.6-.5,1-.3.4-.4.7-.7.8-.2,0-.2.1-.3.2,0,0,0,.2,0,.3.2.2.2.4,0,.7-.5.4-.4,1.3.1,2.8.2.2.2.5.1.6,0,0,0,.1-.2.1"/>
    <path class="st3" d="M6.3,57.2c-.2,0-.3,0-.5-.1-.2-.1-.2-.3-.2-.5,0-.2.2-.3.4-.3.3,0,.6,0,.6.2,0,.1,0,.3,0,.5-.1,0-.3.2-.4.2"/>
    <path class="st3" d="M.6,58.9c-.1,0-.2,0-.4,0-.1-.1-.2-.3-.1-.5,0-.2.2-.4.4-.5,0,0,.1,0,.2,0,.2,0,.3,0,.3.1.1.1.1.4,0,.7-.1.2-.3.3-.4.3"/>
    <path class="st3" d="M3.1,60.1s-.1,0-.2,0c-.4-.3-.7-.5-1-.5-.1,0-.2,0-.3.2,0,0-.2,0-.3,0-.2,0-.3,0-.4-.1,0,0,0-.2,0-.4.2-.4.4-.7.6-1.1,0-.2.2-.2.4-.2.2,0,.5.2.5.5v.5c.1,0,.7.8.7.8,0,.2.1.3,0,.4h0c0,0,0,0,0,0Z"/>
    <path class="st3" d="M5.1,59.7s0,0-.2-.2c0-.2,0-.5,0-.8,0-.3,0-.6,0-.8,0-.1,0-.3,0-.5,0-.1.2-.2.3-.2h.1c.3.2.6.4,1,.5.2,0,.4.2.4.5,0,.2-.2.3-.5.3-.4,0-.7.3-.8,1-.1.2-.2.3-.2.3"/>
    <path class="st3" d="M52.6,76.2c-.2,0-.3,0-.4-.1,0,0,0-.2,0-.4,0-.2,0-.5-.3-.7-.2-.3-.3-.6-.2-.9.1-.3.4-.4.8-.5.3,0,.6,0,.7.3.2.2.2.6,0,1-.2.2-.3.4-.2.7,0,.2,0,.3,0,.4,0,.1-.2.2-.4.2"/>
    <path class="st3" d="M61.6,68.2c-.1,0-.3,0-.4-.3,0-.3-.2-.4-.6-.4-.4-.2-.6-.4-.6-.8,0-.4.5-.8.9-.8.4,0,.7.3.8.8,0,.3,0,.5.2.7.2.1.2.3.2.5,0,.2-.3.4-.5.4"/>
    <path class="st3" d="M66.4,57.8c-.2,0-.3,0-.4-.2,0-.2-.2-.3-.5-.3,0,0-.1,0-.2,0-.6-.1-.7-.5-.7-.7,0-.5.4-.9.8-.9.3,0,.6.2.8.6h0c0,.3,0,.5.3.6.3.1.3.4.3.5,0,.2-.2.4-.4.4"/>
    <path class="st3" d="M54.8,79.7c-.3,0-.6-.2-.8-.5,0-.3-.2-.5-.4-.5-.2,0-.3-.2-.3-.4,0-.2.3-.5.5-.5.1,0,.2,0,.3.2,0,.2.2.2.5.2,0,0,.2,0,.3,0,.5,0,.8.2.8.6,0,.4-.4,1-.9,1.1"/>
    <path class="st3" d="M65,70.1c-.2,0-.4,0-.7-.2-.1-.2-.3-.3-.5-.2h-.2s-.1,0-.1,0c-.1,0-.2,0-.3,0,0,0-.1-.2-.1-.3,0-.2.2-.5.5-.5h.2c0,0,.1,0,.2,0,.1,0,.3-.1.5-.3.2,0,.3-.1.5-.2.3,0,.5.1.6.3.2.3.2.7,0,1,0,.2-.2.3-.5.4"/>
    <path class="st3" d="M70.1,58.5c-.1,0-.3,0-.4,0-.1,0-.3-.2-.5-.2-.1,0-.2,0-.3,0,0,0-.1,0-.2,0-.3,0-.5-.2-.5-.4,0-.1,0-.2,0-.3,0,0,.2-.2.3-.2h.3c.2,0,.3-.1.5-.4.2-.2.4-.3.6-.3.2,0,.4,0,.5.3.2.3.2.8,0,1,0,.2-.3.3-.5.3"/>
    <path class="st3" d="M44.4,82.4c-.3,0-.5,0-.8,0-.9-.3-1.7-.7-2.3-1.2-1.2-.6-2.3-.9-3.2-.9-.2,0-.3-.3-.3-.4,0-.2.2-.4.3-.4,1.2.2,2.4.6,3.7,1.1.2,0,.5.1.7.1.3,0,.6-.1.8-.3l.5-.2c2.4-1.1,4.4-2,6.6-2.1.2,0,.5,0,.8,0,.2,0,.3,0,.3,0s0,.2-.6.2c0,0-.2,0-.2,0-.4,0-.9.2-1.3.4-.6.3-1.2.6-1.8.9-1,.6-2,1-2.7,1.1,0,0-.2,0-.2,0-.8,0-1.2.3-1.2.6,0,.2.2.2.5.3.2,0,.4,0,.6,0,1,0,1.9-.5,2.6-.9,1.3-.8,2.8-1.8,4.4-2h.2c0,0,.2,0,.2,0,0,0,0,0-.2.3-1,1.1-3,2-4.6,2.6-.4.2-.8.3-1.2.5-.6.2-1.2.5-1.7.5"/>
    <path class="st3" d="M46.4,83.8c-1.5.1-2.5-.2-2.9-1,.3,0,.7.1,1.1,0,1.3,0,2.7-.8,3.9-1.3,1-.5,1.8-.8,2.4-.9.3,0,.5,0,.5.1,0,0,0,.1-.2.2l-4.2,1.7c-.2,0-.4.2-.4.3,0,0,.1.2.3.1,1.1-.3,2-.8,2.8-1.2.8-.4,1.5-.8,2.1-.8h.3c.1,0,.2,0,.2,0s0,.1-.2.2c-1.6.9-3.4,1.7-5.5,2.3-.1,0-.2,0-.4,0"/>
    <path class="st3" d="M42.8,80.2c-.4,0-1-.1-1.1-.4h0c.8,0,1.5-.7,2.3-1.3.4-.4.8-.7,1.3-1.1.2-.2.4-.2.7-.2.3,0,.6,0,.9-.3.6-.4,1.1-.6,1.6-.6.3,0,.6,0,.9.2.2.2.2.2.2.2h-.2c-.1,0-.3,0-.4,0-.6,0-1.2.3-1.8.8l-1.6.4c-.4.1-.9.4-.8.6,0,0,0,.1.2.1h.1s.8-.2.8-.2c.3,0,.5-.2.8-.3.3-.2.6-.4,1.1-.4.5,0,.8-.2,1.1-.3.2,0,.4-.1.6-.2h0c.2,0,.3,0,.3.2,0,.1,0,.3-.2.3-.3,0-.6.2-.9.2-.5.1-1,.2-1.5.4-1.5.6-2.9,1.2-4,1.8-.1,0-.3.1-.5.2"/>
    <path class="st3" d="M52.8,77.6c-.2,0-.4,0-.4-.2,0-.1,0-.3.1-.4,0-.3.4-.5.9-.9.8-.5,1.8-1.3,2.8-2.6.7-1,1.8-1.9,3.1-2.9.5-.4,1.1-.9,1.7-1.4.2-.2.3-.2.3-.2,0,0,0,0,0,.2-.2.8-.9,1.6-2.1,2.5-1.4,1-2.8,2.2-3.3,3.2-.1.2-.2.3-.1.4h0s0,0,0,0c0,0,.2,0,.7-.4.9-1.1,1.8-2,2.8-2.6,1.1-.8,1.8-1.6,2.2-2.6,0-.2.1-.2.1-.2,0,0,0,0,0,.6,0,.9-.5,1.8-1.7,2.7-1.5,1.5-2.8,2.4-4,3-1.5.3-2.4.8-2.8,1.5-.1.2-.3.3-.4.3"/>
    <path class="st3" d="M57.7,76.6c-.3,0-.7,0-1,0-.3,0-.7,0-1,0-.2,0-.3,0-.3-.1,0,0,0-.2.2-.2,3.1-1,4.7-2.8,6-4.6.1-.1.2-.2.4-.2h.2c0,0,0,.2,0,.3-.8,1.5-2,2.4-3.1,3.2l-.3.3c-.2.2-.3.3-.3.5,0,0,0,.1.2.1s.1,0,.2,0c1.6-1.1,2.9-2.4,3.9-3.9,0-.1.1-.1.2-.1,0,0,0,0,0,.2.1.5-.2,1.1-1,1.8-1.1,1.2-1.9,2-2.7,2.4-.4.1-.9.2-1.5.3"/>
    <path class="st3" d="M54.3,75c0,0-.1,0-.1,0,0,0,0-.1,0-.3.1-.3.2-.9.3-1.7.2-.8.5-1.3,1.2-1.8,1.2-1.1,2.1-1.9,2.8-2.7,0,0,0,0,0,0,0,0,0,0,0,.3,0,.4-.4.8-1,1.4-.3.3-.8.7-1.2,1.2l-1,1.2c0,.2-.1.3,0,.4h0s.1,0,.1,0c.1,0,.3-.1.5-.3.7-.9,1.4-1.8,2.1-2.4.2-.2.3-.2.3-.2,0,0,0,0,0,.4,0,.4-.4.9-1.1,1.4-.6.4-1.2,1.1-1.8,2.2-.3.5-.7.9-1.2,1.2"/>
    <path class="st3" d="M62.4,69.3c-.1,0-.2,0-.2-.1,0-.1,0-.3,0-.4.7-.7,1.2-1.8,1.5-3.5l.3-.7c.6-1.5,1.4-3.7,2.5-4.9.2-.2.3-.2.3-.2,0,0,0,0,0,.3-.4,1.2-.9,2.3-1.4,3.3-.4.8-.8,1.6-1,2.4,0,.2,0,.3,0,.4h0s0,0,0,0c0,0,.2,0,.3-.2.8-1,1.2-2.4,1.7-3.8.3-1,.7-2,1.1-2.8.2-.3.3-.3.3-.3s0,0,0,.5c0,1.7-.7,3.7-2,6.1-.2.3-.5.6-.8.8-.3.3-.7.6-.8.9-.4.8-.7,1.3-1.4,2-.1.1-.2.2-.3.2"/>
    <path class="st3" d="M62.9,66.4s0,0-.2-.1c-1.5-2.2,0-4.9,1.5-6.7.2-.2.3-.2.3-.2,0,0,.1.1,0,.2-.4.5-.6.9-.7,1.6-.2.8-.4,1.2-.7,1.5-.1.2-.2.3-.3.5-.2.4-.3.8-.2.9h0s0,0,0,0c.1,0,.2-.1.3-.2.5-.8.8-1.6,1.1-2.4.3-.8.6-1.5.9-1.9.1-.2.2-.2.3-.2h.1c0,.1,0,.2,0,.4-.2.8-.8,2-1.7,3.6-.3.5-.5,1.1-.6,1.8,0,.6-.2,1.1-.3,1.1"/>
    <path class="st3" d="M64.9,67.3h-.1s0-.1.1-.4c1.1-1,1.8-2,2.3-3.2.3-1.5.8-2.3,1.6-2.8.2-.1.3-.2.4-.2,0,0,0,0-.2.4-.5.6-.8,1.4-1.1,2.1-.3.7-.5,1.5-1,2.1-.2.2-.2.4-.2.4h0s0,0,0,0c0,0,.2,0,.3,0,.4-.3.7-1.1,1-2,.4-1,.8-2.1,1.4-2.8.2-.1.3-.2.3-.2s0,0,0,.4c-.2.5-.4,1.1-.6,1.7-.4,1.1-.7,2.2-1.4,3.1-.3.3-.6.5-.9.6-.2,0-.4.2-.6.2-.2,0-.4.1-.7.2-.2.1-.4.2-.5.2"/>
    <path class="st3" d="M67.1,55.5c0,0-.1,0-.2-.1-1.4-1-1.7-2.8-1.1-5.5,0-.1,0-.2,0-.3h.1c.4.6.4.9.2,1.4-.1.6-.3,1.4.2,2.9,0,.2.2.2.3.2h.1c0-.1,0-.2,0-.3-.3-.9-.3-1.7-.2-2.2,0-.3,0-.5,0-.7,0-.2,0-.2,0-.2h0s0,0,.2,0c.2.2.4.6.2,1.7-.1.5,0,1.1,0,1.7.2.5.2.8,0,1.2,0,.1,0,.2-.1.2"/>
    <path class="st3" d="M67.4,58.4c0,0-.2,0-.2,0,0,0,0-.2,0-.3,0-.6.2-1.2.3-1.8.2-.7.3-1.4.3-2.1,0-2.6.2-4.2.8-4.9.1-.1.2-.2.3-.2,0,0,.1,0,.2.3.1.6,0,1.3-.4,2-.3.9-.4,1.8-.3,2.8,0,0,0,.2,0,.3,0,0,.1,0,.2,0,.1,0,.3-.1.3-.5-.1-1,0-2,.3-2.8.3-.6.4-1.3.2-1.9,0-.2,0-.2,0-.2,0,0,0,0,.2.1.2.2.4.4.4,1.4,0,1.3-.1,2.3-.5,3.2-.2.5-.5.9-.8,1.3-.3.5-.6.9-.8,1.5-.1.3-.2.6-.2,1.3,0,.2-.2.4-.3.4"/>
    <path class="st3" d="M68.5,56.8h0s0-.1,0-.4l1.3-2.2c.3-.4.4-1.6.5-3.6,0-.2,0-.3,0-.3h.1c.2.2.4.4.3.9l-.3,1.8-.2,1.2c0,.1,0,.2,0,.3h0s0,0,0,0c0,0,.2-.1.2-.3,0-.5,0-1.1.4-1.6.3-.9.1-1.7,0-2.4,0-.1,0-.2,0-.2,0,0,0,0,.2.2.5.6.6,1.1.4,1.7-.1.4-.2.8-.1,1.2,0,.7-.2,1.2-.5,1.6l-1.9,1.9c-.3.2-.5.3-.6.3"/>
    <path class="st1" d="M93,77.5c0,.5-.1.9-.4,1.3s-.6.7-1.1.8c-.5.2-1,.3-1.7.3s-.6,0-.8,0-.5,0-.8-.2c-.2,0-.5-.2-.7-.3v-1.7c.4.2.8.3,1.2.5s.8.2,1.3.2.5,0,.7-.1.3-.2.4-.3.1-.3.1-.5,0-.4-.2-.5-.3-.3-.6-.4c-.2-.1-.5-.3-.8-.4-.2,0-.4-.2-.6-.3-.2-.1-.4-.3-.7-.5s-.4-.4-.5-.7c-.1-.3-.2-.6-.2-1s.1-.9.3-1.3.6-.6,1-.8c.4-.2.9-.3,1.5-.3s.8,0,1.2.2c.4,0,.8.2,1.2.4l-.6,1.4c-.4-.2-.7-.3-1-.4-.3,0-.6-.1-.9-.1s-.4,0-.6,0c-.2,0-.3.2-.4.3s-.1.3-.1.4,0,.4.2.5.3.3.5.4c.2.1.5.3.9.4.4.2.8.4,1.1.6s.5.5.7.8.2.7.2,1.1h0Z"/>
    <path class="st1" d="M97.2,73.3c.6,0,1.1.1,1.5.3.4.2.8.6,1,1,.2.4.3,1,.3,1.6v.8h-4.1c0,.5.2.9.4,1.2.3.3.7.4,1.2.4s.8,0,1.1-.1c.3,0,.7-.2,1-.4v1.3c-.3.2-.6.3-1,.3s-.8.1-1.3.1-1.2-.1-1.7-.4c-.5-.2-.9-.6-1.2-1.1-.3-.5-.4-1.1-.4-1.8s.1-1.4.4-1.9.6-.9,1.1-1.1,1-.4,1.6-.4h0ZM97.2,74.5c-.3,0-.6.1-.8.3-.2.2-.3.6-.4,1h2.4c0-.3,0-.5-.1-.7,0-.2-.2-.4-.4-.5s-.4-.2-.7-.2Z"/>
    <path class="st1" d="M104.3,79.9c-.6,0-1.2-.1-1.6-.3-.4-.2-.8-.6-1-1.1s-.3-1.1-.3-1.9.1-1.4.4-1.9c.3-.5.6-.8,1.1-1.1.5-.2,1-.3,1.6-.3s.8,0,1.1.1.6.2.8.3l-.5,1.3c-.3-.1-.5-.2-.8-.3s-.5-.1-.7-.1-.6,0-.8.2-.3.4-.4.6-.2.6-.2,1.1,0,.8.2,1.1c0,.3.3.5.5.6s.4.2.7.2.7,0,1-.2.6-.2.8-.4v1.5c-.3.2-.5.3-.8.4-.3,0-.7.1-1.1.1Z"/>
    <path class="st1" d="M111.6,73.3c0,0,.2,0,.3,0,.1,0,.2,0,.3,0v1.6c-.2,0-.3,0-.4,0s-.2,0-.3,0c-.2,0-.4,0-.7,0-.2,0-.4.2-.6.3-.2.1-.3.3-.4.5s-.2.5-.2.8v3.2h-1.7v-6.4h1.3l.3,1.1h0c.1-.2.3-.4.5-.6s.4-.3.7-.4.5-.2.8-.2h0Z"/>
    <path class="st1" d="M115.9,73.3c.6,0,1.1.1,1.5.3.4.2.8.6,1,1,.2.4.3,1,.3,1.6v.8h-4.1c0,.5.2.9.4,1.2.3.3.7.4,1.2.4s.8,0,1.1-.1c.3,0,.7-.2,1-.4v1.3c-.3.2-.6.3-1,.3s-.8.1-1.3.1-1.2-.1-1.7-.4c-.5-.2-.9-.6-1.2-1.1-.3-.5-.4-1.1-.4-1.8s.1-1.4.4-1.9.6-.9,1.1-1.1,1-.4,1.6-.4h0ZM116,74.5c-.3,0-.6.1-.8.3-.2.2-.3.6-.4,1h2.4c0-.3,0-.5-.1-.7,0-.2-.2-.4-.4-.5s-.4-.2-.7-.2Z"/>
    <path class="st1" d="M123.2,78.5c.2,0,.4,0,.6,0s.4,0,.5-.1v1.3c-.2,0-.4.2-.7.2-.3,0-.6,0-.9,0s-.7,0-1-.2c-.3-.1-.5-.3-.7-.7s-.3-.7-.3-1.3v-3.1h-.8v-.7l1-.6.5-1.3h1.1v1.4h1.8v1.3h-1.8v3.1c0,.2,0,.4.2.5s.3.2.6.2h0Z"/>
    <path class="st1" d="M128.4,73.3c.9,0,1.5.2,2,.6.5.4.7.9.7,1.7v4.3h-1.2l-.3-.9h0c-.2.2-.4.4-.6.6s-.4.3-.7.3c-.2,0-.6,0-.9,0s-.7,0-1-.2-.5-.4-.7-.7c-.2-.3-.3-.7-.3-1.1,0-.7.2-1.2.7-1.5.5-.3,1.2-.5,2.1-.5h1.1v-.3c0-.3,0-.6-.3-.7-.2-.2-.4-.2-.7-.2s-.6,0-.9.1c-.3,0-.6.2-.9.3l-.6-1.2c.3-.2.7-.3,1.1-.4s.8-.2,1.3-.2h0ZM128.6,76.8c-.6,0-.9.1-1.2.3-.2.2-.3.4-.3.7s0,.4.2.6.4.2.6.2c.4,0,.7-.1,1-.3.3-.2.4-.5.4-.9v-.5h-.7s0,0,0,0Z"/>
    <path class="st1" d="M136.6,73.3c0,0,.2,0,.3,0,.1,0,.2,0,.3,0v1.6c-.2,0-.3,0-.4,0s-.2,0-.3,0c-.2,0-.4,0-.7,0-.2,0-.4.2-.6.3-.2.1-.3.3-.4.5-.1.2-.1.5-.1.8v3.2h-1.7v-6.4h1.3l.3,1.1h0c.1-.2.3-.4.5-.6s.4-.3.6-.4.5-.2.8-.2h0Z"/>
    <path class="st1" d="M140.4,79.8h-1.7v-6.4h1.7v6.4ZM142,70.9c-.1.1-.2.2-.4.4s-.4.3-.6.5-.4.3-.6.5c-.2.2-.4.3-.5.4h-1.2v-.2c.1-.2.3-.3.4-.5s.3-.4.5-.6.3-.4.4-.6h1.9c0,.1,0,.1,0,.1Z"/>
    <path class="st1" d="M145,73.3c.9,0,1.5.2,2,.6.5.4.7.9.7,1.7v4.3h-1.2l-.3-.9h0c-.2.2-.4.4-.6.6s-.4.3-.7.3c-.2,0-.6,0-.9,0s-.7,0-1-.2-.5-.4-.7-.7c-.2-.3-.3-.7-.3-1.1,0-.7.2-1.2.7-1.5.5-.3,1.2-.5,2.1-.5h1.1v-.3c0-.3,0-.6-.3-.7-.2-.2-.4-.2-.7-.2s-.6,0-.9.1c-.3,0-.6.2-.9.3l-.6-1.2c.3-.2.7-.3,1.1-.4s.9-.2,1.3-.2h0ZM145.3,76.8c-.6,0-.9.1-1.2.3-.2.2-.3.4-.3.7s0,.4.2.6.4.2.6.2c.4,0,.7-.1.9-.3s.4-.5.4-.9v-.5s-.7,0-.7,0Z"/>
    <path class="st1" d="M155,79.9c-.7,0-1.3-.3-1.7-.8-.4-.6-.7-1.4-.7-2.5s.2-1.9.7-2.5c.4-.6,1-.8,1.8-.8s.6,0,.8.1c.2,0,.4.2.6.3s.3.3.4.5h0c0-.1,0-.3,0-.5,0-.2,0-.5,0-.7v-2.1h1.7v8.9h-1.3l-.3-.8h0c-.1.2-.2.3-.4.5s-.4.3-.6.3c-.2,0-.5.1-.8.1h0ZM155.6,78.5c.5,0,.8-.1,1-.4.2-.3.3-.7.3-1.3v-.2c0-.6-.1-1.1-.3-1.4-.2-.3-.5-.5-1.1-.5s-.7.2-.9.5-.3.8-.3,1.4.1,1.1.3,1.4c.2.3.5.5.9.5h0Z"/>
    <path class="st1" d="M163.2,73.3c.6,0,1.1.1,1.5.3.4.2.8.6,1,1,.2.4.4,1,.4,1.6v.8h-4.1c0,.5.2.9.4,1.2.3.3.7.4,1.1.4s.8,0,1.1-.1c.3,0,.7-.2,1-.4v1.3c-.3.2-.6.3-1,.3s-.8.1-1.3.1-1.2-.1-1.7-.4c-.5-.2-.9-.6-1.2-1.1s-.4-1.1-.4-1.8.1-1.4.4-1.9.6-.9,1.1-1.1,1-.4,1.6-.4h0ZM163.3,74.5c-.3,0-.6.1-.8.3-.2.2-.4.6-.4,1h2.4c0-.3,0-.5-.1-.7,0-.2-.2-.4-.4-.5s-.4-.2-.7-.2h0Z"/>
    <path class="st1" d="M174.7,72.8c-.3,0-.6,0-.9.2s-.5.3-.7.6c-.2.2-.3.5-.4.9s-.1.7-.1,1.2,0,1.1.2,1.5c.1.4.4.7.7.9.3.2.7.3,1.2.3s.7,0,1-.1c.3,0,.7-.2,1.1-.3v1.5c-.4.2-.7.3-1.1.3s-.8,0-1.2,0c-.9,0-1.6-.2-2.1-.5-.6-.3-1-.8-1.2-1.5-.3-.6-.4-1.4-.4-2.2s0-1.2.3-1.7.4-1,.8-1.4.7-.7,1.2-.9,1.1-.3,1.7-.3.8,0,1.2.2c.4,0,.8.2,1.2.4l-.6,1.4c-.3-.2-.6-.3-.9-.4-.3-.1-.6-.2-.9-.2h0Z"/>
    <path class="st1" d="M179.6,70.9c.3,0,.5,0,.7.2s.3.3.3.7,0,.5-.3.7-.4.2-.7.2-.5,0-.7-.2c-.2-.1-.3-.3-.3-.7s0-.6.3-.7c.2-.1.4-.2.7-.2ZM180.5,73.4v6.4h-1.7v-6.4h1.7Z"/>
    <path class="st1" d="M185.2,73.3c.6,0,1.1.1,1.5.3.4.2.8.6,1,1,.2.4.4,1,.4,1.6v.8h-4.1c0,.5.2.9.4,1.2.3.3.7.4,1.1.4s.8,0,1.1-.1c.3,0,.7-.2,1-.4v1.3c-.3.2-.6.3-1,.3s-.8.1-1.3.1-1.2-.1-1.7-.4c-.5-.2-.9-.6-1.2-1.1s-.4-1.1-.4-1.8.1-1.4.4-1.9.6-.9,1.1-1.1,1-.4,1.6-.4h0ZM185.2,74.5c-.3,0-.6.1-.8.3-.2.2-.4.6-.4,1h2.4c0-.3,0-.5-.1-.7,0-.2-.2-.4-.4-.5s-.4-.2-.7-.2h0Z"/>
    <path class="st1" d="M193.3,73.3c.7,0,1.2.2,1.6.6.4.4.6,1,.6,1.8v4.2h-1.7v-3.7c0-.5,0-.8-.2-1s-.4-.3-.8-.3c-.5,0-.9.2-1.1.5s-.3.9-.3,1.6v3h-1.7v-6.4h1.3l.2.8h0c.1-.2.3-.4.5-.5.2-.1.4-.2.7-.3.2,0,.5,0,.8,0h0Z"/>
    <path class="st1" d="M200.2,79.9c-.6,0-1.2-.1-1.6-.3-.4-.2-.8-.6-1-1.1s-.4-1.1-.4-1.9.1-1.4.4-1.9c.3-.5.6-.8,1.1-1.1.5-.2,1-.3,1.6-.3s.8,0,1.1.1c.3,0,.6.2.9.3l-.5,1.3c-.3-.1-.5-.2-.8-.3s-.5-.1-.7-.1-.6,0-.8.2-.4.4-.4.6c-.1.3-.1.6-.1,1.1s0,.8.2,1.1c.1.3.3.5.5.6.2.1.4.2.7.2s.7,0,1-.2.6-.2.8-.4v1.5c-.3.2-.5.3-.8.4-.3,0-.7.1-1.1.1h0Z"/>
    <path class="st1" d="M204.7,70.9c.3,0,.5,0,.7.2s.3.3.3.7,0,.5-.3.7-.4.2-.7.2-.5,0-.7-.2c-.2-.1-.3-.3-.3-.7s0-.6.3-.7c.2-.1.4-.2.7-.2ZM205.6,73.4v6.4h-1.7v-6.4h1.7Z"/>
    <path class="st1" d="M210.3,73.3c.9,0,1.5.2,2,.6.5.4.7.9.7,1.7v4.3h-1.2l-.3-.9h0c-.2.2-.4.4-.6.6s-.4.3-.7.3c-.2,0-.6,0-.9,0s-.7,0-1-.2-.5-.4-.7-.7c-.2-.3-.3-.7-.3-1.1,0-.7.2-1.2.7-1.5.5-.3,1.2-.5,2.1-.5h1.1v-.3c0-.3,0-.6-.3-.7-.2-.2-.4-.2-.7-.2s-.6,0-.9.1c-.3,0-.6.2-.9.3l-.6-1.2c.3-.2.7-.3,1.1-.4s.9-.2,1.3-.2h0ZM210.5,76.8c-.6,0-.9.1-1.2.3-.2.2-.3.4-.3.7s0,.4.2.6.4.2.6.2c.4,0,.7-.1.9-.3s.4-.5.4-.9v-.5s-.7,0-.7,0Z"/>
    <path class="st1" d="M216.6,78.5c0,.3-.2.6-.3.9s-.2.6-.4.9c-.1.3-.2.6-.4.9h-1.2c0-.3.1-.6.2-1s.1-.7.2-1,.1-.6.1-.9h1.7c0,.1,0,.1,0,.1Z"/>
    <path class="st1" d="M228.8,79.8h-1.8v-3.6h-3.3v3.6h-1.8v-8.3h1.8v3.3h3.3v-3.3h1.8v8.3Z"/>
    <path class="st1" d="M236.8,73.4v6.4h-1.3l-.2-.8h0c-.1.2-.3.4-.5.5-.2.1-.4.2-.7.3-.2,0-.5,0-.8,0-.4,0-.9,0-1.2-.2s-.6-.4-.8-.8c-.2-.3-.3-.8-.3-1.3v-4.2h1.7v3.7c0,.4,0,.8.2,1s.4.3.8.3.6,0,.8-.2c.2-.2.3-.4.4-.7s.1-.7.1-1.2v-3h1.7,0Z"/>
    <path class="st1" d="M246.4,73.3c.7,0,1.3.2,1.6.6.4.4.6,1,.6,1.8v4.2h-1.7v-3.7c0-.5,0-.8-.2-1-.2-.2-.4-.3-.7-.3s-.8.2-1,.5c-.2.3-.3.8-.3,1.4v3.2h-1.7v-3.7c0-.3,0-.6-.1-.8,0-.2-.2-.4-.3-.5s-.3-.2-.5-.2c-.3,0-.6,0-.8.2s-.3.4-.4.7-.1.7-.1,1.2v3h-1.7v-6.4h1.3l.2.8h0c.1-.2.3-.4.5-.5.2-.1.4-.2.6-.3s.5,0,.7,0c.5,0,.9,0,1.2.2s.6.4.8.7h.1c.2-.3.5-.6.8-.7.4-.2.7-.2,1.1-.2h0Z"/>
    <path class="st1" d="M253.2,73.3c.9,0,1.5.2,2,.6.5.4.7.9.7,1.7v4.3h-1.2l-.3-.9h0c-.2.2-.4.4-.6.6s-.4.3-.7.3c-.2,0-.6,0-.9,0s-.7,0-1-.2-.5-.4-.7-.7c-.2-.3-.3-.7-.3-1.1,0-.7.2-1.2.7-1.5.5-.3,1.2-.5,2.1-.5h1.1v-.3c0-.3,0-.6-.3-.7-.2-.2-.4-.2-.7-.2s-.6,0-.9.1c-.3,0-.6.2-.9.3l-.6-1.2c.3-.2.7-.3,1.1-.4s.9-.2,1.3-.2h0ZM253.5,76.8c-.6,0-.9.1-1.2.3-.2.2-.3.4-.3.7s0,.4.2.6.4.2.6.2c.4,0,.7-.1.9-.3s.4-.5.4-.9v-.5s-.7,0-.7,0Z"/>
    <path class="st1" d="M261.5,73.3c.7,0,1.2.2,1.6.6.4.4.6,1,.6,1.8v4.2h-1.7v-3.7c0-.5,0-.8-.2-1s-.4-.3-.8-.3c-.5,0-.9.2-1.1.5-.2.4-.3.9-.3,1.6v3h-1.7v-6.4h1.3l.2.8h0c.1-.2.3-.4.5-.5.2-.1.4-.2.7-.3.2,0,.5,0,.8,0h0Z"/>
    <path class="st1" d="M266.7,70.9c.3,0,.5,0,.7.2s.3.3.3.7,0,.5-.3.7-.4.2-.7.2-.5,0-.7-.2c-.2-.1-.3-.3-.3-.7s0-.6.3-.7c.2-.1.4-.2.7-.2ZM267.6,73.4v6.4h-1.7v-6.4h1.7Z"/>
    <path class="st1" d="M271.6,79.9c-.7,0-1.3-.3-1.7-.8-.5-.6-.7-1.4-.7-2.5s.2-1.9.7-2.5c.5-.6,1-.8,1.8-.8s.6,0,.8.1c.2,0,.4.2.6.3s.3.3.4.5h0c0-.1,0-.3,0-.5,0-.2,0-.5,0-.7v-2.1h1.7v8.9h-1.3l-.3-.8h0c-.1.2-.2.3-.4.5s-.4.3-.6.3-.5.1-.8.1h0ZM272.2,78.5c.5,0,.8-.1,1-.4.2-.3.3-.7.3-1.3v-.2c0-.6-.1-1.1-.3-1.4s-.5-.5-1.1-.5-.7.2-.9.5-.3.8-.3,1.4.1,1.1.3,1.4c.2.3.5.5.9.5h0Z"/>
    <path class="st1" d="M279.9,73.3c.9,0,1.5.2,2,.6.5.4.7.9.7,1.7v4.3h-1.2l-.3-.9h0c-.2.2-.4.4-.6.6-.2.2-.4.3-.7.3-.2,0-.5,0-.9,0s-.7,0-1-.2c-.3-.1-.5-.4-.7-.7s-.3-.7-.3-1.1c0-.7.2-1.2.7-1.5s1.2-.5,2.1-.5h1.1v-.3c0-.3,0-.6-.3-.7s-.4-.2-.7-.2-.6,0-.9.1-.6.2-.9.3l-.6-1.2c.3-.2.7-.3,1.1-.4s.9-.2,1.3-.2h0ZM280.1,76.8c-.6,0-1,.1-1.2.3-.2.2-.3.4-.3.7s0,.4.2.6c.2.1.4.2.6.2.4,0,.7-.1,1-.3s.4-.5.4-.9v-.5h-.7s0,0,0,0Z"/>
    <path class="st1" d="M286.6,79.9c-.7,0-1.3-.3-1.7-.8-.5-.6-.7-1.4-.7-2.5s.2-1.9.7-2.5c.5-.6,1-.8,1.8-.8s.6,0,.8.1c.2,0,.4.2.6.3s.3.3.4.5h0c0-.1,0-.3,0-.5,0-.2,0-.5,0-.7v-2.1h1.7v8.9h-1.3l-.3-.8h0c-.1.2-.2.3-.4.5s-.4.3-.6.3c-.2,0-.5.1-.8.1h0ZM287.2,78.5c.5,0,.8-.1,1-.4s.3-.7.3-1.3v-.2c0-.6-.1-1.1-.3-1.4s-.5-.5-1.1-.5-.7.2-.9.5-.3.8-.3,1.4.1,1.1.3,1.4c.2.3.5.5.9.5h0Z"/>
    <path class="st1" d="M294.8,73.3c.6,0,1.1.1,1.5.3.4.2.8.6,1,1,.2.4.4,1,.4,1.6v.8h-4.1c0,.5.2.9.4,1.2.3.3.7.4,1.1.4s.8,0,1.1-.1c.3,0,.7-.2,1-.4v1.3c-.3.2-.6.3-1,.3-.4,0-.8.1-1.3.1s-1.2-.1-1.7-.4c-.5-.2-.9-.6-1.2-1.1s-.4-1.1-.4-1.8.1-1.4.4-1.9.6-.9,1.1-1.1,1-.4,1.6-.4h0ZM294.8,74.5c-.3,0-.6.1-.8.3-.2.2-.4.6-.4,1h2.4c0-.3,0-.5-.1-.7,0-.2-.2-.4-.4-.5s-.4-.2-.7-.2Z"/>
    <path class="st1" d="M303.8,77.9c0,.4-.1.8-.3,1.1-.2.3-.5.5-.9.7-.4.2-.9.2-1.5.2s-.8,0-1.1,0-.6-.2-1-.3v-1.4c.3.2.7.3,1.1.4s.8.2,1,.2.6,0,.7-.2.2-.2.2-.4,0-.2,0-.3c0,0-.2-.2-.4-.3s-.5-.2-.9-.4c-.4-.2-.7-.3-1-.5s-.5-.4-.6-.6c-.1-.2-.2-.5-.2-.9,0-.6.2-1,.7-1.3.5-.3,1.1-.4,1.8-.4s.8,0,1.1.1c.4,0,.7.2,1.1.4l-.5,1.2c-.3-.1-.6-.2-.9-.3-.3,0-.6-.1-.9-.1s-.5,0-.6,0c-.1,0-.2.2-.2.3s0,.2.1.3c0,0,.2.2.4.3.2,0,.5.2.9.4.4.2.7.3,1,.5s.5.4.6.6.2.6.2.9h0Z"/>
    <path class="st1" d="M307.1,78.5c0,.3-.2.6-.3.9-.1.3-.2.6-.4.9-.1.3-.2.6-.4.9h-1.2c0-.3.1-.6.2-1,0-.3.1-.7.2-1s.1-.6.1-.9h1.7c0,.1,0,.1,0,.1Z"/>
    <path class="st1" d="M315.6,79.8h-1.8v-6.9h-2.3v-1.5h6.3v1.5h-2.3v6.9h0Z"/>
    <path class="st1" d="M321,73.3c.6,0,1.1.1,1.5.3.4.2.8.6,1,1,.2.4.4,1,.4,1.6v.8h-4.1c0,.5.2.9.4,1.2.3.3.7.4,1.1.4s.8,0,1.1-.1c.3,0,.7-.2,1-.4v1.3c-.3.2-.6.3-1,.3-.4,0-.8.1-1.3.1s-1.2-.1-1.7-.4c-.5-.2-.9-.6-1.2-1.1s-.4-1.1-.4-1.8.1-1.4.4-1.9.6-.9,1.1-1.1,1-.4,1.6-.4h0ZM321.1,74.5c-.3,0-.6.1-.8.3-.2.2-.4.6-.4,1h2.4c0-.3,0-.5-.1-.7,0-.2-.2-.4-.4-.5s-.4-.2-.7-.2Z"/>
    <path class="st1" d="M328.2,79.9c-.6,0-1.2-.1-1.6-.3-.4-.2-.8-.6-1-1.1-.2-.5-.4-1.1-.4-1.9s.1-1.4.4-1.9c.3-.5.6-.8,1.1-1.1.5-.2,1-.3,1.6-.3s.8,0,1.1.1.6.2.9.3l-.5,1.3c-.3-.1-.5-.2-.8-.3s-.5-.1-.7-.1-.6,0-.8.2-.4.4-.5.6-.1.6-.1,1.1,0,.8.2,1.1c.1.3.3.5.5.6s.5.2.7.2.7,0,1-.2.5-.2.8-.4v1.5c-.3.2-.5.3-.8.4-.3,0-.7.1-1.1.1h0Z"/>
    <path class="st1" d="M335.4,73.3c.7,0,1.2.2,1.6.6.4.4.6,1,.6,1.8v4.2h-1.7v-3.7c0-.5,0-.8-.2-1s-.4-.3-.8-.3c-.5,0-.9.2-1.1.5-.2.4-.3.9-.3,1.6v3h-1.7v-6.4h1.3l.2.8h0c.1-.2.3-.4.5-.5s.4-.2.7-.3c.2,0,.5,0,.8,0h0Z"/>
    <path class="st1" d="M345.5,76.6c0,.5,0,1-.2,1.4-.1.4-.4.8-.6,1.1-.3.3-.6.5-1,.6-.4.1-.8.2-1.3.2s-.9,0-1.2-.2-.7-.4-1-.6c-.3-.3-.5-.6-.6-1.1-.1-.4-.2-.9-.2-1.4s.1-1.3.4-1.8c.2-.5.6-.9,1.1-1.1s1-.4,1.7-.4,1.1.1,1.6.4.8.6,1.1,1.1.4,1.1.4,1.8h0ZM341.1,76.6c0,.4,0,.8.1,1.1,0,.3.2.5.4.6s.5.2.8.2.6,0,.8-.2c.2-.1.3-.4.4-.6,0-.3.1-.6.1-1.1s0-.8-.1-1.1c0-.3-.2-.5-.4-.6s-.5-.2-.8-.2c-.5,0-.8.2-1,.5-.2.3-.3.8-.3,1.4h0Z"/>
    <path class="st1" d="M349,79.8h-1.7v-8.9h1.7v8.9Z"/>
    <path class="st1" d="M356.8,76.6c0,.5,0,1-.2,1.4-.1.4-.4.8-.6,1.1-.3.3-.6.5-1,.6-.4.1-.8.2-1.3.2s-.9,0-1.2-.2-.7-.4-1-.6c-.3-.3-.5-.6-.6-1.1-.1-.4-.2-.9-.2-1.4s.1-1.3.4-1.8c.2-.5.6-.9,1.1-1.1s1-.4,1.7-.4,1.1.1,1.6.4.8.6,1.1,1.1.4,1.1.4,1.8h0ZM352.4,76.6c0,.4,0,.8.1,1.1,0,.3.2.5.4.6s.5.2.8.2.6,0,.8-.2c.2-.1.3-.4.4-.6,0-.3.1-.6.1-1.1s0-.8-.1-1.1c0-.3-.2-.5-.4-.6s-.5-.2-.8-.2c-.5,0-.8.2-1,.5-.2.3-.3.8-.3,1.4h0Z"/>
    <path class="st1" d="M360.5,73.3c.4,0,.7,0,1,.2s.6.4.8.7h0v-.8h1.6v6.4c0,.6-.1,1.1-.4,1.5-.2.4-.6.7-1.1.9s-1.1.3-1.8.3-.9,0-1.3,0-.8-.2-1.1-.3v-1.4c.4.2.8.3,1.2.4.4,0,.8.1,1.3.1s.8-.1,1-.4.3-.6.3-1.1h0c0-.3,0-.4,0-.5s0-.3,0-.4h0c-.2.3-.5.6-.8.7s-.6.2-1,.2c-.8,0-1.4-.3-1.8-.9-.4-.6-.6-1.4-.6-2.4s.2-1.9.7-2.4c.4-.6,1-.9,1.8-.9h0ZM361.1,74.7c-.3,0-.5,0-.7.2-.2.1-.3.4-.4.6s-.1.6-.1,1.1c0,.6.1,1.1.3,1.4s.5.5,1,.5.4,0,.6,0c.2,0,.3-.2.4-.3.1-.1.2-.3.2-.5,0-.2,0-.5,0-.8v-.2c0-.5,0-.8-.1-1.1,0-.3-.2-.5-.4-.6-.2-.1-.5-.2-.8-.2h0Z"/>
    <path class="st1" d="M367.9,79.8h-1.7v-6.4h1.7v6.4ZM369.5,70.9c-.1.1-.2.2-.4.4s-.4.3-.6.5-.4.3-.6.5c-.2.2-.4.3-.5.4h-1.2v-.2c.1-.2.3-.3.4-.5s.3-.4.5-.6.3-.4.4-.6h2c0,.1,0,.1,0,.1Z"/>
    <path class="st1" d="M372.5,73.3c.9,0,1.5.2,2,.6.5.4.7.9.7,1.7v4.3h-1.2l-.3-.9h0c-.2.2-.4.4-.6.6-.2.2-.4.3-.7.3-.2,0-.5,0-.9,0s-.7,0-1-.2c-.3-.1-.5-.4-.7-.7-.2-.3-.3-.7-.3-1.1,0-.7.2-1.2.7-1.5s1.2-.5,2.1-.5h1.1v-.3c0-.3,0-.6-.3-.7s-.4-.2-.7-.2-.6,0-.9.1-.6.2-.9.3l-.6-1.2c.3-.2.7-.3,1.1-.4s.9-.2,1.3-.2h0ZM372.8,76.8c-.6,0-1,.1-1.2.3-.2.2-.3.4-.3.7s0,.4.2.6c.2.1.4.2.6.2.4,0,.7-.1,1-.3s.4-.5.4-.9v-.5h-.7s0,0,0,0Z"/>
    <path class="st1" d="M383.1,73.3c.6,0,1.1.1,1.5.3.4.2.8.6,1,1,.2.4.4,1,.4,1.6v.8h-4.1c0,.5.2.9.4,1.2.3.3.7.4,1.1.4s.8,0,1.1-.1c.3,0,.7-.2,1-.4v1.3c-.3.2-.6.3-1,.3-.4,0-.8.1-1.3.1s-1.2-.1-1.7-.4c-.5-.2-.9-.6-1.2-1.1s-.4-1.1-.4-1.8.1-1.4.4-1.9.6-.9,1.1-1.1,1-.4,1.6-.4h0ZM383.1,74.5c-.3,0-.6.1-.8.3-.2.2-.4.6-.4,1h2.4c0-.3,0-.5-.1-.7,0-.2-.2-.4-.4-.5s-.4-.2-.7-.2Z"/>
    <path class="st1" d="M394.2,79.8h-3.8v-1l1-.5v-5.4l-1-.5v-1h3.8v1l-1,.5v5.4l1,.5v1Z"/>
    <path class="st1" d="M399.3,73.3c.7,0,1.2.2,1.6.6.4.4.6,1,.6,1.8v4.2h-1.7v-3.7c0-.5,0-.8-.2-1s-.4-.3-.8-.3c-.5,0-.9.2-1.1.5-.2.4-.3.9-.3,1.6v3h-1.7v-6.4h1.3l.2.8h0c.1-.2.3-.4.5-.5s.4-.2.7-.3c.2,0,.5,0,.8,0h0Z"/>
    <path class="st1" d="M407.2,73.3c.7,0,1.2.2,1.6.6.4.4.6,1,.6,1.8v4.2h-1.7v-3.7c0-.5,0-.8-.2-1s-.4-.3-.8-.3c-.5,0-.9.2-1.1.5-.2.4-.3.9-.3,1.6v3h-1.7v-6.4h1.3l.2.8h0c.1-.2.3-.4.5-.5s.4-.2.7-.3c.2,0,.5,0,.8,0h0Z"/>
    <path class="st1" d="M417.3,76.6c0,.5,0,1-.2,1.4-.1.4-.4.8-.6,1.1-.3.3-.6.5-1,.6-.4.1-.8.2-1.3.2s-.9,0-1.2-.2-.7-.4-1-.6c-.3-.3-.5-.6-.6-1.1-.1-.4-.2-.9-.2-1.4s.1-1.3.4-1.8c.2-.5.6-.9,1.1-1.1s1-.4,1.7-.4,1.1.1,1.6.4.8.6,1.1,1.1.4,1.1.4,1.8h0ZM412.9,76.6c0,.4,0,.8.1,1.1,0,.3.2.5.4.6s.5.2.8.2.6,0,.8-.2c.2-.1.3-.4.4-.6,0-.3.1-.6.1-1.1s0-.8-.1-1.1c0-.3-.2-.5-.4-.6s-.5-.2-.8-.2c-.5,0-.8.2-1,.5-.2.3-.3.8-.3,1.4h0Z"/>
    <path class="st1" d="M420.3,79.8l-2.4-6.4h1.8l1.2,3.6c0,.1,0,.3.1.4s0,.3,0,.5,0,.3,0,.4h0c0-.1,0-.3,0-.4,0-.2,0-.3,0-.4s0-.3.1-.4l1.2-3.6h1.8l-2.4,6.4s-1.8,0-1.8,0Z"/>
    <path class="st1" d="M428.3,73.3c.9,0,1.5.2,2,.6.5.4.7.9.7,1.7v4.3h-1.2l-.3-.9h0c-.2.2-.4.4-.6.6-.2.2-.4.3-.7.3-.2,0-.5,0-.9,0s-.7,0-1-.2c-.3-.1-.5-.4-.7-.7s-.3-.7-.3-1.1c0-.7.2-1.2.7-1.5s1.2-.5,2.1-.5h1.1v-.3c0-.3,0-.6-.3-.7s-.4-.2-.7-.2-.6,0-.9.1-.6.2-.9.3l-.6-1.2c.3-.2.7-.3,1.1-.4s.9-.2,1.3-.2h0ZM428.5,76.8c-.6,0-1,.1-1.2.3-.2.2-.3.4-.3.7s0,.4.2.6c.2.1.4.2.6.2.4,0,.7-.1,1-.3s.4-.5.4-.9v-.5h-.7s0,0,0,0Z"/>
    <path class="st1" d="M435.6,79.9c-.6,0-1.2-.1-1.6-.3-.4-.2-.8-.6-1-1.1-.2-.5-.4-1.1-.4-1.9s.1-1.4.4-1.9c.3-.5.6-.8,1.1-1.1.5-.2,1-.3,1.6-.3s.8,0,1.1.1.6.2.9.3l-.5,1.3c-.3-.1-.5-.2-.8-.3s-.5-.1-.7-.1-.6,0-.8.2-.4.4-.5.6-.1.6-.1,1.1,0,.8.2,1.1c.1.3.3.5.5.6s.5.2.7.2.7,0,1-.2.5-.2.8-.4v1.5c-.3.2-.5.3-.8.4-.3,0-.7.1-1.1.1h0Z"/>
    <path class="st1" d="M440.1,70.9c.3,0,.5,0,.7.2s.3.3.3.7,0,.5-.3.7-.4.2-.7.2-.5,0-.7-.2c-.2-.1-.3-.3-.3-.7s0-.6.3-.7c.2-.1.4-.2.7-.2ZM441,73.4v6.4h-1.7v-6.4h1.7Z"/>
    <path class="st1" d="M448.8,76.6c0,.5,0,1-.2,1.4-.1.4-.4.8-.6,1.1-.3.3-.6.5-1,.6-.4.1-.8.2-1.3.2s-.9,0-1.2-.2c-.4-.1-.7-.4-1-.6-.3-.3-.5-.6-.6-1.1-.1-.4-.2-.9-.2-1.4s.1-1.3.4-1.8c.2-.5.6-.9,1.1-1.1s1-.4,1.7-.4,1.1.1,1.6.4.8.6,1.1,1.1.4,1.1.4,1.8h0ZM444.4,76.6c0,.4,0,.8.1,1.1,0,.3.2.5.4.6s.5.2.8.2.6,0,.8-.2c.2-.1.3-.4.4-.6,0-.3.1-.6.1-1.1s0-.8-.1-1.1c0-.3-.2-.5-.4-.6s-.5-.2-.8-.2c-.5,0-.8.2-1,.5-.2.3-.3.8-.3,1.4h0ZM448.2,70.9c-.1.1-.2.2-.4.4s-.4.3-.6.5-.4.3-.6.5c-.2.2-.4.3-.5.4h-1.2v-.2c.1-.2.3-.3.4-.5s.3-.4.5-.6.3-.4.4-.6h2c0,.1,0,.1,0,.1Z"/>
    <path class="st1" d="M454.1,73.3c.7,0,1.2.2,1.6.6.4.4.6,1,.6,1.8v4.2h-1.7v-3.7c0-.5,0-.8-.2-1s-.4-.3-.8-.3c-.5,0-.9.2-1.1.5-.2.4-.3.9-.3,1.6v3h-1.7v-6.4h1.3l.2.8h0c.1-.2.3-.4.5-.5s.4-.2.7-.3c.2,0,.5,0,.8,0h0Z"/>
    <path class="st2" d="M86.1,40.8c0-10.7,5.6-19.9,18.5-20.7.7,0,4.7-.2,9.3,1.5,2.3,1,4.2,2.5,4.9,4.4.2.4.3.8.4,1.2,0,.5.1.9.2,1.2.2,2.4-.2,3.2-1.8,3.3-.3,0-.7,0-.9,0-2.3,0-2.4-.5-3-2.6-.3-1.3-1-2.3-1.9-3.1-.7-.5-1.4-.9-2.1-1.2-4.5-1.8-11.2-.1-13.2,4.4-.5,1.1-1.1,2.3-1.5,3.4,0,.3-.1.5-.2.8,0,.1,0,.2,0,.3h0c-.3,1.3-.4,2.8-.4,4.2,0,9.3,5.1,16.6,13.3,16.6s9.5-3.9,11.1-7.3c.4-.8.8-1.4,1.4-1.4s1,1,1,1.8c0,1.6-.5,3.6-1.7,5.5-2.4,3.9-7.4,7.7-14.8,7.7-11.8,0-18.6-9.4-18.6-20.2h0Z"/>
    <path class="st2" d="M134.1,42.3v8.8c0,1.8-.1,3.4.7,4.8.7,1.4,2.9,3.4.3,4.5-1.7.5-2.8.2-4.5.2-1.6-.1-6.8.9-5.6-2.2.7-1.2.9-2.2,1.4-3.5.6-1.9.3-4.3.4-6.6-.2-2.8.4-7.2-.3-9.6-.9-2.1-4.6-3.6-.7-5.3,1.9-.8,3.9-1.7,5.9-2.2,3.4-.4,2.6,3,2.6,5.5,0,1.7-.1,3.9-.1,5.4h0ZM131.5,19.4c1.9,0,3.6,1.5,3.5,3.4,0,3.1-3.6,5.6-6.7,5.1-2.4-.2-3.1-2.9-2.1-4.8.8-2,3-3.7,5.2-3.7h.1Z"/>
    <path class="st2" d="M165.6,49.9c.5,0,.8.5.8,1.5,0,3.5-4.1,9.5-12.4,9.5s-14-6-14-14.5,5.9-15.8,14.7-15.8,11.2,5.2,11.2,10.4-.9,2.8-2.1,3.5c-3.4,2.1-11.1,2.8-15.3,2.9-.6,0-.8.1-.8.5,0,2.5,2.2,7.2,8.2,7.2s7-2.2,8.6-4.6c.3-.4.7-.8,1.1-.8h0ZM147,42.7c0,.9.3,1.4,1,1.4,2.2,0,8.2-.8,10.4-2.3.7-.5,1-1,1-1.8,0-3.2-2.3-5.7-5.3-5.7s-7,4.1-7,8.4h0Z"/>
    <path class="st2" d="M199.8,55c.2,2.2,3.4,5-1.2,5.9-1.9.2-3,0-4.9,0-2.4.1-2.6-1-1.9-3.5.8-2.8.4-5.7.6-8.7.2-3.2.2-7.2-1-9.4-1.5-3.5-6.2-3.8-9.1-1.4-1.9,1.5-2.8,3.8-2.6,6.2v7.8c0,1.5,0,2.9.6,4.2.6,1.3,1.2,2.2,1.1,3.4-.2.8-.4,1.1-1.2,1.2-2.5.2-4.9,0-7.4,0-1,0-1.8-.2-2-1.5,0-1.3,1.2-2.9,1.6-4.5.6-3.3.1-7,.3-10.5-.1-2.3.4-5.2-.8-6.4-.2-.3-.5-.6-.8-.9-2.6-2.3.9-3.5,3-4.4,3.8-1.8,4.2-.5,5.7,2.5.7,1.1,2.1-.9,3.6-1.6,1.4-.9,3.4-1.7,5.2-2,5-.9,9.6,1.7,10.7,7.1,1.2,5.3.2,11.6.4,16.2h0c0,0,0,.1,0,.1Z"/>
    <path class="st2" d="M229.9,49.3c1-.3,1.2,1.3,1.1,2.2-.3,1.8-1.2,3.7-2.7,5.3-2.8,3.1-7.9,4.4-12,3.6-16.7-2.7-14.2-30,3.2-29.8h0c4.2-.1,9.2,2.3,9.7,5.9.4,2.8.2,3.7-1.3,3.8-2.6.2-2.7-.2-3.2-2.1-1.6-5.8-9.7-5.2-12,0-3.5,8.6,2.2,18.9,12,15.5,1.8-.7,3-1.9,4-3.3.3-.4.7-1,1.2-1.1h0Z"/>
    <path class="st2" d="M244.5,42.3v8.8c0,1.8-.1,3.4.7,4.8.7,1.4,2.9,3.4.3,4.5-1.7.5-2.8.2-4.5.2-1.6-.1-6.8.9-5.6-2.2.7-1.2.9-2.2,1.4-3.5.6-1.9.3-4.3.4-6.6-.1-2.8.4-7.2-.3-9.6-.9-2.1-4.6-3.6-.7-5.3,1.9-.8,3.9-1.7,5.9-2.2,3.4-.4,2.6,3,2.6,5.5,0,1.7-.1,3.9-.1,5.4h0q0,0,0,0ZM241.9,19.4c1.9,0,3.6,1.5,3.5,3.4,0,3.1-3.6,5.6-6.7,5.1-2.4-.2-3.1-2.9-2.1-4.8.8-2,3-3.7,5.2-3.7h.1,0Z"/>
    <path class="st2" d="M273.3,35.3c1.1,1.8,1.8,4,1.8,6.7s0,2.3,0,3.5v14.2c0,.2,0,.3-.1.5-.2.3-.5.5-.9.5h-4.8c-.5,0-1-.4-1-1v-2.4c-.1-.2-.3-.4-.4-.4s-.4.3-.7.6c-1.9,1.8-5,3.2-8.2,3.2-4.9,0-8.6-2.5-8.6-7.1s3.3-7.4,8.4-9c3.7-1.1,8.2-1.2,8.9-1.7.3-.2.6-.7.6-2.5,0-2.9-1-5.3-3.2-6.3-.6-.3-1.3-.4-2.1-.4s-.4,0-.6,0c-2.2.2-4.3,1.5-5,4.1-.6,1.9-.6,2.3-3.2,2.1-1.5-.1-1.8-1-1.3-3.8.3-1.7,1.6-3.2,3.4-4.3,1.8-.9,4.1-1.5,6.9-1.5s2.7.1,3.9.4c2.7.8,4.8,2.3,6.5,4.3,0,0,0,0,0,.1h0ZM268.1,48.7c0-1.7-.2-2.2-.5-2.2-2.4,0-4.3.2-5.9.8-3,1-4.4,3-4.4,5s1.8,3.8,4.2,3.8c3.9,0,6.6-2.9,6.6-7.3h0Z"/>
    <path class="st2" d="M354.7,26c.1,1.5.3,3.1-.4,4-.4.5-.9.8-1.9.8-2,0-.8-3-3.6-4.4-1.4-.7-4.1-.7-5.1.2,0,.1-.2.2-.2.3,0,0-.1.1-.1.2,0,0,0,0,0,0,0,0,0,.2-.1.2h0c0,0,0,.2,0,.3,0,.2,0,.4,0,.6,0,.7-.2,2-.2,3.4,0,6.7-.2,17.1.2,22.8.2,1.3.4,2.5,1.5,3.4.5.5,1.2,1.1,1,1.8-.7,1.4-2.2,1.1-3.6,1.1-2.7-.2-5.3,0-8,0-.9,0-1.7-.5-1.6-1.6.2-1.2,2-2.2,2.5-3.8h0c.7-4.8.3-12.9.4-18.7,0-2.2,0-4.3-.1-6.4,0-.3,0-.6,0-.9-.2-1.5,0-1.9-.7-2.6-1-1-3.7-1-5.1-.2-2.8,1.4-1.6,4.4-3.6,4.4-2.7,0-2.4-2.6-2.2-4.8.2-3.7,1.1-4.9,4.9-4.6,2.1,0,4.4,0,6.8.1,1.3,0,2.7,0,4.1,0,1.2,0,2.3,0,3.4,0,2.3,0,4.4,0,6.4,0,1,0,2.1-.1,3.1.1h0c0,0,.1,0,.2,0,.4.1.7.3.9.6.7.7,1,1.9,1.1,3.8h0Z"/>
    <path class="st2" d="M378.5,49.9c.5,0,.8.5.8,1.5,0,3.5-4.1,9.5-12.4,9.5s-14-6-14-14.5,5.9-15.8,14.7-15.8,11.2,5.2,11.2,10.4-.9,2.8-2.1,3.5c-3.4,2.1-11.1,2.8-15.3,2.9-.5,0-.8.1-.8.5,0,2.5,2.2,7.2,8.2,7.2s7-2.2,8.6-4.6c.3-.4.7-.8,1.1-.8h0ZM359.9,42.7c0,.9.3,1.4,1,1.4,2.2,0,8.2-.8,10.4-2.3.7-.5,1-1,1-1.8,0-3.2-2.3-5.7-5.3-5.7s-7,4.1-7,8.4h0Z"/>
    <path class="st2" d="M408.1,49.3c1-.3,1.2,1.3,1,2.2-.3,1.8-1.2,3.7-2.7,5.3-2.8,3.1-7.9,4.4-12,3.6-16.7-2.7-14.2-30,3.2-29.8h0c4.2-.1,9.2,2.3,9.7,5.9.4,2.8.2,3.7-1.3,3.8-2.6.2-2.7-.2-3.2-2.1-1.6-5.8-9.7-5.2-12,0-3.5,8.6,2.2,18.9,12,15.5,1.8-.7,3-1.9,4-3.3.3-.4.7-1,1.2-1.1h0Z"/>
    <path class="st2" d="M442.2,55c.2,2.2,3.5,5-1.2,5.9-1.9.2-3,0-4.9,0-2.4.1-2.6-1-1.9-3.5.8-2.8.4-5.7.6-8.7.2-3.2.2-7.2-1-9.4-1.5-3.5-6.2-3.8-9-1.4-1.9,1.5-2.8,3.8-2.6,6.2v7.8c0,1.5,0,2.9.6,4.2.6,1.3,1.2,2.2,1.1,3.4-.2.8-.4,1.1-1.2,1.2-2.5.2-4.9,0-7.4,0-1,0-1.8-.2-2-1.5,0-1.3,1.2-2.9,1.6-4.5.6-3.3.1-7,.3-10.5-.1-2.3.4-5.2-.8-6.4-.2-.3-.5-.6-.8-.9-2.6-2.3.9-3.5,3-4.4,3.8-1.8,4.2-.5,5.7,2.5.7,1.1,2.1-.9,3.6-1.6,1.4-.9,3.4-1.7,5.2-2,5-.9,9.6,1.7,10.7,7.1,1.2,5.3.2,11.6.4,16.2h0c0,0,0,.1,0,.1Z"/>
    <path class="st2" d="M461.6,30.6c7.8,0,14.8,5.7,14.8,15.8s-6.5,14.3-14.5,14.3-14.5-6.2-14.5-14.8,6-15.3,14.2-15.3h0ZM469.4,48.1c0-3-.8-6.5-2-9-1.7-3.2-4-4.8-6.4-4.8-3.4,0-6.2,2.9-6.2,9.1s.4,5.8,1.6,8.3c1.6,3.2,4.2,4.5,6.5,4.5,3.4,0,6.4-2.4,6.4-8.3Z"/>
    <path class="st2" d="M480.8,57.4c.7-.9,1.4-1.9,1.6-3,.3-1.6.1-4.2.2-6.3v-20.7c0-3.9-6.3-4.6.7-7.4,5.3-2.2,8-2.4,7.2,4.1,0,2.1-.1,4.5-.1,6.4v21.5c0,1.2,0,2.2.5,3.3.4,1.3,2.9,3.2,1.9,4.6-1.8,1.4-4.5.7-6.7.9-2.6,0-8.2.3-5.4-3.4h0c0-.1,0-.1,0-.1Z"/>
    <path class="st2" d="M510.3,30.6c7.8,0,14.8,5.7,14.8,15.8s-6.5,14.3-14.5,14.3-14.5-6.2-14.5-14.8,6-15.3,14.2-15.3h0ZM518,48.1c0-3-.8-6.5-2-9-1.7-3.2-4-4.8-6.4-4.8-3.4,0-6.2,2.9-6.2,9.1s.4,5.8,1.6,8.3c1.6,3.2,4.2,4.5,6.5,4.5,3.4,0,6.4-2.4,6.4-8.3Z"/>
    <path class="st2" d="M570.8,50.9c0,1.8-.1,3.4.7,4.8.7,1.4,3,3.4.3,4.5-1.7.5-2.8.2-4.5.2-1.5-.1-6.8.9-5.6-2.2.7-1.2.9-2.2,1.4-3.5.6-1.9.3-4.3.4-6.6-.2-2.8.4-7.2-.3-9.6-.9-2.1-4.6-3.6-.7-5.3,1.9-.8,3.9-1.7,5.9-2.2,3.4-.4,2.6,3,2.6,5.5,0,1.7-.1,3.9-.1,5.4h0v8.9h0ZM571.3,17.4c1.8.4,2.3,1.9,2,3.3-.2,1.1-.9,2.2-2.5,3.4-2.4,2-6,3.8-7.5,3.4-.7-.2-1.1-.6-.9-1.2,0-.2.2-.4,1-1.4,1.2-1.4,2.5-3.2,3.4-4.6,1-1.5,2.2-3.4,4.4-3h0Z"/>
    <path class="st2" d="M599,35.3c1.1,1.8,1.8,4,1.8,6.7s0,2.3,0,3.5v14.2c0,.2,0,.3-.1.5-.2.3-.5.5-.8.5h-4.8c-.5,0-1-.4-1-1v-2.4c-.1-.2-.3-.4-.4-.4s-.4.3-.7.6c-1.9,1.8-5,3.2-8.2,3.2-4.8,0-8.6-2.5-8.6-7.1s3.3-7.4,8.3-9c3.7-1.1,8.2-1.2,8.9-1.7.3-.2.6-.7.6-2.5,0-2.9-1-5.3-3.2-6.3-.6-.3-1.3-.4-2.2-.4s-.4,0-.6,0c-2.2.2-4.3,1.5-5,4.1-.6,1.9-.6,2.3-3.2,2.1-1.5-.1-1.8-1-1.3-3.8.3-1.7,1.6-3.2,3.4-4.3,1.8-.9,4.1-1.5,6.9-1.5s2.7.1,3.9.4c2.7.8,4.8,2.3,6.5,4.3,0,0,0,0,0,.1h0ZM593.8,48.7c0-1.7-.2-2.2-.5-2.2-2.4,0-4.3.2-5.9.8-3,1-4.4,3-4.4,5s1.8,3.8,4.2,3.8c3.9,0,6.6-2.9,6.6-7.3h0Z"/>
    <path class="st2" d="M315.5,32h0c-.8,0-2.2.1-3.3.1s-2.9-.1-4-.1-1.5.5-1.5,1.5c0,1.4,2.2,1.7,2.2,4s-.2,2.2-1.8,6.7l-.4,1s-2.5,7-2.8,7-1.6-3.8-2.9-7c-2.2-5.5-2.7-7.2-2.7-8.3,0-1.6,1.7-2.3,1.7-3.3s-.8-1.6-1.9-1.6-3.4.1-4.8.1-2.7-.1-4.2-.1-1.7.6-1.7,1.5.7,1.6,1.4,2.2c1.6,1.3,3.8,6.8,5,9.6,1.1,2.6,4.3,9.8,5.8,14.1.4,1.1.2,2.4-.5,3.4-.9,1.2-1.9,2.2-2.7,2.4-2.5.5-2.9-.6-3.3-1.6,0,0,0-.2,0-.2-.4-1.2-.5-1.8-1.3-2.1-.4-.1-1-.1-2,0-1.5.1-1.8,1-1.3,3.8.2,1.4,1.6,4.8,6.1,5,2.2,0,4-1,5.6-2.7,2.8-3,5-8.4,7.9-14.9,1-2.2,4.5-11.6,5.1-13.3,1.7-4.4,3.6-4,3.6-5.8s-.3-1.3-1.5-1.3h0Z"/>
    <path class="st2" d="M554.1,36.3c1,0,2.2-.1,3-.9,1.2-1.1,1.3-3.5.5-4.2-.4-.4-.9-.3-1.4-.2-.8.2-1.5.4-2.4.5-.1,0-.2,0-.3,0-5.2.7-10.6-2-15.8-.5-6.3,1.2-9.8,8.2-7,14h0c.5,1,1.1,1.8,1.8,2.5.2.2.2.6,0,.8-.2.2-.5.5-.7.7-2.6,1.8-3,5.3-.8,7.6h0c-1.3,1.1-2.4,2.5-3,4.1-1.2,3.3,1,6,4.1,7.1,4.8,1.8,10,1.6,15,.3,3-.9,6.2-2.3,8.3-4.6,2.6-2.8,2.7-7-.5-9.3h0c-3-2.1-6.7-2.1-10.2-2-2.2,0-4.7.5-7.1,1.2-.3,0-.7,0-1,0-1-.5-1.7-1.4-1.1-2.7h0c.3-.4.8-.6,1.3-.5,1.3.5,2.8.7,4.2.6h2c2.2-.3,4.4-.8,6.2-2,3.1-1.8,5.1-5.4,4.4-9.1-.1-1.1-.8-2.3-.9-3.2,0-.5.7-.4,1.7-.4h0ZM548.2,58.9c.3.6.5,1.1.5,1.6,0,0,0,0,0,0h0c0,1.4-1,2.5-2.5,3.4-.1,0-.2.1-.3.2,0,0,0,0-.1,0-.8.3-1.7.6-2.6.8,0,0,0,0-.2,0-1,.2-2.1.3-3.3.3h-.5c-2.2,0-4.4-.6-5.5-1.7,0,0-.1-.2-.2-.2,0,0,0,0,0,0-.2-.3-.4-.6-.5-1,0,0,0-.2,0-.3h0c0-.2,0-.3,0-.4,0-.2,0-.3,0-.5,0,0,0-.2,0-.3,0,0,0,0,0-.1.5-1.2,1.9-2.1,3.1-2.6.2,0,.5-.2.8-.2h0c.6-.1,1.4-.3,2.2-.4,1.5-.2,3.3-.3,4.8-.3s.5,0,.7,0c1.4.2,2.7.6,3.5,1.5h0ZM546.8,42.9c-.4,1.5-1.2,2.9-2.7,3.6h0s-.1,0-.2,0c-.1,0-.2,0-.4.1-.1,0-.3,0-.4.1-.2,0-.5,0-.7.1-.2,0-.4,0-.7,0-.9,0-1.7-.2-2.5-.6,0,0,0,0,0,0,0,0-.1,0-.2-.1-1.3-.9-2.2-2.5-2.5-4.3,0-.5-.1-1-.1-1.5s0-1.1.2-1.6c0,0,0-.2,0-.2,0-.2,0-.4.2-.5,0-.3.2-.6.3-.9.8-1.5,2.2-2.7,4.3-2.8h.2c1.9,0,3.3,1.1,4.2,2.6.8,1.4,1.1,3,1.1,4.3s0,1.1-.2,1.5h0Z"/>
    <line class="st0" x1="629.8" y1="13.7" x2="629.8" y2="86.2"/>
  </g>
  <metadata>
    <sfw xmlns="http://ns.adobe.com/SaveForWeb/1.0/">
      <slices/>
      <sliceSourceBounds x="0" y="4.33" width="630.76" height="72.51" bottomLeftOrigin="true"/>
    </sfw>
  </metadata>
</svg>