<?xml version="1.0" encoding="UTF-8"?><svg id="Capa_2" xmlns="http://www.w3.org/2000/svg" viewBox="0 0 235.24 90.51"><g id="Capa_1-2"><path d="M91.62,45.11c0-5.29-4.3-9.59-9.59-9.59h-2.1c-.33-1.05-1.3-1.83-2.47-1.83s-2.14.77-2.47,1.83h-5.35l8.75-8.75c1.81-1.81,2.8-4.22,2.8-6.78s-1-4.97-2.8-6.78c-1.81-1.81-4.22-2.8-6.78-2.8s-4.97,1-6.78,2.8l-8.75,8.75v-12.38c0-2-.62-3.86-1.67-5.39.08-.27.14-.55.14-.84,0-1.6-1.3-2.89-2.89-2.89-.49,0-.94.13-1.34.34C49.15.29,47.85,0,46.49,0,41.2,0,36.9,4.3,36.9,9.59v12.38l-8.75-8.75c-3.74-3.74-9.82-3.74-13.56,0-1.81,1.81-2.8,4.22-2.8,6.78,0,2.21.74,4.31,2.11,6-.53.68-.86,1.53-.86,2.46,0,2.2,1.79,3.99,3.99,3.99.91,0,1.74-.31,2.41-.82l3.91,3.91h-12.38c-5.29,0-9.59,4.3-9.59,9.59s4.3,9.59,9.59,9.59h12.38l-4.75,4.75c-.49-.29-1.06-.46-1.67-.46-1.81,0-3.29,1.48-3.29,3.29,0,.62.18,1.2.48,1.7-1.5,1.74-2.33,3.93-2.33,6.25,0,2.56,1,4.97,2.81,6.78s4.22,2.8,6.78,2.8,4.97-1,6.78-2.8l8.75-8.75v12.36c-.84.43-1.42,1.3-1.42,2.3,0,1.43,1.16,2.6,2.6,2.6.06,0,.11-.01.17-.02,1.67,2.82,4.74,4.72,8.25,4.72,5.29,0,9.59-4.3,9.59-9.59v-12.38l8.75,8.75c1.81,1.81,4.22,2.8,6.78,2.8s4.97-1,6.78-2.8c.95-.95,1.67-2.07,2.14-3.28,1.77-.06,3.19-1.51,3.19-3.29s-1.34-3.14-3.03-3.28c-.47-1.38-1.24-2.65-2.3-3.72l-8.75-8.75h12.38c5.29,0,9.59-4.3,9.59-9.59h-.01ZM77.16,70.45c0,1.3.77,2.43,1.87,2.96-.4.93-.97,1.78-1.7,2.52-3.14,3.14-8.24,3.14-11.38,0l-9.84-9.84v-12.15c0-4.62-3.28-8.49-7.64-9.39,3.11-1.96,7.28-1.59,9.98,1.11l.54.54c-.56.7-.9,1.59-.9,2.56,0,2.27,1.84,4.11,4.11,4.11.97,0,1.85-.34,2.56-.9l12.58,12.58c.83.83,1.45,1.81,1.84,2.88-1.18.5-2.01,1.67-2.01,3.03h0ZM40.69,82.92c0-1.31-.97-2.38-2.23-2.56v-13.64l3.94-3.94c.43.31.95.51,1.53.51,1.43,0,2.6-1.16,2.6-2.6,0-.57-.19-1.1-.51-1.53l1.04-1.04c3.27-3.27,3.68-8.32,1.24-12.04,3.58.81,6.27,4.02,6.27,7.85v26.71c0,4.44-3.61,8.05-8.05,8.05-2.86,0-5.37-1.5-6.8-3.75.59-.48.98-1.2.98-2.01h-.01ZM16.94,65.57c1.81,0,3.29-1.48,3.29-3.29,0-.65-.19-1.25-.51-1.76l5.82-5.82h12.15c4.62,0,8.49-3.28,9.39-7.64.8,1.27,1.24,2.75,1.24,4.29,0,2.15-.84,4.17-2.35,5.69l-1.21,1.21c-.26-.09-.54-.15-.83-.15-1.43,0-2.6,1.16-2.6,2.6,0,.29.06.57.15.83l-14.4,14.4c-3.14,3.14-8.24,3.14-11.38,0-1.52-1.52-2.36-3.54-2.36-5.69,0-1.91.66-3.71,1.87-5.16.5.31,1.09.5,1.73.5h0ZM21.03,28.45c0-2.2-1.79-3.99-3.99-3.99-.71,0-1.38.19-1.96.52-1.13-1.42-1.74-3.16-1.74-5,0-2.15.84-4.17,2.36-5.69,3.14-3.14,8.24-3.14,11.38,0l9.84,9.84v12.15c0,4.62,3.29,8.49,7.64,9.39-1.27.81-2.75,1.24-4.29,1.24-2.15,0-4.17-.84-5.69-2.36l-14.1-14.1c.35-.59.55-1.28.55-2.01h0ZM48.78,3.35c0,1.6,1.3,2.89,2.89,2.89.69,0,1.31-.25,1.81-.66.68,1.18,1.07,2.54,1.07,4v12.44c-.31-.1-.64-.15-.99-.15-1.81,0-3.29,1.48-3.29,3.29,0,.74.25,1.41.66,1.96l-4.97,4.97c-1.81,1.81-2.8,4.22-2.8,6.78,0,1.9.55,3.71,1.57,5.26-3.59-.81-6.27-4.02-6.27-7.85V9.59c0-4.44,3.61-8.05,8.05-8.05.92,0,1.8.16,2.63.45-.22.41-.36.87-.36,1.36h0ZM55.33,35.53c-4.62,0-8.49,3.28-9.39,7.64-1.96-3.11-1.59-7.27,1.11-9.98l5.07-5.07c.44.22.93.34,1.45.34,1.81,0,3.29-1.48,3.29-3.29,0-.52-.12-1.01-.34-1.45l9.42-9.42c3.14-3.14,8.25-3.14,11.38,0,3.14,3.14,3.14,8.25,0,11.38l-9.84,9.84h-12.15,0ZM33.49,45.66c1.81,1.81,4.22,2.81,6.78,2.81,1.9,0,3.71-.55,5.26-1.57-.81,3.58-4.02,6.27-7.84,6.27H10.98c-4.44,0-8.05-3.61-8.05-8.05s3.61-8.05,8.05-8.05h13.92s8.59,8.59,8.59,8.59ZM65.75,50.79c.35-.6.55-1.3.55-2.05,0-2.27-1.84-4.11-4.11-4.11-.75,0-1.44.2-2.05.55l-.62-.62c-3.27-3.27-8.32-3.68-12.04-1.24.81-3.58,4.02-6.27,7.84-6.27h19.67c.33,1.05,1.3,1.83,2.47,1.83s2.14-.77,2.47-1.83h2.1c4.44,0,8.05,3.61,8.05,8.05s-3.61,8.05-8.05,8.05h-13.92l-2.37-2.37h.01Z" style="fill:#691339;"/><path d="M115.82,42.16c6.27,1.92,11.12,5.64,8.77,12.53-2.96,7.15-15.8,7.62-20.64,2.19-1.16-1.24-2.21-5.95.32-5.99,1.07.17,2.2,1.7,3.44,2.84,1.79,1.66,4.3,2.74,6.82,2.46,3.55-.29,6.61-3.21,3.51-6.56-2.7-2.9-8.71-2.99-11.53-5.85-2.94-2.88-3.19-7.63-.06-10.27,3.25-2.99,8.53-3.64,12.9-2.19,2.31.7,4.27,2.58,4.33,5.18.06,1.41-.52,2.5-1.39,2.47-2.26-.41-3.32-3.02-5.64-3.91-.95-.44-2.01-.7-3.05-.69-2.69-.04-4.81,2.07-3.59,4.39.81,1.51,3.25,2.46,5.64,3.34l.17.06h0Z" style="fill:#9f2850;"/><path d="M136.83,49.27c.02-2.03.02-3.75.02-5.64-.15-2.76.36-5.1-.47-7.48-.34-.83-1.1-1.68-1.46-2.42-.84-2.12,2.92-1.74,4.14-1.77,1.59.18,5.17-.59,5.78,1.1.13.7-.87,1.75-1.36,2.69-.79,1.49-.59,2.65-.66,4.47-.05,4.56-.04,11.08.11,14.27-.08,1.58.91,2.77,1.75,4.03.93,1.69-1.65,1.81-2.76,1.82-1.66-.22-6.5.64-7.21-.96v-.06c-.03-.81.78-1.49,1.18-2.17.83-1.17.8-2.3.84-3.91.03-1.31.06-2.65.07-3.97h.03Z" style="fill:#9f2850;"/><path d="M154.51,45.81c-.16-8.9,6.67-16.44,16.06-14.48,1.3.23,2.09.58,3.23.65,1.17.08,2.6-.38,3.31.42.85.98,1.06,3.16,1.42,4.51.19.95.56,2.07.04,2.74-1.47,1.31-2.97-1.95-4.04-2.86-2.08-2.22-5.08-3.52-8.06-2.72-5.45,1.34-7.13,9.27-5.58,14.49,1.24,5.3,6.39,9.6,11.57,6.99,2.69-1.25,2.53-4.63,2.03-7.08-.25-1.28-1.36-1.71-2.32-2.49-.33-.3-.65-.78-.4-1.21.85-1.11,2.75-.72,4.01-.78,1.44.09,3.41-.28,4.6.37,1.45.79.03,2.5-.11,3.85-.47,2.99-.15,2.64-.15,4.94-.33,3.4-4.32,5.17-7.32,6.3-9.66,3.91-18.47-3.72-18.28-13.52v-.1h0v-.02Z" style="fill:#9f2850;"/><path d="M192.14,49.27c.02-2.03.02-3.75.02-5.64-.15-2.76.36-5.1-.47-7.48-.34-.83-1.1-1.68-1.46-2.42-.84-2.12,2.92-1.74,4.14-1.77,1.59.18,5.17-.59,5.78,1.1.13.7-.87,1.75-1.36,2.69-.79,1.49-.59,2.65-.66,4.47-.05,4.56-.04,11.08.11,14.27-.08,1.58.91,2.77,1.75,4.03.93,1.69-1.65,1.81-2.76,1.82-1.66-.22-6.5.64-7.21-.96v-.06c-.03-.81.78-1.49,1.18-2.17.83-1.17.8-2.3.84-3.91.03-1.31.06-2.65.07-3.97h.03Z" style="fill:#9f2850;"/><path d="M209.86,45.85c0-7.75,4.07-14.37,13.35-14.97.48-.03,3.38-.15,6.75,1.12,1.66.73,3.01,1.8,3.58,3.17.12.28.21.57.26.88.05.33.09.63.12.9.17,1.7-.14,2.3-1.27,2.4-.25.02-.47.03-.67.04-1.64.06-1.71-.39-2.16-1.87-.25-.92-.75-1.65-1.41-2.21-.48-.35-.98-.65-1.5-.89-3.25-1.3-8.09-.07-9.52,3.18-.33.82-.81,1.65-1.07,2.49-.06.19-.1.37-.13.56-.01.08-.03.15-.04.23h-.02c-.2.97-.3,1.99-.3,3.04,0,6.72,3.71,11.98,9.64,11.98,4.35,0,6.86-2.82,8.02-5.24.29-.54.6-1.04,1.02-1.04.52,0,.73.73.73,1.31,0,1.16-.39,2.61-1.22,4-1.72,2.8-5.35,5.56-10.72,5.56-8.54,0-13.43-6.78-13.43-14.64h-.01Z" style="fill:#9f2850;"/><path d="M107.44,75.2c0,.65-.24,1.16-.71,1.52-.47.36-1.11.55-1.92.55-.41,0-.79-.03-1.14-.09-.35-.06-.64-.15-.88-.26v-.89c.25.11.55.21.92.3.37.09.75.13,1.14.13.54,0,.95-.11,1.24-.32.28-.21.42-.5.42-.87,0-.24-.05-.44-.15-.61-.1-.17-.28-.32-.54-.45-.25-.14-.6-.29-1.04-.45-.63-.23-1.11-.5-1.42-.83-.32-.33-.47-.78-.47-1.35,0-.38.1-.72.3-1s.47-.5.82-.65.76-.23,1.23-.23c.4,0,.77.04,1.1.11s.65.17.93.3l-.29.79c-.25-.11-.53-.2-.83-.28s-.61-.11-.93-.11c-.46,0-.81.1-1.04.29s-.35.45-.35.78c0,.25.05.45.15.62s.27.31.5.45c.23.13.55.27.95.42.43.16.8.33,1.1.51s.53.4.68.65.23.57.23.96h0Z" style="fill:#691339;"/><path d="M109.27,69.57c.14,0,.26.05.37.14s.16.24.16.44-.05.35-.16.44c-.11.09-.23.14-.37.14-.15,0-.28-.05-.38-.14s-.15-.24-.15-.44.05-.34.15-.44c.1-.09.23-.14.38-.14ZM109.71,71.64v5.52h-.91v-5.52h.91Z" style="fill:#691339;"/><path d="M115.06,75.64c0,.54-.2.94-.6,1.22-.4.27-.93.41-1.61.41-.38,0-.72-.03-.99-.09-.28-.06-.52-.15-.74-.26v-.82c.22.11.49.21.8.3.31.09.63.14.95.14.46,0,.79-.07,1-.22s.31-.35.31-.59c0-.14-.04-.26-.11-.37-.08-.11-.21-.22-.41-.33s-.48-.23-.84-.37c-.36-.14-.66-.27-.92-.41s-.45-.3-.59-.49c-.14-.19-.21-.44-.21-.74,0-.47.19-.83.57-1.08s.88-.38,1.5-.38c.34,0,.65.03.94.1s.56.16.82.27l-.31.72c-.23-.1-.48-.18-.73-.25s-.52-.1-.78-.1c-.37,0-.65.06-.85.18-.2.12-.29.28-.29.49,0,.16.04.29.13.39s.24.21.45.31.49.22.84.35c.35.13.65.26.9.4s.44.3.57.5.2.44.2.74v-.02Z" style="fill:#691339;"/><path d="M118.24,76.52c.14,0,.28-.01.42-.03.14-.02.26-.05.35-.08v.69c-.1.05-.23.09-.41.12-.18.03-.35.05-.51.05-.29,0-.55-.05-.8-.15-.24-.1-.44-.27-.59-.52s-.23-.59-.23-1.04v-3.21h-.78v-.43l.79-.36.36-1.17h.54v1.27h1.6v.7h-1.6v3.19c0,.34.08.59.24.75s.37.24.62.24v-.02Z" style="fill:#691339;"/><path d="M122.25,71.54c.47,0,.87.1,1.22.31.34.21.61.5.79.87s.27.81.27,1.31v.55h-3.78c.01.63.17,1.1.48,1.43s.73.49,1.28.49c.35,0,.66-.03.93-.1s.55-.16.84-.28v.79c-.28.12-.56.21-.83.27s-.6.09-.98.09c-.53,0-.99-.11-1.39-.32s-.71-.53-.93-.95-.33-.94-.33-1.56.1-1.12.3-1.56c.2-.43.49-.77.86-1s.79-.35,1.28-.35h0ZM122.24,72.28c-.43,0-.77.14-1.03.42-.25.28-.4.66-.45,1.16h2.81c0-.47-.12-.85-.33-1.14s-.55-.44-1.01-.44h.01Z" style="fill:#691339;"/><path d="M131.98,71.54c.62,0,1.09.16,1.4.48s.46.84.46,1.55v3.6h-.9v-3.55c0-.87-.37-1.31-1.12-1.31-.54,0-.92.15-1.15.46-.23.31-.35.76-.35,1.35v3.05h-.9v-3.55c0-.87-.38-1.31-1.13-1.31-.56,0-.94.17-1.15.51-.21.34-.32.84-.32,1.48v2.86h-.91v-5.52h.73l.13.75h.05c.17-.29.4-.5.7-.64.29-.14.6-.21.93-.21.87,0,1.43.31,1.69.93h.05c.19-.32.44-.55.75-.7.32-.15.66-.23,1.02-.23h.02Z" style="fill:#691339;"/><path d="M137.65,71.55c.67,0,1.17.15,1.49.44s.48.77.48,1.41v3.76h-.66l-.17-.78h-.04c-.24.3-.49.53-.76.67s-.63.22-1.09.22c-.5,0-.92-.13-1.25-.4-.33-.26-.49-.68-.49-1.24s.22-.97.65-1.27,1.1-.46,2-.49l.94-.03v-.33c0-.46-.1-.78-.3-.96s-.48-.27-.84-.27c-.29,0-.56.04-.82.13s-.5.18-.73.29l-.28-.68c.24-.13.53-.24.86-.33.33-.09.67-.14,1.03-.14h-.02ZM138.73,74.46l-.81.03c-.69.03-1.16.14-1.43.33s-.4.46-.4.81c0,.31.09.54.28.68s.43.22.73.22c.46,0,.85-.13,1.16-.39s.47-.65.47-1.19v-.49h0Z" style="fill:#691339;"/><path d="M146.21,77.16h-2.66v-.54l.87-.2v-5.88l-.87-.21v-.54h2.66v.54l-.87.21v5.88l.87.2v.54Z" style="fill:#691339;"/><path d="M150.16,71.54c.66,0,1.16.16,1.49.48.34.32.5.84.5,1.55v3.6h-.9v-3.53c0-.89-.41-1.33-1.24-1.33-.61,0-1.03.17-1.27.51-.23.34-.35.84-.35,1.48v2.86h-.91v-5.52h.73l.13.75h.05c.18-.29.43-.5.74-.64.32-.14.65-.21,1-.21h.03Z" style="fill:#691339;"/><path d="M155.72,76.52c.14,0,.28-.01.42-.03.14-.02.26-.05.35-.08v.69c-.1.05-.23.09-.41.12-.18.03-.35.05-.51.05-.29,0-.55-.05-.8-.15-.24-.1-.44-.27-.59-.52s-.23-.59-.23-1.04v-3.21h-.78v-.43l.79-.36.36-1.17h.54v1.27h1.6v.7h-1.6v3.19c0,.34.08.59.24.75s.37.24.62.24v-.02Z" style="fill:#691339;"/><path d="M159.72,71.54c.47,0,.87.1,1.22.31.34.21.61.5.79.87s.27.81.27,1.31v.55h-3.78c.01.63.17,1.1.48,1.43s.73.49,1.28.49c.35,0,.66-.03.93-.1s.55-.16.84-.28v.79c-.28.12-.56.21-.83.27s-.6.09-.98.09c-.53,0-.99-.11-1.39-.32s-.71-.53-.93-.95-.33-.94-.33-1.56.1-1.12.3-1.56c.2-.43.49-.77.86-1s.79-.35,1.28-.35h0ZM159.71,72.28c-.43,0-.77.14-1.03.42-.25.28-.4.66-.45,1.16h2.81c0-.47-.12-.85-.33-1.14s-.55-.44-1.01-.44h.01Z" style="fill:#691339;"/><path d="M165.36,71.54c.36,0,.69.07.98.21s.54.35.75.63h.05l.12-.73h.72v5.61c0,.79-.2,1.38-.6,1.78-.4.4-1.03.6-1.87.6s-1.47-.12-1.99-.35v-.83c.54.29,1.22.43,2.04.43.47,0,.85-.14,1.12-.42s.41-.66.41-1.14v-.22c0-.08,0-.2.01-.36,0-.15.01-.26.02-.32h-.04c-.37.56-.94.83-1.71.83-.71,0-1.27-.25-1.67-.75-.4-.5-.6-1.2-.6-2.1s.2-1.58.6-2.1c.4-.52.96-.78,1.66-.78h0ZM165.48,72.3c-.46,0-.82.18-1.07.55s-.38.89-.38,1.57.12,1.2.37,1.56.61.54,1.1.54c.56,0,.96-.15,1.22-.45.25-.3.38-.78.38-1.45v-.22c0-.75-.13-1.29-.39-1.62s-.67-.49-1.23-.49h0Z" style="fill:#691339;"/><path d="M172.31,71.54c.1,0,.21,0,.33.02s.22.03.32.05l-.11.83c-.09-.02-.19-.04-.3-.05s-.21-.02-.3-.02c-.28,0-.55.08-.79.23s-.44.37-.59.65-.22.6-.22.97v2.95h-.91v-5.52h.74l.1,1.01h.04c.17-.3.4-.56.69-.78.28-.22.62-.33,1-.33h0Z" style="fill:#691339;"/><path d="M175.88,71.55c.67,0,1.17.15,1.49.44.32.3.48.77.48,1.41v3.76h-.66l-.17-.78h-.04c-.24.3-.49.53-.76.67s-.63.22-1.09.22c-.5,0-.92-.13-1.25-.4-.33-.26-.49-.68-.49-1.24s.22-.97.65-1.27,1.1-.46,2-.49l.94-.03v-.33c0-.46-.1-.78-.3-.96s-.48-.27-.84-.27c-.29,0-.56.04-.82.13s-.5.18-.73.29l-.28-.68c.24-.13.53-.24.86-.33.33-.09.67-.14,1.03-.14h-.02ZM176.96,74.46l-.81.03c-.69.03-1.16.14-1.43.33s-.4.46-.4.81c0,.31.09.54.28.68s.43.22.73.22c.46,0,.85-.13,1.16-.39s.47-.65.47-1.19v-.49h0Z" style="fill:#691339;"/><path d="M180.47,77.16h-.91v-7.83h.91v7.83Z" style="fill:#691339;"/><path d="M186.86,77.27c-.69,0-1.24-.24-1.65-.72-.41-.48-.62-1.19-.62-2.14s.21-1.66.62-2.15c.42-.48.97-.73,1.65-.73.43,0,.77.08,1.05.24.27.16.49.35.66.58h.06c-.01-.09-.03-.22-.04-.4-.01-.17-.02-.31-.02-.42v-2.2h.91v7.83h-.73l-.13-.74h-.04c-.16.23-.38.43-.66.6-.27.17-.63.25-1.06.25ZM187,76.51c.58,0,.99-.16,1.23-.48s.36-.8.36-1.45v-.17c0-.69-.11-1.21-.34-1.58-.23-.37-.65-.55-1.26-.55-.49,0-.85.19-1.1.58-.24.39-.37.91-.37,1.56s.12,1.17.37,1.53c.24.36.61.55,1.11.55h0Z" style="fill:#691339;"/><path d="M193.37,71.54c.47,0,.87.1,1.22.31.34.21.61.5.79.87s.27.81.27,1.31v.55h-3.78c.01.63.17,1.1.48,1.43s.73.49,1.28.49c.35,0,.66-.03.93-.1s.55-.16.84-.28v.79c-.28.12-.56.21-.83.27s-.6.09-.98.09c-.53,0-.99-.11-1.39-.32s-.71-.53-.93-.95-.33-.94-.33-1.56.1-1.12.3-1.56c.2-.43.49-.77.86-1s.79-.35,1.28-.35h0ZM193.36,72.28c-.43,0-.77.14-1.03.42-.25.28-.4.66-.45,1.16h2.81c0-.47-.12-.85-.33-1.14s-.55-.44-1.01-.44h.01Z" style="fill:#691339;"/><path d="M203.04,73.28h2.54v3.61c-.4.13-.8.23-1.21.29-.41.06-.87.09-1.38.09-.76,0-1.4-.15-1.93-.46-.52-.31-.92-.74-1.19-1.31s-.41-1.24-.41-2.01.15-1.43.45-1.99c.3-.57.73-1.01,1.3-1.32s1.26-.47,2.06-.47c.41,0,.8.04,1.17.11s.71.18,1.03.32l-.35.8c-.26-.11-.55-.21-.88-.29-.33-.09-.66-.13-1.01-.13-.88,0-1.56.27-2.06.8-.49.53-.74,1.26-.74,2.17,0,.58.09,1.1.28,1.55.19.45.49.8.89,1.05s.94.38,1.6.38c.32,0,.6-.02.82-.05.23-.03.43-.08.62-.12v-2.18h-1.62v-.82l.02-.02Z" style="fill:#691339;"/><path d="M209.36,71.54c.47,0,.87.1,1.22.31.34.21.61.5.79.87s.27.81.27,1.31v.55h-3.78c.01.63.17,1.1.48,1.43s.73.49,1.28.49c.35,0,.66-.03.93-.1s.55-.16.84-.28v.79c-.28.12-.56.21-.83.27s-.6.09-.98.09c-.53,0-.99-.11-1.39-.32s-.71-.53-.93-.95-.33-.94-.33-1.56.1-1.12.3-1.56c.2-.43.49-.77.86-1s.79-.35,1.28-.35h0ZM209.35,72.28c-.43,0-.77.14-1.03.42-.25.28-.4.66-.45,1.16h2.81c0-.47-.12-.85-.33-1.14s-.55-.44-1.01-.44h.01Z" style="fill:#691339;"/><path d="M216.63,75.64c0,.54-.2.94-.6,1.22-.4.27-.93.41-1.61.41-.38,0-.72-.03-.99-.09-.28-.06-.52-.15-.74-.26v-.82c.22.11.49.21.8.3.31.09.63.14.95.14.46,0,.79-.07,1-.22s.31-.35.31-.59c0-.14-.04-.26-.11-.37-.08-.11-.21-.22-.41-.33s-.48-.23-.84-.37c-.36-.14-.66-.27-.92-.41s-.45-.3-.59-.49c-.14-.19-.21-.44-.21-.74,0-.47.19-.83.57-1.08s.88-.38,1.5-.38c.34,0,.65.03.94.1s.56.16.82.27l-.31.72c-.23-.1-.48-.18-.73-.25s-.52-.1-.78-.1c-.37,0-.65.06-.85.18-.2.12-.29.28-.29.49,0,.16.04.29.13.39s.24.21.45.31.49.22.84.35c.35.13.65.26.9.4s.44.3.57.5.2.44.2.74v-.02Z" style="fill:#691339;"/><path d="M219.81,76.52c.14,0,.28-.01.42-.03.14-.02.26-.05.35-.08v.69c-.1.05-.23.09-.41.12-.18.03-.35.05-.51.05-.29,0-.55-.05-.8-.15-.24-.1-.44-.27-.59-.52s-.23-.59-.23-1.04v-3.21h-.78v-.43l.79-.36.36-1.17h.54v1.27h1.6v.7h-1.6v3.19c0,.34.08.59.24.75s.37.24.62.24v-.02Z" style="fill:#691339;"/><path d="M222.15,69.57c.14,0,.26.05.37.14s.16.24.16.44-.05.35-.16.44c-.11.09-.23.14-.37.14-.15,0-.28-.05-.38-.14s-.15-.24-.15-.44.05-.34.15-.44c.1-.09.23-.14.38-.14ZM222.6,71.64v5.52h-.91v-5.52h.91Z" style="fill:#691339;"/><path d="M229.15,74.39c0,.91-.23,1.62-.7,2.12-.46.5-1.09.75-1.88.75-.49,0-.92-.11-1.3-.33s-.68-.55-.9-.98c-.22-.43-.33-.95-.33-1.56,0-.91.23-1.62.69-2.11s1.08-.74,1.88-.74c.49,0,.93.11,1.32.33.38.22.69.55.9.97.22.42.32.94.32,1.55ZM224.98,74.39c0,.65.13,1.17.39,1.55.26.38.67.57,1.23.57s.96-.19,1.23-.57c.26-.38.39-.9.39-1.55s-.13-1.16-.39-1.54c-.26-.37-.67-.56-1.24-.56s-.97.19-1.23.56c-.25.37-.38.88-.38,1.54ZM228.05,69.27v.1c-.09.12-.22.28-.39.48s-.35.39-.55.59-.38.36-.54.48h-.6v-.12c.1-.12.21-.28.33-.46s.24-.37.36-.56c.12-.19.21-.36.29-.51h1.1Z" style="fill:#691339;"/><path d="M233.24,71.54c.66,0,1.16.16,1.49.48.34.32.5.84.5,1.55v3.6h-.9v-3.53c0-.89-.41-1.33-1.24-1.33-.61,0-1.03.17-1.27.51-.23.34-.35.84-.35,1.48v2.86h-.91v-5.52h.73l.13.75h.05c.18-.29.43-.5.74-.64.32-.14.65-.21,1-.21h.03Z" style="fill:#691339;"/><path d="M105.1,90.51c-.69,0-1.24-.24-1.65-.72-.41-.48-.62-1.19-.62-2.14s.21-1.66.62-2.15c.42-.48.97-.73,1.65-.73.43,0,.77.08,1.05.24.27.16.49.35.66.58h.06c-.01-.09-.03-.22-.04-.4-.01-.17-.02-.31-.02-.42v-2.2h.91v7.83h-.73l-.13-.74h-.04c-.16.23-.38.43-.66.6-.27.17-.63.25-1.06.25ZM105.25,89.76c.58,0,.99-.16,1.23-.48s.36-.8.36-1.45v-.17c0-.69-.11-1.21-.34-1.58-.23-.37-.65-.55-1.26-.55-.49,0-.85.19-1.1.58-.24.39-.37.91-.37,1.56s.12,1.17.37,1.53c.24.36.61.55,1.11.55h0Z" style="fill:#691339;"/><path d="M111.61,84.78c.47,0,.87.1,1.22.31.34.21.61.5.79.87s.27.81.27,1.31v.55h-3.78c.01.63.17,1.1.48,1.43s.73.49,1.28.49c.35,0,.66-.03.93-.1s.55-.16.84-.28v.79c-.28.12-.56.21-.83.27s-.6.09-.98.09c-.53,0-.99-.11-1.39-.32s-.71-.53-.93-.95-.33-.94-.33-1.56.1-1.12.3-1.56c.2-.43.49-.77.86-1s.79-.35,1.28-.35h0ZM111.6,85.53c-.43,0-.77.14-1.03.42-.25.28-.4.66-.45,1.16h2.81c0-.47-.12-.85-.33-1.14s-.55-.44-1.01-.44h.01Z" style="fill:#691339;"/><path d="M120.17,90.41h-2.66v-.54l.87-.2v-5.88l-.87-.21v-.54h2.66v.54l-.87.21v5.88l.87.2v.54Z" style="fill:#691339;"/><path d="M124.12,84.78c.66,0,1.16.16,1.49.48.34.32.5.84.5,1.55v3.6h-.9v-3.53c0-.89-.41-1.33-1.24-1.33-.61,0-1.03.17-1.27.51-.23.34-.35.84-.35,1.48v2.86h-.91v-5.52h.73l.13.75h.05c.18-.29.43-.5.74-.64.32-.14.65-.21,1-.21h.03Z" style="fill:#691339;"/><path d="M130.37,85.59h-1.39v4.82h-.91v-4.82h-.97v-.42l.97-.31v-.32c0-.71.16-1.23.47-1.54s.75-.47,1.32-.47c.21,0,.41.02.6.06s.34.08.47.13l-.24.71c-.11-.03-.24-.07-.38-.1s-.29-.05-.44-.05c-.3,0-.53.1-.67.3-.15.2-.22.52-.22.95v.36h1.39v.7Z" style="fill:#691339;"/><path d="M136.17,87.64c0,.91-.23,1.62-.7,2.12-.46.5-1.09.75-1.88.75-.49,0-.92-.11-1.3-.33s-.68-.55-.9-.98c-.22-.43-.33-.95-.33-1.56,0-.91.23-1.62.69-2.11s1.08-.74,1.88-.74c.49,0,.93.11,1.32.33.38.22.69.55.9.97.22.42.32.94.32,1.55ZM132,87.64c0,.65.13,1.17.39,1.55.26.38.67.57,1.23.57s.96-.19,1.23-.57c.26-.38.39-.9.39-1.55s-.13-1.16-.39-1.54c-.26-.37-.67-.56-1.24-.56s-.97.19-1.23.56c-.25.37-.38.88-.38,1.54Z" style="fill:#691339;"/><path d="M140.18,84.78c.1,0,.21,0,.33.02s.22.03.32.05l-.11.83c-.09-.02-.19-.04-.3-.05s-.21-.02-.3-.02c-.28,0-.55.08-.79.23s-.44.37-.59.65-.22.6-.22.97v2.95h-.91v-5.52h.74l.1,1.01h.04c.17-.3.4-.56.69-.78.28-.22.62-.33,1-.33h0Z" style="fill:#691339;"/><path d="M147.92,84.78c.62,0,1.09.16,1.4.48s.46.84.46,1.55v3.6h-.9v-3.55c0-.87-.37-1.31-1.12-1.31-.54,0-.92.15-1.15.46-.23.31-.35.76-.35,1.35v3.05h-.9v-3.55c0-.87-.38-1.31-1.13-1.31-.56,0-.94.17-1.15.51-.21.34-.32.84-.32,1.48v2.86h-.91v-5.52h.73l.13.75h.05c.17-.29.4-.5.7-.64.29-.14.6-.21.93-.21.87,0,1.43.31,1.69.93h.05c.19-.32.44-.55.75-.7.32-.15.66-.23,1.02-.23h.02Z" style="fill:#691339;"/><path d="M153.58,84.79c.67,0,1.17.15,1.49.44s.48.77.48,1.41v3.76h-.66l-.17-.78h-.04c-.24.3-.49.53-.76.67s-.63.22-1.09.22c-.5,0-.92-.13-1.25-.4-.33-.26-.49-.68-.49-1.24s.22-.97.65-1.27,1.1-.46,2-.49l.94-.03v-.33c0-.46-.1-.78-.3-.96s-.48-.27-.84-.27c-.29,0-.56.04-.82.13s-.5.18-.73.29l-.28-.68c.24-.13.53-.24.86-.33.33-.09.67-.14,1.03-.14h-.02ZM154.67,87.71l-.81.03c-.69.03-1.16.14-1.43.33s-.4.46-.4.81c0,.31.09.54.28.68s.43.22.73.22c.46,0,.85-.13,1.16-.39s.47-.65.47-1.19v-.49h0Z" style="fill:#691339;"/><path d="M159.49,90.51c-.49,0-.93-.1-1.31-.3s-.67-.51-.89-.93c-.22-.42-.32-.95-.32-1.61s.11-1.23.33-1.66c.22-.43.53-.74.92-.94s.83-.3,1.33-.3c.27,0,.54.03.81.09.26.06.48.13.64.21l-.28.75c-.17-.06-.36-.12-.58-.17-.22-.05-.43-.08-.62-.08-1.09,0-1.63.7-1.63,2.09,0,.67.13,1.18.4,1.53.26.35.66.53,1.18.53.3,0,.56-.03.79-.09s.45-.14.64-.23v.8c-.19.1-.39.17-.61.22s-.49.08-.81.08h.01Z" style="fill:#691339;"/><path d="M162.68,82.82c.14,0,.26.05.37.14s.16.24.16.44-.05.35-.16.44c-.11.09-.23.14-.37.14-.15,0-.28-.05-.38-.14s-.15-.24-.15-.44.05-.34.15-.44c.1-.09.23-.14.38-.14ZM163.12,84.89v5.52h-.91v-5.52h.91Z" style="fill:#691339;"/><path d="M169.68,87.64c0,.91-.23,1.62-.7,2.12-.46.5-1.09.75-1.88.75-.49,0-.92-.11-1.3-.33s-.68-.55-.9-.98c-.22-.43-.33-.95-.33-1.56,0-.91.23-1.62.69-2.11s1.08-.74,1.88-.74c.49,0,.93.11,1.32.33.38.22.69.55.9.97.22.42.32.94.32,1.55ZM165.5,87.64c0,.65.13,1.17.39,1.55.26.38.67.57,1.23.57s.96-.19,1.23-.57c.26-.38.39-.9.39-1.55s-.13-1.16-.39-1.54c-.26-.37-.67-.56-1.24-.56s-.97.19-1.23.56c-.25.37-.38.88-.38,1.54ZM168.57,82.52v.1c-.09.12-.22.28-.39.48s-.35.39-.55.59-.38.36-.54.48h-.6v-.12c.1-.12.21-.28.33-.46s.24-.37.36-.56c.12-.19.21-.36.29-.51h1.1Z" style="fill:#691339;"/><path d="M173.77,84.78c.66,0,1.16.16,1.49.48.34.32.5.84.5,1.55v3.6h-.9v-3.53c0-.89-.41-1.33-1.24-1.33-.61,0-1.03.17-1.27.51-.23.34-.35.84-.35,1.48v2.86h-.91v-5.52h.73l.13.75h.05c.18-.29.43-.5.74-.64.32-.14.65-.21,1-.21h.03Z" style="fill:#691339;"/><path d="M183.43,83.76c-.79,0-1.41.26-1.86.79s-.68,1.25-.68,2.17.21,1.64.63,2.17,1.06.8,1.9.8c.32,0,.62-.03.91-.08s.57-.12.86-.21v.8c-.27.1-.56.18-.85.23s-.64.07-1.05.07c-.75,0-1.37-.15-1.87-.46s-.88-.75-1.13-1.32-.38-1.24-.38-2.01.14-1.4.41-1.96c.27-.57.67-1.01,1.2-1.33s1.17-.48,1.93-.48,1.45.14,2.03.43l-.37.78c-.23-.1-.48-.2-.76-.28s-.58-.12-.91-.12h-.01Z" style="fill:#691339;"/><path d="M187.13,82.82c.14,0,.26.05.37.14s.16.24.16.44-.05.35-.16.44c-.11.09-.23.14-.37.14-.15,0-.28-.05-.38-.14s-.15-.24-.15-.44.05-.34.15-.44c.1-.09.23-.14.38-.14ZM187.57,84.89v5.52h-.91v-5.52h.91Z" style="fill:#691339;"/><path d="M191.45,84.78c.47,0,.87.1,1.22.31.34.21.61.5.79.87s.27.81.27,1.31v.55h-3.78c.01.63.17,1.1.48,1.43s.73.49,1.28.49c.35,0,.66-.03.93-.1s.55-.16.84-.28v.79c-.28.12-.56.21-.83.27s-.6.09-.98.09c-.53,0-.99-.11-1.39-.32s-.71-.53-.93-.95-.33-.94-.33-1.56.1-1.12.3-1.56c.2-.43.49-.77.86-1s.79-.35,1.28-.35h0ZM191.44,85.53c-.43,0-.77.14-1.03.42-.25.28-.4.66-.45,1.16h2.81c0-.47-.12-.85-.33-1.14s-.55-.44-1.01-.44h.01Z" style="fill:#691339;"/><path d="M197.79,84.78c.66,0,1.16.16,1.49.48.34.32.5.84.5,1.55v3.6h-.9v-3.53c0-.89-.41-1.33-1.24-1.33-.61,0-1.03.17-1.27.51-.23.34-.35.84-.35,1.48v2.86h-.91v-5.52h.73l.13.75h.05c.18-.29.43-.5.74-.64.32-.14.65-.21,1-.21h.03Z" style="fill:#691339;"/><path d="M203.34,89.77c.14,0,.28-.01.42-.03.14-.02.26-.05.35-.08v.69c-.1.05-.23.09-.41.12-.18.03-.35.05-.51.05-.29,0-.55-.05-.8-.15-.24-.1-.44-.27-.59-.52s-.23-.59-.23-1.04v-3.21h-.78v-.43l.79-.36.36-1.17h.54v1.27h1.6v.7h-1.6v3.19c0,.34.08.59.24.75s.37.24.62.24v-.02Z" style="fill:#691339;"/><path d="M207.12,82.52v.1c-.09.12-.22.28-.39.48s-.35.39-.55.59-.38.36-.54.48h-.6v-.12c.1-.12.21-.28.33-.46s.24-.37.36-.56c.12-.19.21-.36.29-.51h1.1ZM206.12,90.41h-.91v-5.52h.91v5.52Z" style="fill:#691339;"/><path d="M210.42,85.59h-1.39v4.82h-.91v-4.82h-.97v-.42l.97-.31v-.32c0-.71.16-1.23.47-1.54s.75-.47,1.32-.47c.21,0,.41.02.6.06s.34.08.47.13l-.24.71c-.11-.03-.24-.07-.38-.1s-.29-.05-.44-.05c-.3,0-.53.1-.67.3-.15.2-.22.52-.22.95v.36h1.39v.7Z" style="fill:#691339;"/><path d="M211.88,82.82c.14,0,.26.05.37.14s.16.24.16.44-.05.35-.16.44c-.11.09-.23.14-.37.14-.15,0-.28-.05-.38-.14s-.15-.24-.15-.44.05-.34.15-.44c.1-.09.23-.14.38-.14ZM212.33,84.89v5.52h-.91v-5.52h.91Z" style="fill:#691339;"/><path d="M216.29,90.51c-.49,0-.93-.1-1.31-.3s-.67-.51-.89-.93c-.22-.42-.32-.95-.32-1.61s.11-1.23.33-1.66c.22-.43.53-.74.92-.94s.83-.3,1.33-.3c.27,0,.54.03.81.09.26.06.48.13.64.21l-.28.75c-.17-.06-.36-.12-.58-.17-.22-.05-.43-.08-.62-.08-1.09,0-1.63.7-1.63,2.09,0,.67.13,1.18.4,1.53.26.35.66.53,1.18.53.3,0,.56-.03.79-.09s.45-.14.64-.23v.8c-.19.1-.39.17-.61.22s-.49.08-.81.08h.01Z" style="fill:#691339;"/><path d="M221.11,84.79c.67,0,1.17.15,1.49.44s.48.77.48,1.41v3.76h-.66l-.17-.78h-.04c-.24.3-.49.53-.76.67s-.63.22-1.09.22c-.5,0-.92-.13-1.25-.4-.33-.26-.49-.68-.49-1.24s.22-.97.65-1.27,1.1-.46,2-.49l.94-.03v-.33c0-.46-.1-.78-.3-.96s-.48-.27-.84-.27c-.29,0-.56.04-.82.13s-.5.18-.73.29l-.28-.68c.24-.13.53-.24.86-.33.33-.09.67-.14,1.03-.14h-.02ZM222.19,87.71l-.81.03c-.69.03-1.16.14-1.43.33s-.4.46-.4.81c0,.31.09.54.28.68s.43.22.73.22c.46,0,.85-.13,1.16-.39s.47-.65.47-1.19v-.49h0Z" style="fill:#691339;"/></g></svg>